{
.appVersion = "3091";
DisplayStrings = (
"LTL/space LMTTLMLTD",
"Alvarado\012Font\012Family\012Alvarado/space was/space created/space by/space Hector/space Torres/space using/space Glyphs/space and/space the/space Dinamo/space Font/space Gauntlet/space (fontgauntlet.com)\012Alvarado/space is/space an/space open-source/space variable/space typeface/space based/space on/space vernacular/space signage/space found/space throughout/space the/space City/space of/space Los/space Angeles,/space in/space particular/space Alvarado/space Street,/space which/space is/space named/space after/space California/space Governor/space Juan/space Bautista/space Alvarado,/space and/space specifically/space on/space the/space stretch/space through/space the/space Westlake/space and/space Pico-Union/space neighborhoods/space which/space are/space among/space the/space highest/space density/space communities/space in/space the/space United/space States/space West/space of/space the/space Mississippi:/space http://primary-foundry.com\0128/space Cuts\012\012Light\012light/space italic\012Regular\012regular/space italic\012Medium\012medium/space italic\012Bold\012bold/space italic\012Los/space Angeles\012California\0122022\012VARIABLE\012font\012ggggggggggg\012ggggggggggg\012ggggggggggg\012ggggggggggg\0120100\012/quotedblleft Just/space wanna/space say/space that/space the/space g/space you/space design[ed]/space is/space a/space total/space banger./space Instant/space classic!/quotedblright \012/emdash/space Johannes/space Breyer\012ABC/space Dinamo"
);
customParameters = (
{
name = "Enforce Compatibility Check";
value = 1;
},
{
name = Axes;
value = (
{
Name = Weight;
Tag = wght;
},
{
Name = Italic;
Tag = ital;
}
);
},
{
name = "Variable Font Family Name";
value = AlvaradoVar;
},
{
name = variableStyleName;
value = Light;
}
);
date = "2016-08-12 16:47:43 +0000";
designer = "Hector Torres";
designerURL = astudionameddesire.com;
familyName = Alvarado;
fontMaster = (
{
ascender = 800;

glyphs = (
{
glyphname = A;
lastChange = "2022-06-14 17:48:21 +0000";
layers = (
{
layerId = "0F50FE64-90BD-4AD4-940A-DD271C654105";
paths = (
{
closed = 1;
nodes = (
"89 66 LINE",
"82 51 LINE",
"74 34 OFFCURVE",
"60 23 OFFCURVE",
"43 23 CURVE SMOOTH",
"40 23 LINE",
"40 0 LINE",
"183 0 LINE",
"183 24 LINE",
"152 24 OFFCURVE",
"135 54 OFFCURVE",
"144 83 CURVE",
"116 69 LINE"
);
},
{
closed = 1;
nodes = (
"306 663 LINE",
"89 66 LINE",
"132 50 LINE",
"351 658 LINE"
);
},
{
closed = 1;
nodes = (
"504 119 LINE",
"582 148 LINE",
"371 728 LINE",
"306 663 LINE"
);
},
{
closed = 1;
nodes = (
"213 297 LINE",
"472 297 LINE",
"472 342 LINE",
"213 342 LINE"
);
},
{
closed = 1;
nodes = (
"504 119 LINE",
"517 81 LINE",
"528 48 OFFCURVE",
"506 23 OFFCURVE",
"476 22 CURVE",
"476 0 LINE",
"658 0 LINE",
"659 22 LINE",
"640 23 OFFCURVE",
"625 29 OFFCURVE",
"617 52 CURVE SMOOTH",
"582 148 LINE"
);
}
);
width = 699;
},
{
layerId = "78443275-C7CF-46E0-B20A-E99834DDCE81";
paths = (
{
closed = 1;
nodes = (
"89 66 LINE",
"82 51 LINE",
"74 34 OFFCURVE",
"60 23 OFFCURVE",
"43 23 CURVE SMOOTH",
"40 23 LINE",
"40 0 LINE",
"223 0 LINE",
"223 24 LINE",
"192 24 OFFCURVE",
"175 54 OFFCURVE",
"184 83 CURVE",
"116 69 LINE"
);
},
{
closed = 1;
nodes = (
"306 663 LINE",
"89 66 LINE",
"172 50 LINE",
"391 658 LINE"
);
},
{
closed = 1;
nodes = (
"504 119 LINE",
"662 148 LINE",
"451 728 LINE",
"306 663 LINE"
);
},
{
closed = 1;
nodes = (
"173 256 LINE",
"512 256 LINE",
"472 342 LINE",
"213 342 LINE"
);
},
{
closed = 1;
nodes = (
"504 119 LINE",
"517 81 LINE",
"528 48 OFFCURVE",
"506 23 OFFCURVE",
"476 22 CURVE",
"476 0 LINE",
"738 0 LINE",
"739 22 LINE",
"720 23 OFFCURVE",
"705 29 OFFCURVE",
"697 52 CURVE SMOOTH",
"662 148 LINE"
);
}
);
width = 779;
},
{
layerId = "A2D4E86B-AE4C-4A17-A9B1-46D900F500CD";
paths = (
{
closed = 1;
nodes = (
"50 66 LINE",
"40 51 LINE",
"28 34 OFFCURVE",
"12 23 OFFCURVE",
"-5 23 CURVE SMOOTH",
"-8 23 LINE",
"-13 0 LINE",
"130 0 LINE",
"134 24 LINE",
"103 24 OFFCURVE",
"93 54 OFFCURVE",
"108 83 CURVE",
"77 69 LINE"
);
},
{
closed = 1;
nodes = (
"390 663 LINE",
"50 66 LINE",
"89 50 LINE",
"434 658 LINE"
);
},
{
closed = 1;
nodes = (
"475 119 LINE",
"559 148 LINE",
"469 728 LINE",
"390 663 LINE"
);
},
{
closed = 1;
nodes = (
"221 297 LINE",
"480 297 LINE",
"490 342 LINE",
"231 342 LINE"
);
},
{
closed = 1;
nodes = (
"475 119 LINE",
"480 81 LINE",
"484 48 OFFCURVE",
"458 23 OFFCURVE",
"428 22 CURVE",
"423 0 LINE",
"605 0 LINE",
"606 22 LINE",
"587 23 OFFCURVE",
"577 29 OFFCURVE",
"575 52 CURVE SMOOTH",
"559 148 LINE"
);
}
);
width = 698;
},
{
layerId = "01F24223-DBC3-4147-9700-0A3055B7ADEF";
paths = (
{
closed = 1;
nodes = (
"50 66 LINE",
"39 51 LINE",
"28 34 OFFCURVE",
"12 23 OFFCURVE",
"-5 23 CURVE SMOOTH",
"-8 23 LINE",
"-13 0 LINE",
"170 0 LINE",
"175 24 LINE",
"144 24 OFFCURVE",
"133 54 OFFCURVE",
"148 83 CURVE",
"77 69 LINE"
);
},
{
closed = 1;
nodes = (
"394 663 LINE",
"50 66 LINE",
"129 50 LINE",
"477 658 LINE"
);
},
{
closed = 1;
nodes = (
"476 119 LINE",
"640 148 LINE",
"552 728 LINE",
"394 663 LINE"
);
},
{
closed = 1;
nodes = (
"174 256 LINE",
"513 256 LINE",
"491 342 LINE",
"232 342 LINE"
);
},
{
closed = 1;
nodes = (
"476 119 LINE",
"481 81 LINE",
"485 48 OFFCURVE",
"458 23 OFFCURVE",
"427 22 CURVE",
"423 0 LINE",
"685 0 LINE",
"690 22 LINE",
"672 23 OFFCURVE",
"658 29 OFFCURVE",
"655 52 CURVE SMOOTH",
"640 148 LINE"
);
}
);
width = 778;
}
);
unicode = 0041;
},
{
glyphname = Aacute;
lastChange = "2022-02-14 00:56:14 +0000";
layers = (
{
layerId = "0F50FE64-90BD-4AD4-940A-DD271C654105";
paths = (
{
closed = 1;
nodes = (
"89 66 LINE",
"82 51 LINE",
"74 34 OFFCURVE",
"60 23 OFFCURVE",
"43 23 CURVE SMOOTH",
"40 23 LINE",
"40 0 LINE",
"183 0 LINE",
"183 24 LINE",
"152 24 OFFCURVE",
"135 54 OFFCURVE",
"144 83 CURVE",
"116 69 LINE"
);
},
{
closed = 1;
nodes = (
"306 663 LINE",
"89 66 LINE",
"132 50 LINE",
"351 658 LINE"
);
},
{
closed = 1;
nodes = (
"504 119 LINE",
"582 148 LINE",
"371 728 LINE",
"306 663 LINE"
);
},
{
closed = 1;
nodes = (
"213 297 LINE",
"472 297 LINE",
"472 342 LINE",
"213 342 LINE"
);
},
{
closed = 1;
nodes = (
"504 119 LINE",
"517 81 LINE",
"528 48 OFFCURVE",
"506 23 OFFCURVE",
"476 22 CURVE",
"476 0 LINE",
"658 0 LINE",
"659 22 LINE",
"640 23 OFFCURVE",
"625 29 OFFCURVE",
"617 52 CURVE SMOOTH",
"582 148 LINE"
);
},
{
closed = 1;
nodes = (
"377 750 LINE",
"480 870 LINE",
"396 870 LINE",
"332 750 LINE"
);
}
);
width = 699;
},
{
layerId = "78443275-C7CF-46E0-B20A-E99834DDCE81";
paths = (
{
closed = 1;
nodes = (
"89 66 LINE",
"82 51 LINE",
"74 34 OFFCURVE",
"60 23 OFFCURVE",
"43 23 CURVE SMOOTH",
"40 23 LINE",
"40 0 LINE",
"223 0 LINE",
"223 24 LINE",
"192 24 OFFCURVE",
"175 54 OFFCURVE",
"184 83 CURVE",
"116 69 LINE"
);
},
{
closed = 1;
nodes = (
"306 663 LINE",
"89 66 LINE",
"172 50 LINE",
"391 658 LINE"
);
},
{
closed = 1;
nodes = (
"504 119 LINE",
"662 148 LINE",
"451 728 LINE",
"306 663 LINE"
);
},
{
closed = 1;
nodes = (
"173 256 LINE",
"512 256 LINE",
"472 342 LINE",
"213 342 LINE"
);
},
{
closed = 1;
nodes = (
"504 119 LINE",
"517 81 LINE",
"528 48 OFFCURVE",
"506 23 OFFCURVE",
"476 22 CURVE",
"476 0 LINE",
"738 0 LINE",
"739 22 LINE",
"720 23 OFFCURVE",
"705 29 OFFCURVE",
"697 52 CURVE SMOOTH",
"662 148 LINE"
);
},
{
closed = 1;
nodes = (
"447 761 LINE",
"603 871 LINE",
"399 871 LINE",
"362 761 LINE"
);
}
);
width = 779;
},
{
layerId = "A2D4E86B-AE4C-4A17-A9B1-46D900F500CD";
paths = (
{
closed = 1;
nodes = (
"50 66 LINE",
"40 51 LINE",
"28 34 OFFCURVE",
"12 23 OFFCURVE",
"-5 23 CURVE SMOOTH",
"-8 23 LINE",
"-13 0 LINE",
"130 0 LINE",
"134 24 LINE",
"103 24 OFFCURVE",
"93 54 OFFCURVE",
"108 83 CURVE",
"77 69 LINE"
);
},
{
closed = 1;
nodes = (
"390 663 LINE",
"50 66 LINE",
"89 50 LINE",
"434 658 LINE"
);
},
{
closed = 1;
nodes = (
"475 119 LINE",
"559 148 LINE",
"469 728 LINE",
"390 663 LINE"
);
},
{
closed = 1;
nodes = (
"221 297 LINE",
"480 297 LINE",
"490 342 LINE",
"231 342 LINE"
);
},
{
closed = 1;
nodes = (
"475 119 LINE",
"480 81 LINE",
"484 48 OFFCURVE",
"458 23 OFFCURVE",
"428 22 CURVE",
"423 0 LINE",
"605 0 LINE",
"606 22 LINE",
"587 23 OFFCURVE",
"579 29 OFFCURVE",
"575 52 CURVE SMOOTH",
"559 148 LINE"
);
},
{
closed = 1;
nodes = (
"477 750 LINE",
"580 870 LINE",
"496 870 LINE",
"432 750 LINE"
);
}
);
width = 698;
},
{
layerId = "01F24223-DBC3-4147-9700-0A3055B7ADEF";
paths = (
{
closed = 1;
nodes = (
"103 66 LINE",
"93 51 LINE",
"82 34 OFFCURVE",
"65 23 OFFCURVE",
"48 23 CURVE SMOOTH",
"45 23 LINE",
"40 0 LINE",
"223 0 LINE",
"229 24 LINE",
"198 24 OFFCURVE",
"187 54 OFFCURVE",
"202 83 CURVE",
"131 69 LINE"
);
},
{
closed = 1;
nodes = (
"447 663 LINE",
"103 66 LINE",
"183 50 LINE",
"531 658 LINE"
);
},
{
closed = 1;
nodes = (
"530 119 LINE",
"694 148 LINE",
"606 728 LINE",
"447 663 LINE"
);
},
{
closed = 1;
nodes = (
"228 256 LINE",
"567 256 LINE",
"545 342 LINE",
"286 342 LINE"
);
},
{
closed = 1;
nodes = (
"530 119 LINE",
"535 81 LINE",
"539 48 OFFCURVE",
"511 23 OFFCURVE",
"481 22 CURVE",
"476 0 LINE",
"738 0 LINE",
"744 22 LINE",
"725 23 OFFCURVE",
"712 29 OFFCURVE",
"708 52 CURVE SMOOTH",
"694 148 LINE"
);
},
{
closed = 1;
nodes = (
"609 761 LINE",
"789 871 LINE",
"585 871 LINE",
"524 761 LINE"
);
}
);
width = 829;
}
);
unicode = 00C1;
},
{
glyphname = Agrave;
lastChange = "2022-02-16 21:37:28 +0000";
layers = (
{
layerId = "0F50FE64-90BD-4AD4-940A-DD271C654105";
paths = (
{
closed = 1;
nodes = (
"69 66 LINE",
"62 51 LINE",
"54 34 OFFCURVE",
"40 23 OFFCURVE",
"23 23 CURVE SMOOTH",
"20 23 LINE",
"20 0 LINE",
"163 0 LINE",
"163 24 LINE",
"132 24 OFFCURVE",
"115 54 OFFCURVE",
"124 83 CURVE",
"96 69 LINE"
);
},
{
closed = 1;
nodes = (
"286 663 LINE",
"69 66 LINE",
"112 50 LINE",
"331 658 LINE"
);
},
{
closed = 1;
nodes = (
"484 119 LINE",
"562 148 LINE",
"351 728 LINE",
"286 663 LINE"
);
},
{
closed = 1;
nodes = (
"193 297 LINE",
"452 297 LINE",
"452 342 LINE",
"193 342 LINE"
);
},
{
closed = 1;
nodes = (
"484 119 LINE",
"497 81 LINE",
"508 48 OFFCURVE",
"486 23 OFFCURVE",
"456 22 CURVE",
"456 0 LINE",
"638 0 LINE",
"639 22 LINE",
"620 23 OFFCURVE",
"605 29 OFFCURVE",
"597 52 CURVE SMOOTH",
"562 148 LINE"
);
},
{
closed = 1;
nodes = (
"280 878 LINE",
"196 878 LINE",
"302 736 LINE",
"347 736 LINE"
);
}
);
width = 659;
},
{
layerId = "78443275-C7CF-46E0-B20A-E99834DDCE81";
paths = (
{
closed = 1;
nodes = (
"69 66 LINE",
"62 51 LINE",
"54 34 OFFCURVE",
"40 23 OFFCURVE",
"23 23 CURVE SMOOTH",
"20 23 LINE",
"20 0 LINE",
"203 0 LINE",
"203 24 LINE",
"172 24 OFFCURVE",
"155 54 OFFCURVE",
"164 83 CURVE",
"96 69 LINE"
);
},
{
closed = 1;
nodes = (
"286 663 LINE",
"69 66 LINE",
"152 50 LINE",
"371 658 LINE"
);
},
{
closed = 1;
nodes = (
"484 119 LINE",
"642 148 LINE",
"431 728 LINE",
"286 663 LINE"
);
},
{
closed = 1;
nodes = (
"153 256 LINE",
"492 256 LINE",
"452 342 LINE",
"193 342 LINE"
);
},
{
closed = 1;
nodes = (
"484 119 LINE",
"497 81 LINE",
"508 48 OFFCURVE",
"486 23 OFFCURVE",
"456 22 CURVE",
"456 0 LINE",
"718 0 LINE",
"719 22 LINE",
"700 23 OFFCURVE",
"685 29 OFFCURVE",
"677 52 CURVE SMOOTH",
"642 148 LINE"
);
},
{
closed = 1;
nodes = (
"364 894 LINE",
"160 894 LINE",
"306 752 LINE",
"391 752 LINE"
);
}
);
width = 739;
},
{
layerId = "A2D4E86B-AE4C-4A17-A9B1-46D900F500CD";
paths = (
{
closed = 1;
nodes = (
"30 66 LINE",
"20 51 LINE",
"8 34 OFFCURVE",
"-8 23 OFFCURVE",
"-25 23 CURVE SMOOTH",
"-28 23 LINE",
"-33 0 LINE",
"110 0 LINE",
"115 24 LINE",
"84 24 OFFCURVE",
"73 54 OFFCURVE",
"88 83 CURVE",
"57 69 LINE"
);
},
{
closed = 1;
nodes = (
"374 663 LINE",
"30 66 LINE",
"69 50 LINE",
"418 658 LINE"
);
},
{
closed = 1;
nodes = (
"456 119 LINE",
"540 148 LINE",
"452 728 LINE",
"374 663 LINE"
);
},
{
closed = 1;
nodes = (
"203 297 LINE",
"462 297 LINE",
"471 342 LINE",
"212 342 LINE"
);
},
{
closed = 1;
nodes = (
"456 119 LINE",
"461 81 LINE",
"465 48 OFFCURVE",
"438 23 OFFCURVE",
"407 22 CURVE",
"403 0 LINE",
"585 0 LINE",
"590 22 LINE",
"572 23 OFFCURVE",
"558 29 OFFCURVE",
"555 52 CURVE SMOOTH",
"540 148 LINE"
);
},
{
closed = 1;
nodes = (
"413 878 LINE",
"329 878 LINE",
"405 736 LINE",
"450 736 LINE"
);
}
);
width = 658;
},
{
layerId = "01F24223-DBC3-4147-9700-0A3055B7ADEF";
paths = (
{
closed = 1;
nodes = (
"103 66 LINE",
"93 51 LINE",
"81 34 OFFCURVE",
"65 23 OFFCURVE",
"48 23 CURVE SMOOTH",
"45 23 LINE",
"40 0 LINE",
"223 0 LINE",
"228 24 LINE",
"197 24 OFFCURVE",
"186 54 OFFCURVE",
"202 83 CURVE",
"131 69 LINE"
);
},
{
closed = 1;
nodes = (
"447 663 LINE",
"103 66 LINE",
"183 50 LINE",
"531 658 LINE"
);
},
{
closed = 1;
nodes = (
"529 119 LINE",
"693 148 LINE",
"606 728 LINE",
"447 663 LINE"
);
},
{
closed = 1;
nodes = (
"227 256 LINE",
"566 256 LINE",
"545 342 LINE",
"286 342 LINE"
);
},
{
closed = 1;
nodes = (
"529 119 LINE",
"534 81 LINE",
"538 48 OFFCURVE",
"511 23 OFFCURVE",
"481 22 CURVE",
"476 0 LINE",
"738 0 LINE",
"744 22 LINE",
"725 23 OFFCURVE",
"712 29 OFFCURVE",
"708 52 CURVE SMOOTH",
"693 148 LINE"
);
},
{
closed = 1;
nodes = (
"566 894 LINE",
"362 894 LINE",
"478 752 LINE",
"563 752 LINE"
);
}
);
width = 784;
}
);
unicode = 00C0;
},
{
glyphname = Atilde;
lastChange = "2022-02-15 00:22:33 +0000";
layers = (
{
layerId = "0F50FE64-90BD-4AD4-940A-DD271C654105";
paths = (
{
closed = 1;
nodes = (
"89 66 LINE",
"82 51 LINE",
"74 34 OFFCURVE",
"60 23 OFFCURVE",
"43 23 CURVE SMOOTH",
"40 23 LINE",
"40 0 LINE",
"183 0 LINE",
"183 24 LINE",
"152 24 OFFCURVE",
"135 54 OFFCURVE",
"144 83 CURVE",
"116 69 LINE"
);
},
{
closed = 1;
nodes = (
"306 663 LINE",
"89 66 LINE",
"132 50 LINE",
"351 658 LINE"
);
},
{
closed = 1;
nodes = (
"504 119 LINE",
"582 148 LINE",
"371 728 LINE",
"306 663 LINE"
);
},
{
closed = 1;
nodes = (
"213 297 LINE",
"472 297 LINE",
"472 342 LINE",
"213 342 LINE"
);
},
{
closed = 1;
nodes = (
"504 119 LINE",
"517 81 LINE",
"528 48 OFFCURVE",
"506 23 OFFCURVE",
"476 22 CURVE",
"476 0 LINE",
"658 0 LINE",
"659 22 LINE",
"640 23 OFFCURVE",
"625 29 OFFCURVE",
"617 52 CURVE SMOOTH",
"582 148 LINE"
);
},
{
closed = 1;
nodes = (
"501 816 OFFCURVE",
"476 783 OFFCURVE",
"439 782 CURVE SMOOTH",
"404 781 OFFCURVE",
"348 842 OFFCURVE",
"312 842 CURVE SMOOTH",
"274 842 OFFCURVE",
"237 786 OFFCURVE",
"198 748 CURVE",
"208 714 LINE",
"257 757 OFFCURVE",
"274 782 OFFCURVE",
"313 782 CURVE SMOOTH",
"348 782 OFFCURVE",
"409 722 OFFCURVE",
"438 722 CURVE SMOOTH",
"476 722 OFFCURVE",
"514 771 OFFCURVE",
"554 807 CURVE",
"544 839 LINE"
);
}
);
width = 699;
},
{
layerId = "78443275-C7CF-46E0-B20A-E99834DDCE81";
paths = (
{
closed = 1;
nodes = (
"89 66 LINE",
"82 51 LINE",
"74 34 OFFCURVE",
"60 23 OFFCURVE",
"43 23 CURVE SMOOTH",
"40 23 LINE",
"40 0 LINE",
"223 0 LINE",
"223 24 LINE",
"192 24 OFFCURVE",
"175 54 OFFCURVE",
"184 83 CURVE",
"116 69 LINE"
);
},
{
closed = 1;
nodes = (
"306 663 LINE",
"89 66 LINE",
"172 50 LINE",
"391 658 LINE"
);
},
{
closed = 1;
nodes = (
"504 119 LINE",
"662 148 LINE",
"451 728 LINE",
"306 663 LINE"
);
},
{
closed = 1;
nodes = (
"173 256 LINE",
"512 256 LINE",
"472 342 LINE",
"213 342 LINE"
);
},
{
closed = 1;
nodes = (
"504 119 LINE",
"517 81 LINE",
"528 48 OFFCURVE",
"506 23 OFFCURVE",
"476 22 CURVE",
"476 0 LINE",
"738 0 LINE",
"739 22 LINE",
"720 23 OFFCURVE",
"705 29 OFFCURVE",
"697 52 CURVE SMOOTH",
"662 148 LINE"
);
},
{
closed = 1;
nodes = (
"506 854 OFFCURVE",
"501 839 OFFCURVE",
"464 837 CURVE SMOOTH",
"429 835 OFFCURVE",
"392 877 OFFCURVE",
"357 877 CURVE SMOOTH",
"319 877 OFFCURVE",
"263 842 OFFCURVE",
"223 803 CURVE",
"250 734 LINE",
"289 767 OFFCURVE",
"319 777 OFFCURVE",
"358 777 CURVE SMOOTH",
"392 777 OFFCURVE",
"434 737 OFFCURVE",
"463 737 CURVE SMOOTH",
"501 737 OFFCURVE",
"539 766 OFFCURVE",
"579 802 CURVE",
"549 877 LINE"
);
}
);
width = 779;
},
{
layerId = "A2D4E86B-AE4C-4A17-A9B1-46D900F500CD";
paths = (
{
closed = 1;
nodes = (
"51 66 LINE",
"40 51 LINE",
"29 34 OFFCURVE",
"12 23 OFFCURVE",
"-5 23 CURVE SMOOTH",
"-8 23 LINE",
"-12 0 LINE",
"131 0 LINE",
"136 24 LINE",
"105 24 OFFCURVE",
"94 54 OFFCURVE",
"109 83 CURVE",
"78 69 LINE"
);
},
{
closed = 1;
nodes = (
"394 663 LINE",
"51 66 LINE",
"90 50 LINE",
"438 658 LINE"
);
},
{
closed = 1;
nodes = (
"477 119 LINE",
"561 148 LINE",
"473 728 LINE",
"394 663 LINE"
);
},
{
closed = 1;
nodes = (
"224 297 LINE",
"483 297 LINE",
"492 342 LINE",
"233 342 LINE"
);
},
{
closed = 1;
nodes = (
"477 119 LINE",
"482 81 LINE",
"486 48 OFFCURVE",
"458 23 OFFCURVE",
"428 22 CURVE",
"424 0 LINE",
"606 0 LINE",
"611 22 LINE",
"592 23 OFFCURVE",
"580 29 OFFCURVE",
"576 52 CURVE SMOOTH",
"561 148 LINE"
);
},
{
closed = 1;
nodes = (
"609 846 OFFCURVE",
"577 813 OFFCURVE",
"540 812 CURVE SMOOTH",
"505 811 OFFCURVE",
"462 872 OFFCURVE",
"426 872 CURVE SMOOTH",
"388 872 OFFCURVE",
"340 817 OFFCURVE",
"292 778 CURVE",
"294 744 LINE",
"353 787 OFFCURVE",
"375 812 OFFCURVE",
"414 812 CURVE SMOOTH",
"449 812 OFFCURVE",
"497 752 OFFCURVE",
"526 752 CURVE SMOOTH",
"564 752 OFFCURVE",
"613 801 OFFCURVE",
"660 837 CURVE",
"657 869 LINE"
);
}
);
width = 699;
},
{
layerId = "01F24223-DBC3-4147-9700-0A3055B7ADEF";
paths = (
{
closed = 1;
nodes = (
"103 66 LINE",
"93 51 LINE",
"81 34 OFFCURVE",
"65 23 OFFCURVE",
"48 23 CURVE SMOOTH",
"45 23 LINE",
"40 0 LINE",
"223 0 LINE",
"228 24 LINE",
"197 24 OFFCURVE",
"186 54 OFFCURVE",
"201 83 CURVE",
"130 69 LINE"
);
},
{
closed = 1;
nodes = (
"447 663 LINE",
"103 66 LINE",
"182 50 LINE",
"531 658 LINE"
);
},
{
closed = 1;
nodes = (
"529 119 LINE",
"693 148 LINE",
"606 728 LINE",
"447 663 LINE"
);
},
{
closed = 1;
nodes = (
"227 256 LINE",
"566 256 LINE",
"544 342 LINE",
"285 342 LINE"
);
},
{
closed = 1;
nodes = (
"529 119 LINE",
"534 81 LINE",
"538 48 OFFCURVE",
"511 23 OFFCURVE",
"480 22 CURVE",
"476 0 LINE",
"738 0 LINE",
"743 22 LINE",
"725 23 OFFCURVE",
"711 29 OFFCURVE",
"708 52 CURVE SMOOTH",
"693 148 LINE"
);
},
{
closed = 1;
nodes = (
"687 854 OFFCURVE",
"679 839 OFFCURVE",
"642 837 CURVE SMOOTH",
"606 835 OFFCURVE",
"578 877 OFFCURVE",
"543 877 CURVE SMOOTH",
"505 877 OFFCURVE",
"442 842 OFFCURVE",
"393 803 CURVE",
"406 734 LINE",
"452 767 OFFCURVE",
"484 777 OFFCURVE",
"523 777 CURVE SMOOTH",
"557 777 OFFCURVE",
"590 737 OFFCURVE",
"619 737 CURVE SMOOTH",
"657 737 OFFCURVE",
"702 766 OFFCURVE",
"749 802 CURVE",
"735 877 LINE"
);
}
);
width = 789;
}
);
unicode = 00C3;
},
{
glyphname = AE;
lastChange = "2022-02-15 00:22:45 +0000";
layers = (
{
layerId = "0F50FE64-90BD-4AD4-940A-DD271C654105";
paths = (
{
closed = 1;
nodes = (
"69 66 LINE",
"62 51 LINE",
"54 34 OFFCURVE",
"40 23 OFFCURVE",
"23 23 CURVE SMOOTH",
"20 23 LINE",
"20 0 LINE",
"163 0 LINE",
"163 24 LINE",
"132 24 OFFCURVE",
"115 54 OFFCURVE",
"124 83 CURVE",
"96 69 LINE"
);
},
{
closed = 1;
nodes = (
"301 700 LINE",
"69 66 LINE",
"112 50 LINE",
"346 700 LINE"
);
},
{
closed = 1;
nodes = (
"193 324 LINE",
"452 324 LINE",
"452 369 LINE",
"193 369 LINE"
);
},
{
closed = 1;
nodes = (
"764 655 LINE SMOOTH",
"788 655 OFFCURVE",
"808 636 OFFCURVE",
"808 612 CURVE",
"832 608 LINE",
"832 700 LINE",
"329 700 LINE",
"329 655 LINE",
"416 655 LINE",
"416 66 LINE",
"416 42 OFFCURVE",
"397 23 OFFCURVE",
"373 23 CURVE",
"369 22 LINE",
"369 0 LINE",
"861 0 LINE",
"861 92 LINE",
"837 92 LINE",
"837 88 LINE",
"837 64 OFFCURVE",
"817 45 OFFCURVE",
"793 45 CURVE",
"500 45 LINE",
"500 91 LINE",
"500 282 LINE",
"499 324 LINE",
"605 324 LINE",
"631 324 OFFCURVE",
"652 303 OFFCURVE",
"652 277 CURVE",
"676 278 LINE",
"676 417 LINE",
"651 417 LINE",
"651 414 LINE",
"651 390 OFFCURVE",
"632 370 OFFCURVE",
"608 370 CURVE",
"500 370 LINE",
"500 383 LINE",
"500 612 LINE",
"499 655 LINE"
);
}
);
width = 881;
},
{
layerId = "78443275-C7CF-46E0-B20A-E99834DDCE81";
paths = (
{
closed = 1;
nodes = (
"69 66 LINE",
"62 51 LINE",
"54 34 OFFCURVE",
"40 23 OFFCURVE",
"23 23 CURVE SMOOTH",
"20 23 LINE",
"20 0 LINE",
"203 0 LINE",
"203 24 LINE",
"172 24 OFFCURVE",
"155 54 OFFCURVE",
"164 83 CURVE",
"96 69 LINE"
);
},
{
closed = 1;
nodes = (
"299 700 LINE",
"69 66 LINE",
"152 50 LINE",
"386 700 LINE"
);
},
{
closed = 1;
nodes = (
"173 299 LINE",
"512 299 LINE",
"472 385 LINE",
"213 385 LINE"
);
},
{
closed = 1;
nodes = (
"880 614 LINE SMOOTH",
"904 614 OFFCURVE",
"924 595 OFFCURVE",
"924 571 CURVE",
"948 567 LINE",
"948 700 LINE",
"340 700 LINE",
"344 634 LINE",
"452 634 LINE",
"452 66 LINE",
"452 42 OFFCURVE",
"433 23 OFFCURVE",
"409 23 CURVE",
"405 22 LINE",
"405 0 LINE",
"977 0 LINE",
"977 133 LINE",
"953 133 LINE",
"953 129 LINE",
"953 105 OFFCURVE",
"933 86 OFFCURVE",
"909 86 CURVE",
"616 86 LINE",
"616 132 LINE",
"616 262 LINE",
"615 304 LINE",
"721 304 LINE",
"747 304 OFFCURVE",
"768 283 OFFCURVE",
"768 257 CURVE",
"792 258 LINE",
"792 437 LINE",
"767 437 LINE",
"767 434 LINE",
"767 410 OFFCURVE",
"748 390 OFFCURVE",
"724 390 CURVE",
"616 390 LINE",
"616 403 LINE",
"616 571 LINE",
"615 614 LINE"
);
}
);
width = 997;
},
{
layerId = "A2D4E86B-AE4C-4A17-A9B1-46D900F500CD";
paths = (
{
closed = 1;
nodes = (
"31 66 LINE",
"20 51 LINE",
"9 34 OFFCURVE",
"-8 23 OFFCURVE",
"-25 23 CURVE SMOOTH",
"-28 23 LINE",
"-32 0 LINE",
"111 0 LINE",
"116 24 LINE",
"85 24 OFFCURVE",
"74 54 OFFCURVE",
"89 83 CURVE",
"58 69 LINE"
);
},
{
closed = 1;
nodes = (
"397 700 LINE",
"31 66 LINE",
"70 50 LINE",
"442 700 LINE"
);
},
{
closed = 1;
nodes = (
"209 324 LINE",
"468 324 LINE",
"478 369 LINE",
"219 369 LINE"
);
},
{
closed = 1;
nodes = (
"851 655 LINE SMOOTH",
"875 655 OFFCURVE",
"891 636 OFFCURVE",
"886 612 CURVE",
"909 608 LINE",
"928 700 LINE",
"425 700 LINE",
"416 655 LINE",
"503 655 LINE",
"378 66 LINE",
"373 42 OFFCURVE",
"349 23 OFFCURVE",
"325 23 CURVE",
"321 22 LINE",
"317 0 LINE",
"809 0 LINE",
"828 92 LINE",
"804 92 LINE",
"803 88 LINE",
"798 64 OFFCURVE",
"774 45 OFFCURVE",
"750 45 CURVE",
"457 45 LINE",
"467 91 LINE",
"508 282 LINE",
"515 324 LINE",
"621 324 LINE",
"647 324 OFFCURVE",
"664 303 OFFCURVE",
"658 277 CURVE",
"683 278 LINE",
"712 417 LINE",
"687 417 LINE",
"687 414 LINE",
"682 390 OFFCURVE",
"658 370 OFFCURVE",
"634 370 CURVE",
"526 370 LINE",
"529 383 LINE",
"578 612 LINE",
"586 655 LINE"
);
}
);
width = 882;
},
{
layerId = "01F24223-DBC3-4147-9700-0A3055B7ADEF";
paths = (
{
closed = 1;
nodes = (
"103 66 LINE",
"92 51 LINE",
"81 34 OFFCURVE",
"64 23 OFFCURVE",
"47 23 CURVE SMOOTH",
"44 23 LINE",
"40 0 LINE",
"223 0 LINE",
"228 24 LINE",
"197 24 OFFCURVE",
"186 54 OFFCURVE",
"201 83 CURVE",
"130 69 LINE"
);
},
{
closed = 1;
nodes = (
"467 700 LINE",
"103 66 LINE",
"182 50 LINE",
"554 700 LINE"
);
},
{
closed = 1;
nodes = (
"256 299 LINE",
"595 299 LINE",
"573 385 LINE",
"314 385 LINE"
);
},
{
closed = 1;
nodes = (
"1030 614 LINE SMOOTH",
"1054 614 OFFCURVE",
"1070 595 OFFCURVE",
"1065 571 CURVE",
"1088 567 LINE",
"1116 700 LINE",
"508 700 LINE",
"498 634 LINE",
"606 634 LINE",
"486 66 LINE",
"481 42 OFFCURVE",
"457 23 OFFCURVE",
"433 23 CURVE",
"429 22 LINE",
"425 0 LINE",
"997 0 LINE",
"1025 133 LINE",
"1001 133 LINE",
"1000 129 LINE",
"995 105 OFFCURVE",
"971 86 OFFCURVE",
"947 86 CURVE",
"654 86 LINE",
"664 132 LINE",
"691 262 LINE",
"699 304 LINE",
"805 304 LINE",
"831 304 OFFCURVE",
"848 283 OFFCURVE",
"842 257 CURVE",
"866 258 LINE",
"904 437 LINE",
"879 437 LINE",
"879 434 LINE",
"874 410 OFFCURVE",
"851 390 OFFCURVE",
"827 390 CURVE",
"719 390 LINE",
"721 403 LINE",
"757 571 LINE",
"765 614 LINE"
);
}
);
width = 1156;
}
);
unicode = 00C6;
},
{
glyphname = B;
lastChange = "2022-06-14 17:48:27 +0000";
layers = (
{
layerId = "0F50FE64-90BD-4AD4-940A-DD271C654105";
paths = (
{
closed = 1;
nodes = (
"503 398 OFFCURVE",
"549 472 OFFCURVE",
"549 532 CURVE",
"549 600 OFFCURVE",
"520 699 OFFCURVE",
"347 699 CURVE",
"175 699 OFFCURVE",
"40 699 OFFCURVE",
"40 699 CURVE",
"40 674 LINE",
"44 674 LINE",
"68 674 OFFCURVE",
"87 655 OFFCURVE",
"87 631 CURVE",
"87 65 LINE",
"87 41 OFFCURVE",
"68 22 OFFCURVE",
"44 22 CURVE",
"40 21 LINE",
"40 -1 LINE",
"335 0 LINE",
"503 0 OFFCURVE",
"583 73 OFFCURVE",
"583 201 CURVE",
"583 322 OFFCURVE",
"513 374 OFFCURVE",
"420 383 CURVE"
);
},
{
closed = 1;
nodes = (
"403 652 OFFCURVE",
"459 616 OFFCURVE",
"459 532 CURVE",
"459 459 OFFCURVE",
"413 399 OFFCURVE",
"337 399 CURVE",
"170 398 LINE",
"169 652 LINE",
"169 652 OFFCURVE",
"291 652 OFFCURVE",
"347 652 CURVE"
);
},
{
closed = 1;
nodes = (
"301 44 OFFCURVE",
"170 44 OFFCURVE",
"170 44 CURVE",
"170 353 LINE",
"335 354 LINE",
"469 354 OFFCURVE",
"493 271 OFFCURVE",
"493 201 CURVE",
"493 113 OFFCURVE",
"452 44 OFFCURVE",
"335 44 CURVE"
);
}
);
width = 623;
},
{
layerId = "78443275-C7CF-46E0-B20A-E99834DDCE81";
paths = (
{
closed = 1;
nodes = (
"546 398 OFFCURVE",
"622 442 OFFCURVE",
"622 532 CURVE",
"622 630 OFFCURVE",
"553 699 OFFCURVE",
"390 699 CURVE",
"218 699 OFFCURVE",
"42 699 OFFCURVE",
"42 699 CURVE",
"42 674 LINE",
"46 674 LINE",
"70 674 OFFCURVE",
"89 655 OFFCURVE",
"89 631 CURVE",
"89 65 LINE",
"89 41 OFFCURVE",
"70 22 OFFCURVE",
"46 22 CURVE",
"42 21 LINE",
"42 -1 LINE",
"378 0 LINE",
"536 0 OFFCURVE",
"656 73 OFFCURVE",
"656 201 CURVE",
"656 322 OFFCURVE",
"556 374 OFFCURVE",
"463 383 CURVE"
);
},
{
closed = 1;
nodes = (
"396 614 OFFCURVE",
"452 588 OFFCURVE",
"452 522 CURVE",
"452 449 OFFCURVE",
"406 419 OFFCURVE",
"330 419 CURVE",
"252 418 LINE",
"251 614 LINE",
"251 614 OFFCURVE",
"284 614 OFFCURVE",
"340 614 CURVE"
);
},
{
closed = 1;
nodes = (
"294 85 OFFCURVE",
"252 85 OFFCURVE",
"252 85 CURVE",
"252 333 LINE",
"328 334 LINE",
"462 334 OFFCURVE",
"486 281 OFFCURVE",
"486 211 CURVE",
"486 133 OFFCURVE",
"445 85 OFFCURVE",
"328 85 CURVE"
);
}
);
width = 706;
},
{
layerId = "A2D4E86B-AE4C-4A17-A9B1-46D900F500CD";
paths = (
{
closed = 1;
nodes = (
"534 398 OFFCURVE",
"596 472 OFFCURVE",
"609 532 CURVE",
"623 600 OFFCURVE",
"615 699 OFFCURVE",
"442 699 CURVE",
"270 699 OFFCURVE",
"135 699 OFFCURVE",
"135 699 CURVE",
"130 674 LINE",
"134 674 LINE",
"158 674 OFFCURVE",
"173 655 OFFCURVE",
"168 631 CURVE",
"48 65 LINE",
"43 41 OFFCURVE",
"19 22 OFFCURVE",
"-5 22 CURVE",
"-9 21 LINE",
"-13 -1 LINE",
"282 0 LINE",
"450 0 OFFCURVE",
"545 73 OFFCURVE",
"573 201 CURVE",
"598 322 OFFCURVE",
"539 374 OFFCURVE",
"448 383 CURVE"
);
},
{
closed = 1;
nodes = (
"488 652 OFFCURVE",
"537 616 OFFCURVE",
"519 532 CURVE",
"503 459 OFFCURVE",
"445 399 OFFCURVE",
"369 399 CURVE",
"201 398 LINE",
"254 652 LINE",
"254 652 OFFCURVE",
"376 652 OFFCURVE",
"432 652 CURVE"
);
},
{
closed = 1;
nodes = (
"257 44 OFFCURVE",
"126 44 OFFCURVE",
"126 44 CURVE",
"192 353 LINE",
"357 354 LINE",
"491 354 OFFCURVE",
"497 271 OFFCURVE",
"483 201 CURVE",
"464 113 OFFCURVE",
"408 44 OFFCURVE",
"291 44 CURVE"
);
}
);
width = 623;
},
{
layerId = "01F24223-DBC3-4147-9700-0A3055B7ADEF";
paths = (
{
closed = 1;
nodes = (
"575 398 OFFCURVE",
"661 442 OFFCURVE",
"680 532 CURVE",
"701 630 OFFCURVE",
"646 699 OFFCURVE",
"483 699 CURVE",
"311 699 OFFCURVE",
"135 699 OFFCURVE",
"135 699 CURVE",
"130 674 LINE",
"134 674 LINE",
"158 674 OFFCURVE",
"173 655 OFFCURVE",
"168 631 CURVE",
"48 65 LINE",
"43 41 OFFCURVE",
"19 22 OFFCURVE",
"-5 22 CURVE",
"-9 21 LINE",
"-13 -1 LINE",
"323 0 LINE",
"481 0 OFFCURVE",
"616 73 OFFCURVE",
"644 201 CURVE",
"669 322 OFFCURVE",
"580 374 OFFCURVE",
"489 383 CURVE"
);
},
{
closed = 1;
nodes = (
"471 614 OFFCURVE",
"522 588 OFFCURVE",
"508 522 CURVE",
"492 449 OFFCURVE",
"440 419 OFFCURVE",
"364 419 CURVE",
"286 418 LINE",
"326 614 LINE",
"326 614 OFFCURVE",
"359 614 OFFCURVE",
"415 614 CURVE"
);
},
{
closed = 1;
nodes = (
"257 85 OFFCURVE",
"215 85 OFFCURVE",
"215 85 CURVE",
"268 333 LINE",
"344 334 LINE",
"478 334 OFFCURVE",
"491 281 OFFCURVE",
"476 211 CURVE",
"459 133 OFFCURVE",
"408 85 OFFCURVE",
"291 85 CURVE"
);
}
);
width = 694;
}
);
unicode = 0042;
},
{
glyphname = C;
lastChange = "2022-06-13 17:25:03 +0000";
layers = (
{
layerId = "78443275-C7CF-46E0-B20A-E99834DDCE81";
paths = (
{
closed = 1;
nodes = (
"484 -15 OFFCURVE",
"550 12 OFFCURVE",
"577 31 CURVE",
"611 129 LINE",
"579 129 LINE",
"539 100 OFFCURVE",
"522 79 OFFCURVE",
"442 79 CURVE SMOOTH",
"329 79 OFFCURVE",
"220 183 OFFCURVE",
"220 364 CURVE",
"220 534 OFFCURVE",
"329 625 OFFCURVE",
"441 625 CURVE SMOOTH",
"522 625 OFFCURVE",
"539 601 OFFCURVE",
"579 575 CURVE",
"611 575 LINE",
"577 673 LINE",
"550 692 OFFCURVE",
"484 719 OFFCURVE",
"401 719 CURVE",
"191 719 OFFCURVE",
"50 594 OFFCURVE",
"50 364 CURVE",
"50 133 OFFCURVE",
"191 -15 OFFCURVE",
"401 -15 CURVE"
);
}
);
width = 651;
},
{
associatedMasterId = "0F50FE64-90BD-4AD4-940A-DD271C654105";
layerId = "1FA1BF3F-C968-4D99-9079-1427D43FFA55";
name = "Apr 1 19, 14:01";
paths = (
{
closed = 1;
nodes = (
"529 111 LINE",
"505 106 LINE",
"521 44 OFFCURVE",
"432 30 OFFCURVE",
"342 30 CURVE",
"179 32 OFFCURVE",
"121 133 OFFCURVE",
"121 344 CURVE",
"121 514 OFFCURVE",
"142 674 OFFCURVE",
"342 674 CURVE",
"425 673 OFFCURVE",
"511 658 OFFCURVE",
"496 598 CURVE",
"520 593 LINE",
"543 683 LINE",
"506 699 OFFCURVE",
"425 722 OFFCURVE",
"342 719 CURVE",
"112 719 OFFCURVE",
"31 574 OFFCURVE",
"31 344 CURVE",
"31 113 OFFCURVE",
"122 -15 OFFCURVE",
"342 -15 CURVE",
"425 -15 OFFCURVE",
"508 4 OFFCURVE",
"552 21 CURVE"
);
}
);
visible = 1;
width = 590;
},
{
layerId = "0F50FE64-90BD-4AD4-940A-DD271C654105";
paths = (
{
closed = 1;
nodes = (
"492 -16 OFFCURVE",
"531 9 OFFCURVE",
"552 24 CURVE",
"572 111 LINE",
"551 111 LINE",
"531 78 OFFCURVE",
"491 30 OFFCURVE",
"401 30 CURVE",
"238 30 OFFCURVE",
"130 183 OFFCURVE",
"130 364 CURVE",
"130 534 OFFCURVE",
"201 674 OFFCURVE",
"401 674 CURVE SMOOTH",
"491 674 OFFCURVE",
"531 626 OFFCURVE",
"551 593 CURVE",
"572 593 LINE",
"552 680 LINE",
"531 695 OFFCURVE",
"492 719 OFFCURVE",
"401 719 CURVE SMOOTH",
"171 719 OFFCURVE",
"40 594 OFFCURVE",
"40 364 CURVE",
"40 133 OFFCURVE",
"181 -15 OFFCURVE",
"401 -15 CURVE"
);
}
);
visible = 1;
width = 612;
},
{
layerId = "A2D4E86B-AE4C-4A17-A9B1-46D900F500CD";
paths = (
{
closed = 1;
nodes = (
"435 -16 OFFCURVE",
"479 9 OFFCURVE",
"503 24 CURVE",
"542 111 LINE",
"521 111 LINE",
"494 78 OFFCURVE",
"444 30 OFFCURVE",
"354 30 CURVE",
"191 30 OFFCURVE",
"115 183 OFFCURVE",
"154 364 CURVE",
"190 534 OFFCURVE",
"290 674 OFFCURVE",
"490 674 CURVE SMOOTH",
"580 674 OFFCURVE",
"610 626 OFFCURVE",
"623 593 CURVE",
"644 593 LINE",
"643 680 LINE",
"625 695 OFFCURVE",
"591 719 OFFCURVE",
"500 719 CURVE SMOOTH",
"270 719 OFFCURVE",
"112 594 OFFCURVE",
"64 364 CURVE",
"14 133 OFFCURVE",
"124 -15 OFFCURVE",
"344 -15 CURVE"
);
}
);
width = 612;
},
{
layerId = "01F24223-DBC3-4147-9700-0A3055B7ADEF";
paths = (
{
closed = 1;
nodes = (
"417 -15 OFFCURVE",
"489 12 OFFCURVE",
"520 31 CURVE",
"575 129 LINE",
"543 129 LINE",
"496 100 OFFCURVE",
"475 79 OFFCURVE",
"395 79 CURVE SMOOTH",
"282 79 OFFCURVE",
"195 183 OFFCURVE",
"234 364 CURVE",
"270 534 OFFCURVE",
"398 625 OFFCURVE",
"510 625 CURVE SMOOTH",
"591 625 OFFCURVE",
"603 601 OFFCURVE",
"637 575 CURVE",
"669 575 LINE",
"656 673 LINE",
"633 692 OFFCURVE",
"573 719 OFFCURVE",
"490 719 CURVE",
"280 719 OFFCURVE",
"112 594 OFFCURVE",
"64 364 CURVE",
"14 133 OFFCURVE",
"124 -15 OFFCURVE",
"334 -15 CURVE"
);
}
);
width = 641;
}
);
unicode = 0043;
},
{
glyphname = D;
lastChange = "2022-06-13 15:33:06 +0000";
layers = (
{
layerId = "0F50FE64-90BD-4AD4-940A-DD271C654105";
paths = (
{
closed = 1;
nodes = (
"206 0 LINE",
"302 1 LINE SMOOTH",
"539 3 OFFCURVE",
"648 115 OFFCURVE",
"652 355 CURVE SMOOTH",
"656 629 OFFCURVE",
"479 700 OFFCURVE",
"321 700 CURVE SMOOTH",
"41 700 LINE",
"41 678 LINE",
"69 678 OFFCURVE",
"87 658 OFFCURVE",
"87 635 CURVE SMOOTH",
"87 65 LINE SMOOTH",
"87 42 OFFCURVE",
"69 22 OFFCURVE",
"41 22 CURVE",
"41 0 LINE"
);
},
{
closed = 1;
nodes = (
"170 655 LINE",
"322 655 LINE SMOOTH",
"399 655 OFFCURVE",
"562 629 OFFCURVE",
"562 355 CURVE SMOOTH",
"562 115 OFFCURVE",
"439 46 OFFCURVE",
"307 46 CURVE SMOOTH",
"170 46 LINE"
);
}
);
width = 692;
},
{
layerId = "78443275-C7CF-46E0-B20A-E99834DDCE81";
paths = (
{
closed = 1;
nodes = (
"286 0 LINE",
"302 1 LINE",
"539 1 OFFCURVE",
"648 115 OFFCURVE",
"652 355 CURVE SMOOTH",
"656 629 OFFCURVE",
"479 700 OFFCURVE",
"321 700 CURVE SMOOTH",
"40 700 LINE",
"40 678 LINE",
"68 678 OFFCURVE",
"86 658 OFFCURVE",
"86 635 CURVE SMOOTH",
"86 65 LINE SMOOTH",
"86 42 OFFCURVE",
"68 22 OFFCURVE",
"40 22 CURVE",
"40 0 LINE"
);
},
{
closed = 1;
nodes = (
"250 615 LINE",
"322 615 LINE SMOOTH",
"399 615 OFFCURVE",
"472 589 OFFCURVE",
"472 355 CURVE SMOOTH",
"472 155 OFFCURVE",
"439 86 OFFCURVE",
"307 86 CURVE SMOOTH",
"250 86 LINE"
);
}
);
width = 692;
},
{
associatedMasterId = "0F50FE64-90BD-4AD4-940A-DD271C654105";
layerId = "DD1CC3F1-4910-4F2F-8903-EA1A142908A4";
name = "Apr 1 19, 20:06";
paths = (
{
closed = 1;
nodes = (
"76 716 LINE",
"76 0 LINE",
"322 1 LINE",
"559 1 OFFCURVE",
"662 115 OFFCURVE",
"672 355 CURVE",
"676 645 OFFCURVE",
"499 716 OFFCURVE",
"341 716 CURVE"
);
},
{
closed = 1;
nodes = (
"582 115 OFFCURVE",
"459 46 OFFCURVE",
"327 46 CURVE",
"160 46 LINE",
"160 671 LINE",
"342 671 LINE",
"419 671 OFFCURVE",
"582 645 OFFCURVE",
"582 355 CURVE"
);
},
{
closed = 1;
nodes = (
"150 651 LINE",
"150 674 OFFCURVE",
"168 694 OFFCURVE",
"196 694 CURVE",
"196 716 LINE",
"30 716 LINE",
"30 694 LINE",
"58 694 OFFCURVE",
"76 674 OFFCURVE",
"76 651 CURVE"
);
},
{
closed = 1;
nodes = (
"76 65 LINE",
"76 42 OFFCURVE",
"58 22 OFFCURVE",
"30 22 CURVE",
"30 0 LINE",
"196 0 LINE",
"196 22 LINE",
"168 22 OFFCURVE",
"150 42 OFFCURVE",
"150 65 CURVE"
);
}
);
visible = 1;
width = 702;
},
{
layerId = "A2D4E86B-AE4C-4A17-A9B1-46D900F500CD";
paths = (
{
closed = 1;
nodes = (
"153 0 LINE",
"249 1 LINE SMOOTH",
"486 3 OFFCURVE",
"619 115 OFFCURVE",
"674 355 CURVE SMOOTH",
"736 629 OFFCURVE",
"574 700 OFFCURVE",
"416 700 CURVE SMOOTH",
"136 700 LINE",
"132 678 LINE",
"160 678 OFFCURVE",
"173 658 OFFCURVE",
"169 635 CURVE SMOOTH",
"47 65 LINE SMOOTH",
"43 42 OFFCURVE",
"20 22 OFFCURVE",
"-8 22 CURVE",
"-12 0 LINE"
);
},
{
closed = 1;
nodes = (
"256 655 LINE",
"408 655 LINE SMOOTH",
"485 655 OFFCURVE",
"642 629 OFFCURVE",
"584 355 CURVE SMOOTH",
"533 115 OFFCURVE",
"395 46 OFFCURVE",
"263 46 CURVE SMOOTH",
"126 46 LINE"
);
}
);
width = 692;
},
{
layerId = "01F24223-DBC3-4147-9700-0A3055B7ADEF";
paths = (
{
closed = 1;
nodes = (
"234 0 LINE",
"250 1 LINE",
"487 1 OFFCURVE",
"620 115 OFFCURVE",
"675 355 CURVE SMOOTH",
"737 629 OFFCURVE",
"575 700 OFFCURVE",
"417 700 CURVE SMOOTH",
"136 700 LINE",
"132 678 LINE",
"160 678 OFFCURVE",
"173 658 OFFCURVE",
"169 635 CURVE SMOOTH",
"47 65 LINE SMOOTH",
"43 42 OFFCURVE",
"20 22 OFFCURVE",
"-8 22 CURVE",
"-12 0 LINE"
);
},
{
closed = 1;
nodes = (
"328 615 LINE",
"400 615 LINE SMOOTH",
"477 615 OFFCURVE",
"545 589 OFFCURVE",
"495 355 CURVE SMOOTH",
"453 155 OFFCURVE",
"405 86 OFFCURVE",
"273 86 CURVE SMOOTH",
"216 86 LINE"
);
}
);
width = 693;
}
);
unicode = 0044;
},
{
glyphname = E;
lastChange = "2022-06-13 17:31:24 +0000";
layers = (
{
layerId = "0F50FE64-90BD-4AD4-940A-DD271C654105";
paths = (
{
closed = 1;
nodes = (
"434 655 LINE SMOOTH",
"458 655 OFFCURVE",
"478 636 OFFCURVE",
"478 612 CURVE",
"502 608 LINE",
"502 700 LINE",
"40 700 LINE",
"40 677 LINE",
"44 677 LINE",
"68 677 OFFCURVE",
"87 658 OFFCURVE",
"87 634 CURVE",
"87 66 LINE",
"87 42 OFFCURVE",
"68 23 OFFCURVE",
"44 23 CURVE",
"40 22 LINE",
"40 0 LINE",
"531 0 LINE",
"531 92 LINE",
"507 92 LINE",
"507 88 LINE",
"507 64 OFFCURVE",
"487 45 OFFCURVE",
"463 45 CURVE",
"170 45 LINE",
"169 324 LINE",
"325 324 LINE",
"351 324 OFFCURVE",
"372 303 OFFCURVE",
"372 277 CURVE",
"396 278 LINE",
"396 417 LINE",
"371 417 LINE",
"371 414 LINE",
"371 390 OFFCURVE",
"352 370 OFFCURVE",
"328 370 CURVE",
"170 370 LINE",
"169 655 LINE"
);
}
);
width = 571;
},
{
layerId = "78443275-C7CF-46E0-B20A-E99834DDCE81";
paths = (
{
closed = 1;
nodes = (
"515 614 LINE SMOOTH",
"539 614 OFFCURVE",
"559 595 OFFCURVE",
"559 571 CURVE",
"583 567 LINE",
"583 700 LINE",
"41 700 LINE",
"41 677 LINE",
"45 677 LINE",
"69 677 OFFCURVE",
"88 658 OFFCURVE",
"88 634 CURVE",
"88 66 LINE",
"88 42 OFFCURVE",
"69 23 OFFCURVE",
"45 23 CURVE",
"41 22 LINE",
"41 0 LINE",
"612 0 LINE",
"612 133 LINE",
"588 133 LINE",
"588 129 LINE",
"588 105 OFFCURVE",
"568 86 OFFCURVE",
"544 86 CURVE",
"251 86 LINE",
"250 304 LINE",
"406 304 LINE",
"432 304 OFFCURVE",
"453 283 OFFCURVE",
"453 257 CURVE",
"477 258 LINE",
"477 437 LINE",
"452 437 LINE",
"452 434 LINE",
"452 410 OFFCURVE",
"433 390 OFFCURVE",
"409 390 CURVE",
"251 390 LINE",
"250 614 LINE"
);
}
);
width = 652;
},
{
layerId = "A2D4E86B-AE4C-4A17-A9B1-46D900F500CD";
paths = (
{
closed = 1;
nodes = (
"521 655 LINE SMOOTH",
"545 655 OFFCURVE",
"561 636 OFFCURVE",
"556 612 CURVE",
"579 608 LINE",
"598 700 LINE",
"136 700 LINE",
"132 677 LINE",
"136 677 LINE",
"160 677 OFFCURVE",
"174 658 OFFCURVE",
"169 634 CURVE",
"49 66 LINE",
"44 42 OFFCURVE",
"20 23 OFFCURVE",
"-4 23 CURVE",
"-8 22 LINE",
"-12 0 LINE",
"479 0 LINE",
"498 92 LINE",
"474 92 LINE",
"473 88 LINE",
"468 64 OFFCURVE",
"444 45 OFFCURVE",
"420 45 CURVE",
"127 45 LINE",
"185 324 LINE",
"341 324 LINE",
"367 324 OFFCURVE",
"384 303 OFFCURVE",
"378 277 CURVE",
"403 278 LINE",
"432 417 LINE",
"407 417 LINE",
"407 414 LINE",
"402 390 OFFCURVE",
"378 370 OFFCURVE",
"354 370 CURVE",
"196 370 LINE",
"256 655 LINE"
);
}
);
width = 572;
},
{
layerId = "01F24223-DBC3-4147-9700-0A3055B7ADEF";
paths = (
{
closed = 1;
nodes = (
"571 614 LINE SMOOTH",
"595 614 OFFCURVE",
"611 595 OFFCURVE",
"606 571 CURVE",
"629 567 LINE",
"657 700 LINE",
"115 700 LINE",
"111 677 LINE",
"115 677 LINE",
"139 677 OFFCURVE",
"153 658 OFFCURVE",
"148 634 CURVE",
"28 66 LINE",
"23 42 OFFCURVE",
"-1 23 OFFCURVE",
"-25 23 CURVE",
"-29 22 LINE",
"-33 0 LINE",
"538 0 LINE",
"566 133 LINE",
"542 133 LINE",
"541 129 LINE",
"536 105 OFFCURVE",
"512 86 OFFCURVE",
"488 86 CURVE",
"195 86 LINE",
"240 304 LINE",
"396 304 LINE",
"422 304 OFFCURVE",
"439 283 OFFCURVE",
"433 257 CURVE",
"457 258 LINE",
"495 437 LINE",
"470 437 LINE",
"470 434 LINE",
"465 410 OFFCURVE",
"442 390 OFFCURVE",
"418 390 CURVE",
"260 390 LINE",
"306 614 LINE"
);
}
);
width = 653;
}
);
unicode = 0045;
},
{
glyphname = Eacute;
lastChange = "2022-02-24 22:42:16 +0000";
layers = (
{
layerId = "0F50FE64-90BD-4AD4-940A-DD271C654105";
paths = (
{
closed = 1;
nodes = (
"435 655 LINE SMOOTH",
"459 655 OFFCURVE",
"479 636 OFFCURVE",
"479 612 CURVE",
"503 608 LINE",
"503 700 LINE",
"40 700 LINE",
"40 677 LINE",
"44 677 LINE",
"68 677 OFFCURVE",
"87 658 OFFCURVE",
"87 634 CURVE",
"87 66 LINE",
"87 42 OFFCURVE",
"68 23 OFFCURVE",
"44 23 CURVE",
"40 22 LINE",
"40 0 LINE",
"532 0 LINE",
"532 92 LINE",
"508 92 LINE",
"508 88 LINE",
"508 64 OFFCURVE",
"488 45 OFFCURVE",
"464 45 CURVE",
"171 45 LINE",
"171 91 LINE",
"171 282 LINE",
"170 324 LINE",
"276 324 LINE",
"302 324 OFFCURVE",
"323 303 OFFCURVE",
"323 277 CURVE",
"347 278 LINE",
"347 417 LINE",
"322 417 LINE",
"322 414 LINE",
"322 390 OFFCURVE",
"303 370 OFFCURVE",
"279 370 CURVE",
"171 370 LINE",
"171 383 LINE",
"171 612 LINE",
"170 655 LINE"
);
},
{
closed = 1;
nodes = (
"310 730 LINE",
"416 872 LINE",
"332 872 LINE",
"265 730 LINE"
);
}
);
width = 572;
},
{
layerId = "78443275-C7CF-46E0-B20A-E99834DDCE81";
paths = (
{
closed = 1;
nodes = (
"515 614 LINE SMOOTH",
"539 614 OFFCURVE",
"559 595 OFFCURVE",
"559 571 CURVE",
"583 567 LINE",
"583 700 LINE",
"40 700 LINE",
"40 677 LINE",
"44 677 LINE",
"68 677 OFFCURVE",
"87 658 OFFCURVE",
"87 634 CURVE",
"87 66 LINE",
"87 42 OFFCURVE",
"68 23 OFFCURVE",
"44 23 CURVE",
"40 22 LINE",
"40 0 LINE",
"612 0 LINE",
"612 133 LINE",
"588 133 LINE",
"588 129 LINE",
"588 105 OFFCURVE",
"568 86 OFFCURVE",
"544 86 CURVE",
"251 86 LINE",
"251 132 LINE",
"251 262 LINE",
"250 304 LINE",
"356 304 LINE",
"382 304 OFFCURVE",
"403 283 OFFCURVE",
"403 257 CURVE",
"427 258 LINE",
"427 437 LINE",
"402 437 LINE",
"402 434 LINE",
"402 410 OFFCURVE",
"383 390 OFFCURVE",
"359 390 CURVE",
"251 390 LINE",
"251 403 LINE",
"251 571 LINE",
"250 614 LINE"
);
},
{
closed = 1;
nodes = (
"370 731 LINE",
"516 873 LINE",
"312 873 LINE",
"285 731 LINE"
);
}
);
width = 652;
},
{
layerId = "A2D4E86B-AE4C-4A17-A9B1-46D900F500CD";
paths = (
{
closed = 1;
nodes = (
"522 655 LINE SMOOTH",
"546 655 OFFCURVE",
"562 636 OFFCURVE",
"557 612 CURVE",
"580 608 LINE",
"599 700 LINE",
"136 700 LINE",
"132 677 LINE",
"136 677 LINE",
"160 677 OFFCURVE",
"175 658 OFFCURVE",
"170 634 CURVE",
"50 66 LINE",
"45 42 OFFCURVE",
"22 23 OFFCURVE",
"-2 23 CURVE",
"-6 22 LINE",
"-10 0 LINE",
"482 0 LINE",
"501 92 LINE",
"477 92 LINE",
"476 88 LINE",
"471 64 OFFCURVE",
"447 45 OFFCURVE",
"423 45 CURVE",
"130 45 LINE",
"140 91 LINE",
"180 282 LINE",
"188 324 LINE",
"294 324 LINE",
"320 324 OFFCURVE",
"336 303 OFFCURVE",
"331 277 CURVE",
"355 278 LINE",
"384 417 LINE",
"359 417 LINE",
"358 414 LINE",
"353 390 OFFCURVE",
"330 370 OFFCURVE",
"306 370 CURVE",
"198 370 LINE",
"201 383 LINE",
"249 612 LINE",
"257 655 LINE"
);
},
{
closed = 1;
nodes = (
"419 732 LINE",
"555 874 LINE",
"471 874 LINE",
"374 732 LINE"
);
}
);
width = 575;
},
{
layerId = "01F24223-DBC3-4147-9700-0A3055B7ADEF";
paths = (
{
closed = 1;
nodes = (
"593 614 LINE SMOOTH",
"617 614 OFFCURVE",
"633 595 OFFCURVE",
"628 571 CURVE",
"651 567 LINE",
"679 700 LINE",
"136 700 LINE",
"131 677 LINE",
"135 677 LINE",
"159 677 OFFCURVE",
"174 658 OFFCURVE",
"169 634 CURVE",
"48 66 LINE",
"43 42 OFFCURVE",
"20 23 OFFCURVE",
"-4 23 CURVE",
"-8 22 LINE",
"-13 0 LINE",
"559 0 LINE",
"587 133 LINE",
"563 133 LINE",
"563 129 LINE",
"558 105 OFFCURVE",
"533 86 OFFCURVE",
"509 86 CURVE",
"216 86 LINE",
"226 132 LINE",
"254 262 LINE",
"262 304 LINE",
"368 304 LINE",
"394 304 OFFCURVE",
"410 283 OFFCURVE",
"405 257 CURVE",
"429 258 LINE",
"467 437 LINE",
"442 437 LINE",
"441 434 LINE",
"436 410 OFFCURVE",
"413 390 OFFCURVE",
"389 390 CURVE",
"281 390 LINE",
"284 403 LINE",
"320 571 LINE",
"328 614 LINE"
);
},
{
closed = 1;
nodes = (
"473 731 LINE",
"649 873 LINE",
"445 873 LINE",
"388 731 LINE"
);
}
);
width = 652;
}
);
unicode = 00C9;
},
{
glyphname = Egrave;
lastChange = "2022-02-15 00:29:27 +0000";
layers = (
{
layerId = "0F50FE64-90BD-4AD4-940A-DD271C654105";
paths = (
{
closed = 1;
nodes = (
"415 655 LINE SMOOTH",
"439 655 OFFCURVE",
"459 636 OFFCURVE",
"459 612 CURVE",
"483 608 LINE",
"483 700 LINE",
"20 700 LINE",
"20 677 LINE",
"24 677 LINE",
"48 677 OFFCURVE",
"67 658 OFFCURVE",
"67 634 CURVE",
"67 66 LINE",
"67 42 OFFCURVE",
"48 23 OFFCURVE",
"24 23 CURVE",
"20 22 LINE",
"20 0 LINE",
"512 0 LINE",
"512 92 LINE",
"488 92 LINE",
"488 88 LINE",
"488 64 OFFCURVE",
"468 45 OFFCURVE",
"444 45 CURVE",
"151 45 LINE",
"151 91 LINE",
"151 282 LINE",
"150 324 LINE",
"256 324 LINE",
"282 324 OFFCURVE",
"303 303 OFFCURVE",
"303 277 CURVE",
"327 278 LINE",
"327 417 LINE",
"302 417 LINE",
"302 414 LINE",
"302 390 OFFCURVE",
"283 370 OFFCURVE",
"259 370 CURVE",
"151 370 LINE",
"151 383 LINE",
"151 612 LINE",
"150 655 LINE"
);
},
{
closed = 1;
nodes = (
"221 882 LINE",
"137 882 LINE",
"243 740 LINE",
"288 740 LINE"
);
}
);
width = 532;
},
{
layerId = "78443275-C7CF-46E0-B20A-E99834DDCE81";
paths = (
{
closed = 1;
nodes = (
"495 614 LINE SMOOTH",
"519 614 OFFCURVE",
"539 595 OFFCURVE",
"539 571 CURVE",
"563 567 LINE",
"563 700 LINE",
"20 700 LINE",
"20 677 LINE",
"24 677 LINE",
"48 677 OFFCURVE",
"67 658 OFFCURVE",
"67 634 CURVE",
"67 66 LINE",
"67 42 OFFCURVE",
"48 23 OFFCURVE",
"24 23 CURVE",
"20 22 LINE",
"20 0 LINE",
"592 0 LINE",
"592 133 LINE",
"568 133 LINE",
"568 129 LINE",
"568 105 OFFCURVE",
"548 86 OFFCURVE",
"524 86 CURVE",
"231 86 LINE",
"231 132 LINE",
"231 262 LINE",
"230 304 LINE",
"336 304 LINE",
"362 304 OFFCURVE",
"383 283 OFFCURVE",
"383 257 CURVE",
"407 258 LINE",
"407 437 LINE",
"382 437 LINE",
"382 434 LINE",
"382 410 OFFCURVE",
"363 390 OFFCURVE",
"339 390 CURVE",
"231 390 LINE",
"231 403 LINE",
"231 571 LINE",
"230 614 LINE"
);
},
{
closed = 1;
nodes = (
"334 883 LINE",
"130 883 LINE",
"276 741 LINE",
"361 741 LINE"
);
}
);
width = 612;
},
{
layerId = "A2D4E86B-AE4C-4A17-A9B1-46D900F500CD";
paths = (
{
closed = 1;
nodes = (
"501 655 LINE SMOOTH",
"525 655 OFFCURVE",
"541 636 OFFCURVE",
"536 612 CURVE",
"559 608 LINE",
"579 700 LINE",
"116 700 LINE",
"111 677 LINE",
"115 677 LINE",
"139 677 OFFCURVE",
"154 658 OFFCURVE",
"149 634 CURVE",
"28 66 LINE",
"23 42 OFFCURVE",
"0 23 OFFCURVE",
"-24 23 CURVE",
"-28 22 LINE",
"-33 0 LINE",
"459 0 LINE",
"479 92 LINE",
"455 92 LINE",
"454 88 LINE",
"449 64 OFFCURVE",
"425 45 OFFCURVE",
"401 45 CURVE",
"108 45 LINE",
"118 91 LINE",
"158 282 LINE",
"166 324 LINE",
"272 324 LINE",
"298 324 OFFCURVE",
"315 303 OFFCURVE",
"309 277 CURVE",
"333 278 LINE",
"363 417 LINE",
"338 417 LINE",
"337 414 LINE",
"332 390 OFFCURVE",
"309 370 OFFCURVE",
"285 370 CURVE",
"177 370 LINE",
"180 383 LINE",
"228 612 LINE",
"236 655 LINE"
);
},
{
closed = 1;
nodes = (
"356 882 LINE",
"272 882 LINE",
"348 740 LINE",
"393 740 LINE"
);
}
);
width = 533;
},
{
layerId = "01F24223-DBC3-4147-9700-0A3055B7ADEF";
paths = (
{
closed = 1;
nodes = (
"626 614 LINE SMOOTH",
"650 614 OFFCURVE",
"666 595 OFFCURVE",
"661 571 CURVE",
"684 567 LINE",
"712 700 LINE",
"169 700 LINE",
"164 677 LINE",
"168 677 LINE",
"192 677 OFFCURVE",
"207 658 OFFCURVE",
"202 634 CURVE",
"81 66 LINE",
"76 42 OFFCURVE",
"53 23 OFFCURVE",
"29 23 CURVE",
"25 22 LINE",
"20 0 LINE",
"592 0 LINE",
"620 133 LINE",
"596 133 LINE",
"596 129 LINE",
"590 105 OFFCURVE",
"566 86 OFFCURVE",
"542 86 CURVE",
"249 86 LINE",
"259 132 LINE",
"287 262 LINE",
"295 304 LINE",
"401 304 LINE",
"427 304 OFFCURVE",
"443 283 OFFCURVE",
"438 257 CURVE",
"462 258 LINE",
"500 437 LINE",
"475 437 LINE",
"474 434 LINE",
"469 410 OFFCURVE",
"446 390 OFFCURVE",
"422 390 CURVE",
"314 390 LINE",
"317 403 LINE",
"353 571 LINE",
"361 614 LINE"
);
},
{
closed = 1;
nodes = (
"522 883 LINE",
"318 883 LINE",
"434 741 LINE",
"519 741 LINE"
);
}
);
width = 732;
}
);
unicode = 00C8;
},
{
glyphname = F;
lastChange = "2022-02-17 18:30:22 +0000";
layers = (
{
layerId = "0F50FE64-90BD-4AD4-940A-DD271C654105";
paths = (
{
closed = 1;
nodes = (
"40 677 LINE",
"44 677 LINE SMOOTH",
"68 677 OFFCURVE",
"87 658 OFFCURVE",
"87 635 CURVE SMOOTH",
"87 0 LINE",
"171 0 LINE",
"171 324 LINE",
"306 324 LINE SMOOTH",
"332 324 OFFCURVE",
"353 303 OFFCURVE",
"353 278 CURVE",
"377 278 LINE",
"377 418 LINE",
"352 418 LINE",
"352 414 LINE SMOOTH",
"352 390 OFFCURVE",
"333 371 OFFCURVE",
"309 371 CURVE SMOOTH",
"171 371 LINE",
"171 655 LINE",
"466 655 LINE SMOOTH",
"490 655 OFFCURVE",
"509 636 OFFCURVE",
"510 612 CURVE",
"510 609 LINE",
"533 609 LINE",
"533 700 LINE",
"40 700 LINE"
);
},
{
closed = 1;
nodes = (
"87 65 LINE",
"87 42 OFFCURVE",
"69 22 OFFCURVE",
"41 22 CURVE",
"41 0 LINE",
"217 0 LINE",
"217 22 LINE",
"189 22 OFFCURVE",
"171 42 OFFCURVE",
"171 65 CURVE"
);
}
);
width = 573;
},
{
layerId = "78443275-C7CF-46E0-B20A-E99834DDCE81";
paths = (
{
closed = 1;
nodes = (
"40 677 LINE",
"44 677 LINE SMOOTH",
"68 677 OFFCURVE",
"87 658 OFFCURVE",
"87 635 CURVE SMOOTH",
"87 0 LINE",
"251 0 LINE",
"251 304 LINE",
"436 304 LINE SMOOTH",
"462 304 OFFCURVE",
"483 283 OFFCURVE",
"483 258 CURVE",
"507 258 LINE",
"507 438 LINE",
"482 438 LINE",
"482 434 LINE SMOOTH",
"482 410 OFFCURVE",
"463 391 OFFCURVE",
"439 391 CURVE SMOOTH",
"251 391 LINE",
"251 615 LINE",
"546 615 LINE SMOOTH",
"570 615 OFFCURVE",
"589 596 OFFCURVE",
"590 572 CURVE",
"590 569 LINE",
"613 569 LINE",
"613 700 LINE",
"40 700 LINE"
);
},
{
closed = 1;
nodes = (
"87 65 LINE",
"87 42 OFFCURVE",
"69 22 OFFCURVE",
"41 22 CURVE",
"41 0 LINE",
"297 0 LINE",
"297 22 LINE",
"269 22 OFFCURVE",
"251 42 OFFCURVE",
"251 65 CURVE"
);
}
);
width = 653;
},
{
layerId = "A2D4E86B-AE4C-4A17-A9B1-46D900F500CD";
paths = (
{
closed = 1;
nodes = (
"132 677 LINE",
"136 677 LINE SMOOTH",
"160 677 OFFCURVE",
"174 658 OFFCURVE",
"170 635 CURVE SMOOTH",
"35 0 LINE",
"119 0 LINE",
"187 324 LINE",
"322 324 LINE SMOOTH",
"348 324 OFFCURVE",
"365 303 OFFCURVE",
"360 278 CURVE",
"384 278 LINE",
"413 418 LINE",
"388 418 LINE",
"388 414 LINE SMOOTH",
"383 390 OFFCURVE",
"359 371 OFFCURVE",
"335 371 CURVE SMOOTH",
"197 371 LINE",
"258 655 LINE",
"553 655 LINE SMOOTH",
"577 655 OFFCURVE",
"592 636 OFFCURVE",
"588 612 CURVE",
"587 609 LINE",
"610 609 LINE",
"629 700 LINE",
"136 700 LINE"
);
},
{
closed = 1;
nodes = (
"48 65 LINE",
"44 42 OFFCURVE",
"21 22 OFFCURVE",
"-7 22 CURVE",
"-11 0 LINE",
"165 0 LINE",
"169 22 LINE",
"141 22 OFFCURVE",
"128 42 OFFCURVE",
"132 65 CURVE"
);
}
);
width = 574;
},
{
layerId = "01F24223-DBC3-4147-9700-0A3055B7ADEF";
paths = (
{
closed = 1;
nodes = (
"132 677 LINE",
"136 677 LINE SMOOTH",
"160 677 OFFCURVE",
"174 658 OFFCURVE",
"170 635 CURVE SMOOTH",
"35 0 LINE",
"199 0 LINE",
"263 304 LINE",
"448 304 LINE SMOOTH",
"474 304 OFFCURVE",
"491 283 OFFCURVE",
"485 258 CURVE",
"509 258 LINE",
"548 438 LINE",
"523 438 LINE",
"522 434 LINE SMOOTH",
"517 410 OFFCURVE",
"494 391 OFFCURVE",
"470 391 CURVE SMOOTH",
"282 391 LINE",
"329 615 LINE",
"624 615 LINE SMOOTH",
"648 615 OFFCURVE",
"663 596 OFFCURVE",
"659 572 CURVE",
"659 569 LINE",
"682 569 LINE",
"709 700 LINE",
"136 700 LINE"
);
},
{
closed = 1;
nodes = (
"48 65 LINE",
"44 42 OFFCURVE",
"21 22 OFFCURVE",
"-7 22 CURVE",
"-11 0 LINE",
"245 0 LINE",
"249 22 LINE",
"221 22 OFFCURVE",
"208 42 OFFCURVE",
"212 65 CURVE"
);
}
);
width = 654;
}
);
unicode = 0046;
},
{
glyphname = G;
lastChange = "2022-06-13 15:22:03 +0000";
layers = (
{
layerId = "0F50FE64-90BD-4AD4-940A-DD271C654105";
paths = (
{
closed = 1;
nodes = (
"469 -15 OFFCURVE",
"538 -3 OFFCURVE",
"614 31 CURVE",
"614 341 LINE",
"403 341 LINE",
"403 318 LINE",
"447 313 OFFCURVE",
"503 302 OFFCURVE",
"530 262 CURVE",
"530 52 LINE",
"414 6 OFFCURVE",
"137 5 OFFCURVE",
"133 357 CURVE SMOOTH",
"133 541 OFFCURVE",
"201 675 OFFCURVE",
"401 675 CURVE SMOOTH",
"521 675 OFFCURVE",
"561 627 OFFCURVE",
"581 594 CURVE",
"602 594 LINE",
"582 681 LINE",
"561 696 OFFCURVE",
"522 720 OFFCURVE",
"401 720 CURVE SMOOTH",
"171 720 OFFCURVE",
"40 574 OFFCURVE",
"40 357 CURVE SMOOTH",
"40 140 OFFCURVE",
"162 -12 OFFCURVE",
"378 -14 CURVE SMOOTH"
);
}
);
width = 654;
},
{
layerId = "78443275-C7CF-46E0-B20A-E99834DDCE81";
paths = (
{
closed = 1;
nodes = (
"499 -9 OFFCURVE",
"570 1 OFFCURVE",
"643 30 CURVE",
"643 340 LINE",
"353 340 LINE",
"353 317 LINE",
"397 312 OFFCURVE",
"453 301 OFFCURVE",
"480 261 CURVE",
"480 74 LINE",
"307 68 OFFCURVE",
"222 199 OFFCURVE",
"220 356 CURVE SMOOTH",
"220 540 OFFCURVE",
"328 625 OFFCURVE",
"441 625 CURVE SMOOTH",
"552 625 OFFCURVE",
"569 601 OFFCURVE",
"609 575 CURVE",
"641 575 LINE",
"607 673 LINE",
"580 692 OFFCURVE",
"514 719 OFFCURVE",
"401 719 CURVE SMOOTH",
"181 719 OFFCURVE",
"50 573 OFFCURVE",
"50 356 CURVE SMOOTH",
"50 139 OFFCURVE",
"192 -6 OFFCURVE",
"408 -8 CURVE SMOOTH"
);
}
);
width = 661;
},
{
layerId = "A2D4E86B-AE4C-4A17-A9B1-46D900F500CD";
paths = (
{
closed = 1;
nodes = (
"413 -16 OFFCURVE",
"484 -4 OFFCURVE",
"568 30 CURVE",
"633 340 LINE",
"422 340 LINE",
"418 317 LINE",
"461 312 OFFCURVE",
"514 301 OFFCURVE",
"533 261 CURVE",
"488 51 LINE",
"362 5 OFFCURVE",
"85 4 OFFCURVE",
"156 356 CURVE SMOOTH",
"195 540 OFFCURVE",
"291 674 OFFCURVE",
"491 674 CURVE SMOOTH",
"611 674 OFFCURVE",
"641 626 OFFCURVE",
"654 593 CURVE",
"675 593 LINE",
"674 680 LINE",
"656 695 OFFCURVE",
"622 719 OFFCURVE",
"501 719 CURVE SMOOTH",
"271 719 OFFCURVE",
"109 573 OFFCURVE",
"63 356 CURVE SMOOTH",
"17 139 OFFCURVE",
"106 -13 OFFCURVE",
"322 -15 CURVE SMOOTH"
);
}
);
width = 655;
},
{
associatedMasterId = "0F50FE64-90BD-4AD4-940A-DD271C654105";
background = {
paths = (
{
closed = 1;
nodes = (
"566 30 LINE",
"566 276 LINE",
"566 340 LINE",
"511 340 LINE",
"355 340 LINE",
"355 317 LINE",
"359 317 LINE",
"382 317 OFFCURVE",
"481 299 OFFCURVE",
"482 276 CURVE",
"482 30 LINE"
);
},
{
closed = 1;
nodes = (
"543 113 LINE",
"519 108 LINE",
"520 104 OFFCURVE",
"521 100 OFFCURVE",
"521 96 CURVE",
"521 75 OFFCURVE",
"507 56 OFFCURVE",
"486 50 CURVE",
"475 47 OFFCURVE",
"427 32 OFFCURVE",
"341 32 CURVE",
"249 32 OFFCURVE",
"183 83 OFFCURVE",
"157 167 CURVE",
"143 222 OFFCURVE",
"136 295 OFFCURVE",
"135 386 CURVE",
"135 437 OFFCURVE",
"140 481 OFFCURVE",
"150 519 CURVE",
"151 521 OFFCURVE",
"152 524 OFFCURVE",
"153 527 CURVE",
"181 617 OFFCURVE",
"240 664 OFFCURVE",
"319 664 CURVE",
"328 664 OFFCURVE",
"336 664 OFFCURVE",
"343 665 CURVE",
"422 664 OFFCURVE",
"466 650 OFFCURVE",
"477 647 CURVE",
"498 641 OFFCURVE",
"512 622 OFFCURVE",
"512 601 CURVE",
"512 597 OFFCURVE",
"511 593 OFFCURVE",
"510 589 CURVE",
"534 584 LINE",
"557 667 LINE",
"567 673 OFFCURVE",
"479 695 OFFCURVE",
"489 692 CURVE",
"446 698 OFFCURVE",
"408 706 OFFCURVE",
"311 703 CURVE",
"273 702 OFFCURVE",
"237 696 OFFCURVE",
"203 686 CURVE",
"113 659 OFFCURVE",
"11 582 OFFCURVE",
"11 367 CURVE",
"11 88 OFFCURVE",
"167 12 OFFCURVE",
"249 1 CURVE",
"272 -3 OFFCURVE",
"296 -6 OFFCURVE",
"320 -6 CURVE",
"421 -9 OFFCURVE",
"490 -4 OFFCURVE",
"566 30 CURVE"
);
}
);
};
layerId = "F312684D-3D3A-4824-AA70-423E98A01C4C";
name = "Mar 24 19, 13:31";
paths = (
{
closed = 1;
nodes = (
"566 30 LINE",
"566 276 LINE",
"566 340 LINE",
"511 340 LINE",
"355 340 LINE",
"355 317 LINE",
"359 317 LINE",
"382 317 OFFCURVE",
"481 299 OFFCURVE",
"482 276 CURVE",
"482 30 LINE"
);
},
{
closed = 1;
nodes = (
"543 113 LINE",
"519 108 LINE",
"520 104 OFFCURVE",
"521 100 OFFCURVE",
"521 96 CURVE",
"521 75 OFFCURVE",
"507 56 OFFCURVE",
"486 50 CURVE",
"475 47 OFFCURVE",
"427 32 OFFCURVE",
"341 32 CURVE",
"249 32 OFFCURVE",
"183 83 OFFCURVE",
"157 167 CURVE",
"143 222 OFFCURVE",
"136 295 OFFCURVE",
"135 386 CURVE",
"135 437 OFFCURVE",
"140 481 OFFCURVE",
"150 519 CURVE",
"151 521 OFFCURVE",
"152 524 OFFCURVE",
"153 527 CURVE",
"181 617 OFFCURVE",
"240 664 OFFCURVE",
"319 664 CURVE",
"328 664 OFFCURVE",
"336 664 OFFCURVE",
"343 665 CURVE",
"422 664 OFFCURVE",
"466 650 OFFCURVE",
"477 647 CURVE",
"498 641 OFFCURVE",
"512 622 OFFCURVE",
"512 601 CURVE",
"512 597 OFFCURVE",
"511 593 OFFCURVE",
"510 589 CURVE",
"534 584 LINE",
"557 667 LINE",
"567 673 OFFCURVE",
"479 695 OFFCURVE",
"489 692 CURVE",
"446 698 OFFCURVE",
"408 706 OFFCURVE",
"311 703 CURVE",
"273 702 OFFCURVE",
"237 696 OFFCURVE",
"203 686 CURVE",
"113 659 OFFCURVE",
"11 582 OFFCURVE",
"11 367 CURVE",
"11 88 OFFCURVE",
"167 12 OFFCURVE",
"249 1 CURVE",
"272 -3 OFFCURVE",
"296 -6 OFFCURVE",
"320 -6 CURVE",
"421 -9 OFFCURVE",
"490 -4 OFFCURVE",
"566 30 CURVE"
);
}
);
visible = 1;
width = 590;
},
{
layerId = "01F24223-DBC3-4147-9700-0A3055B7ADEF";
paths = (
{
closed = 1;
nodes = (
"415 -9 OFFCURVE",
"485 -4 OFFCURVE",
"568 30 CURVE",
"634 340 LINE",
"343 340 LINE",
"338 317 LINE",
"381 312 OFFCURVE",
"434 301 OFFCURVE",
"453 261 CURVE",
"413 74 LINE",
"239 68 OFFCURVE",
"212 199 OFFCURVE",
"243 356 CURVE SMOOTH",
"282 540 OFFCURVE",
"408 625 OFFCURVE",
"521 625 CURVE SMOOTH",
"612 625 OFFCURVE",
"624 601 OFFCURVE",
"659 575 CURVE",
"691 575 LINE",
"677 673 LINE",
"655 692 OFFCURVE",
"594 719 OFFCURVE",
"501 719 CURVE SMOOTH",
"281 719 OFFCURVE",
"109 573 OFFCURVE",
"63 356 CURVE SMOOTH",
"17 139 OFFCURVE",
"108 -6 OFFCURVE",
"324 -8 CURVE SMOOTH"
);
}
);
width = 662;
}
);
unicode = 0047;
},
{
glyphname = H;
lastChange = "2022-03-21 23:25:28 +0000";
layers = (
{
layerId = "0F50FE64-90BD-4AD4-940A-DD271C654105";
paths = (
{
closed = 1;
nodes = (
"621 29 OFFCURVE",
"611 42 OFFCURVE",
"611 65 CURVE SMOOTH",
"611 636 LINE",
"611 657 OFFCURVE",
"630 677 OFFCURVE",
"658 677 CURVE",
"658 700 LINE",
"527 700 LINE",
"527 366 LINE",
"170 366 LINE",
"170 700 LINE",
"40 700 LINE",
"40 677 LINE",
"67 677 OFFCURVE",
"85 659 OFFCURVE",
"86 636 CURVE",
"86 66 LINE",
"86 42 OFFCURVE",
"67 29 OFFCURVE",
"44 23 CURVE SMOOTH",
"40 22 LINE",
"40 0 LINE",
"171 0 LINE",
"170 320 LINE",
"527 320 LINE",
"527 0 LINE",
"648 0 LINE",
"648 22 LINE",
"644 23 LINE SMOOTH"
);
},
{
closed = 1;
nodes = (
"170 635 LINE",
"170 658 OFFCURVE",
"188 678 OFFCURVE",
"216 678 CURVE",
"216 700 LINE",
"129 700 LINE",
"129 635 LINE"
);
},
{
closed = 1;
nodes = (
"568 700 LINE",
"481 700 LINE",
"481 678 LINE",
"509 678 OFFCURVE",
"527 658 OFFCURVE",
"527 635 CURVE",
"568 635 LINE"
);
},
{
closed = 1;
nodes = (
"129 0 LINE",
"216 0 LINE",
"216 22 LINE",
"188 22 OFFCURVE",
"170 42 OFFCURVE",
"170 65 CURVE",
"129 65 LINE"
);
},
{
closed = 1;
nodes = (
"527 65 LINE",
"527 42 OFFCURVE",
"509 22 OFFCURVE",
"481 22 CURVE",
"481 0 LINE",
"568 0 LINE",
"568 65 LINE"
);
}
);
width = 688;
},
{
layerId = "78443275-C7CF-46E0-B20A-E99834DDCE81";
paths = (
{
closed = 1;
nodes = (
"681 29 OFFCURVE",
"661 42 OFFCURVE",
"661 65 CURVE",
"661 636 LINE",
"661 659 OFFCURVE",
"681 677 OFFCURVE",
"708 677 CURVE",
"708 700 LINE",
"497 700 LINE",
"497 386 LINE",
"250 386 LINE",
"250 700 LINE",
"40 700 LINE",
"40 677 LINE",
"67 677 OFFCURVE",
"85 659 OFFCURVE",
"86 636 CURVE",
"86 66 LINE",
"86 42 OFFCURVE",
"67 29 OFFCURVE",
"44 23 CURVE SMOOTH",
"40 22 LINE",
"40 0 LINE",
"251 0 LINE",
"250 300 LINE",
"497 300 LINE",
"497 0 LINE",
"708 0 LINE",
"708 22 LINE",
"704 23 LINE"
);
},
{
closed = 1;
nodes = (
"249 635 LINE",
"249 658 OFFCURVE",
"267 678 OFFCURVE",
"295 678 CURVE",
"295 700 LINE",
"208 700 LINE",
"208 635 LINE"
);
},
{
closed = 1;
nodes = (
"538 700 LINE",
"451 700 LINE",
"451 678 LINE",
"479 678 OFFCURVE",
"497 658 OFFCURVE",
"497 635 CURVE",
"538 635 LINE"
);
},
{
closed = 1;
nodes = (
"208 0 LINE",
"295 0 LINE",
"295 22 LINE",
"267 22 OFFCURVE",
"249 42 OFFCURVE",
"249 65 CURVE",
"208 65 LINE"
);
},
{
closed = 1;
nodes = (
"496 65 LINE",
"496 42 OFFCURVE",
"478 22 OFFCURVE",
"450 22 CURVE",
"450 0 LINE",
"537 0 LINE",
"537 65 LINE"
);
}
);
width = 748;
},
{
layerId = "A2D4E86B-AE4C-4A17-A9B1-46D900F500CD";
paths = (
{
closed = 1;
nodes = (
"575 29 OFFCURVE",
"568 42 OFFCURVE",
"572 65 CURVE SMOOTH",
"694 636 LINE",
"698 657 OFFCURVE",
"722 677 OFFCURVE",
"750 677 CURVE",
"754 700 LINE",
"623 700 LINE",
"552 366 LINE",
"195 366 LINE",
"266 700 LINE",
"136 700 LINE",
"132 677 LINE",
"159 677 OFFCURVE",
"173 659 OFFCURVE",
"169 636 CURVE",
"48 66 LINE",
"43 42 OFFCURVE",
"21 29 OFFCURVE",
"-4 23 CURVE SMOOTH",
"-8 22 LINE",
"-12 0 LINE",
"119 0 LINE",
"186 320 LINE",
"543 320 LINE",
"475 0 LINE",
"596 0 LINE",
"600 22 LINE",
"596 23 LINE SMOOTH"
);
},
{
closed = 1;
nodes = (
"253 635 LINE",
"257 658 OFFCURVE",
"280 678 OFFCURVE",
"308 678 CURVE",
"312 700 LINE",
"225 700 LINE",
"212 635 LINE"
);
},
{
closed = 1;
nodes = (
"664 700 LINE",
"577 700 LINE",
"573 678 LINE",
"601 678 OFFCURVE",
"614 658 OFFCURVE",
"610 635 CURVE",
"651 635 LINE"
);
},
{
closed = 1;
nodes = (
"77 0 LINE",
"164 0 LINE",
"168 22 LINE",
"140 22 OFFCURVE",
"127 42 OFFCURVE",
"131 65 CURVE",
"90 65 LINE"
);
},
{
closed = 1;
nodes = (
"488 65 LINE",
"484 42 OFFCURVE",
"461 22 OFFCURVE",
"433 22 CURVE",
"429 0 LINE",
"516 0 LINE",
"529 65 LINE"
);
}
);
width = 699;
},
{
layerId = "01F24223-DBC3-4147-9700-0A3055B7ADEF";
paths = (
{
closed = 1;
nodes = (
"635 29 OFFCURVE",
"618 42 OFFCURVE",
"622 65 CURVE",
"744 636 LINE",
"749 659 OFFCURVE",
"773 677 OFFCURVE",
"800 677 CURVE",
"804 700 LINE",
"593 700 LINE",
"527 386 LINE",
"280 386 LINE",
"346 700 LINE",
"136 700 LINE",
"132 677 LINE",
"159 677 OFFCURVE",
"173 659 OFFCURVE",
"169 636 CURVE",
"48 66 LINE",
"43 42 OFFCURVE",
"21 29 OFFCURVE",
"-4 23 CURVE SMOOTH",
"-8 22 LINE",
"-12 0 LINE",
"199 0 LINE",
"261 300 LINE",
"508 300 LINE",
"445 0 LINE",
"656 0 LINE",
"660 22 LINE",
"656 23 LINE"
);
},
{
closed = 1;
nodes = (
"332 635 LINE",
"336 658 OFFCURVE",
"359 678 OFFCURVE",
"387 678 CURVE",
"391 700 LINE",
"304 700 LINE",
"291 635 LINE"
);
},
{
closed = 1;
nodes = (
"634 700 LINE",
"547 700 LINE",
"543 678 LINE",
"571 678 OFFCURVE",
"584 658 OFFCURVE",
"580 635 CURVE",
"621 635 LINE"
);
},
{
closed = 1;
nodes = (
"156 0 LINE",
"243 0 LINE",
"247 22 LINE",
"219 22 OFFCURVE",
"206 42 OFFCURVE",
"210 65 CURVE",
"169 65 LINE"
);
},
{
closed = 1;
nodes = (
"457 65 LINE",
"453 42 OFFCURVE",
"430 22 OFFCURVE",
"402 22 CURVE",
"398 0 LINE",
"485 0 LINE",
"498 65 LINE"
);
}
);
width = 749;
}
);
unicode = 0048;
},
{
glyphname = I;
lastChange = "2022-06-13 17:23:00 +0000";
layers = (
{
layerId = "0F50FE64-90BD-4AD4-940A-DD271C654105";
paths = (
{
closed = 1;
nodes = (
"190 28 OFFCURVE",
"171 42 OFFCURVE",
"171 65 CURVE SMOOTH",
"171 636 LINE",
"172 659 OFFCURVE",
"190 677 OFFCURVE",
"213 677 CURVE SMOOTH",
"217 677 LINE",
"217 700 LINE",
"40 700 LINE",
"40 677 LINE",
"44 677 LINE SMOOTH",
"67 677 OFFCURVE",
"86 659 OFFCURVE",
"87 636 CURVE",
"87 66 LINE",
"87 42 OFFCURVE",
"67 29 OFFCURVE",
"44 23 CURVE SMOOTH",
"40 22 LINE",
"40 0 LINE",
"218 0 LINE",
"218 22 LINE",
"213 23 LINE SMOOTH"
);
}
);
width = 258;
},
{
layerId = "78443275-C7CF-46E0-B20A-E99834DDCE81";
paths = (
{
closed = 1;
nodes = (
"270 28 OFFCURVE",
"251 42 OFFCURVE",
"251 65 CURVE SMOOTH",
"251 636 LINE",
"252 659 OFFCURVE",
"270 677 OFFCURVE",
"293 677 CURVE SMOOTH",
"297 677 LINE",
"297 700 LINE",
"40 700 LINE",
"40 677 LINE",
"44 677 LINE SMOOTH",
"67 677 OFFCURVE",
"86 659 OFFCURVE",
"87 636 CURVE",
"87 66 LINE",
"87 42 OFFCURVE",
"67 29 OFFCURVE",
"44 23 CURVE SMOOTH",
"40 22 LINE",
"40 0 LINE",
"298 0 LINE",
"298 22 LINE",
"293 23 LINE SMOOTH"
);
}
);
width = 338;
},
{
layerId = "A2D4E86B-AE4C-4A17-A9B1-46D900F500CD";
paths = (
{
closed = 1;
nodes = (
"144 28 OFFCURVE",
"129 42 OFFCURVE",
"133 65 CURVE SMOOTH",
"254 636 LINE",
"260 659 OFFCURVE",
"282 677 OFFCURVE",
"305 677 CURVE SMOOTH",
"309 677 LINE",
"314 700 LINE",
"137 700 LINE",
"132 677 LINE",
"136 677 LINE SMOOTH",
"159 677 OFFCURVE",
"174 659 OFFCURVE",
"170 636 CURVE",
"49 66 LINE",
"44 42 OFFCURVE",
"21 28 OFFCURVE",
"-3 23 CURVE SMOOTH",
"-8 22 LINE",
"-12 0 LINE",
"166 0 LINE",
"170 22 LINE",
"166 23 LINE SMOOTH"
);
}
);
width = 259;
},
{
layerId = "01F24223-DBC3-4147-9700-0A3055B7ADEF";
paths = (
{
closed = 1;
nodes = (
"224 28 OFFCURVE",
"208 42 OFFCURVE",
"212 65 CURVE SMOOTH",
"334 636 LINE",
"340 659 OFFCURVE",
"362 677 OFFCURVE",
"385 677 CURVE SMOOTH",
"389 677 LINE",
"393 700 LINE",
"136 700 LINE",
"132 677 LINE",
"136 677 LINE SMOOTH",
"159 677 OFFCURVE",
"174 659 OFFCURVE",
"170 636 CURVE",
"49 66 LINE",
"44 42 OFFCURVE",
"21 29 OFFCURVE",
"-4 23 CURVE SMOOTH",
"-8 22 LINE",
"-12 0 LINE",
"246 0 LINE",
"250 22 LINE",
"245 23 LINE SMOOTH"
);
}
);
width = 339;
}
);
unicode = 0049;
},
{
glyphname = Iacute;
lastChange = "2022-02-15 21:46:50 +0000";
layers = (
{
layerId = "0F50FE64-90BD-4AD4-940A-DD271C654105";
paths = (
{
closed = 1;
nodes = (
"190 28 OFFCURVE",
"171 42 OFFCURVE",
"171 65 CURVE SMOOTH",
"171 91 LINE",
"171 612 LINE",
"171 636 LINE",
"172 659 OFFCURVE",
"190 677 OFFCURVE",
"213 677 CURVE SMOOTH",
"217 677 LINE",
"217 700 LINE",
"40 700 LINE",
"40 677 LINE",
"44 677 LINE SMOOTH",
"67 677 OFFCURVE",
"86 659 OFFCURVE",
"87 636 CURVE",
"87 612 LINE",
"87 66 LINE",
"87 42 OFFCURVE",
"67 29 OFFCURVE",
"44 23 CURVE SMOOTH",
"40 22 LINE",
"40 0 LINE",
"218 0 LINE",
"218 22 LINE",
"213 23 LINE SMOOTH"
);
},
{
closed = 1;
nodes = (
"153 733 LINE",
"259 875 LINE",
"175 875 LINE",
"108 733 LINE"
);
}
);
width = 299;
},
{
layerId = "78443275-C7CF-46E0-B20A-E99834DDCE81";
paths = (
{
closed = 1;
nodes = (
"270 28 OFFCURVE",
"251 42 OFFCURVE",
"251 65 CURVE SMOOTH",
"251 91 LINE",
"251 612 LINE",
"251 636 LINE",
"252 659 OFFCURVE",
"270 677 OFFCURVE",
"293 677 CURVE SMOOTH",
"297 677 LINE",
"297 700 LINE",
"40 700 LINE",
"40 677 LINE",
"44 677 LINE SMOOTH",
"67 677 OFFCURVE",
"86 659 OFFCURVE",
"87 636 CURVE",
"87 612 LINE",
"87 66 LINE",
"87 42 OFFCURVE",
"67 29 OFFCURVE",
"44 23 CURVE SMOOTH",
"40 22 LINE",
"40 0 LINE",
"298 0 LINE",
"298 22 LINE",
"293 23 LINE SMOOTH"
);
},
{
closed = 1;
nodes = (
"212 735 LINE",
"358 877 LINE",
"154 877 LINE",
"127 735 LINE"
);
}
);
width = 398;
},
{
layerId = "A2D4E86B-AE4C-4A17-A9B1-46D900F500CD";
paths = (
{
closed = 1;
nodes = (
"144 28 OFFCURVE",
"129 42 OFFCURVE",
"133 65 CURVE SMOOTH",
"138 91 LINE",
"249 612 LINE",
"254 636 LINE",
"260 659 OFFCURVE",
"282 677 OFFCURVE",
"305 677 CURVE SMOOTH",
"309 677 LINE",
"314 700 LINE",
"137 700 LINE",
"132 677 LINE",
"136 677 LINE SMOOTH",
"159 677 OFFCURVE",
"174 659 OFFCURVE",
"170 636 CURVE",
"165 612 LINE",
"49 66 LINE",
"44 42 OFFCURVE",
"21 28 OFFCURVE",
"-3 23 CURVE SMOOTH",
"-8 22 LINE",
"-12 0 LINE",
"166 0 LINE",
"170 22 LINE",
"166 23 LINE SMOOTH"
);
},
{
closed = 1;
nodes = (
"256 734 LINE",
"392 876 LINE",
"308 876 LINE",
"211 734 LINE"
);
}
);
width = 299;
},
{
layerId = "01F24223-DBC3-4147-9700-0A3055B7ADEF";
paths = (
{
closed = 1;
nodes = (
"276 28 OFFCURVE",
"260 42 OFFCURVE",
"265 65 CURVE SMOOTH",
"270 91 LINE",
"381 612 LINE",
"386 636 LINE",
"392 659 OFFCURVE",
"414 677 OFFCURVE",
"437 677 CURVE SMOOTH",
"441 677 LINE",
"446 700 LINE",
"189 700 LINE",
"184 677 LINE",
"188 677 LINE SMOOTH",
"211 677 OFFCURVE",
"226 659 OFFCURVE",
"222 636 CURVE",
"217 612 LINE",
"101 66 LINE",
"96 42 OFFCURVE",
"73 29 OFFCURVE",
"49 23 CURVE SMOOTH",
"44 22 LINE",
"40 0 LINE",
"298 0 LINE",
"302 22 LINE",
"298 23 LINE SMOOTH"
);
},
{
closed = 1;
nodes = (
"368 735 LINE",
"544 877 LINE",
"340 877 LINE",
"283 735 LINE"
);
}
);
width = 584;
}
);
unicode = 00CD;
},
{
glyphname = Icircumflex;
lastChange = "2022-02-15 21:47:05 +0000";
layers = (
{
layerId = "0F50FE64-90BD-4AD4-940A-DD271C654105";
paths = (
{
closed = 1;
nodes = (
"199 28 OFFCURVE",
"180 42 OFFCURVE",
"180 65 CURVE SMOOTH",
"180 91 LINE",
"180 612 LINE",
"180 636 LINE",
"181 659 OFFCURVE",
"199 677 OFFCURVE",
"222 677 CURVE SMOOTH",
"226 677 LINE",
"226 700 LINE",
"49 700 LINE",
"49 677 LINE",
"53 677 LINE SMOOTH",
"76 677 OFFCURVE",
"95 659 OFFCURVE",
"96 636 CURVE",
"96 612 LINE",
"96 66 LINE",
"96 42 OFFCURVE",
"76 29 OFFCURVE",
"53 23 CURVE SMOOTH",
"49 22 LINE",
"49 0 LINE",
"227 0 LINE",
"227 22 LINE",
"222 23 LINE SMOOTH"
);
},
{
closed = 1;
nodes = (
"250 734 LINE",
"170 734 LINE",
"140 825 LINE",
"100 734 LINE",
"20 734 LINE",
"120 860 LINE",
"165 862 LINE"
);
}
);
width = 270;
},
{
layerId = "78443275-C7CF-46E0-B20A-E99834DDCE81";
paths = (
{
closed = 1;
nodes = (
"280 28 OFFCURVE",
"261 42 OFFCURVE",
"261 65 CURVE SMOOTH",
"261 91 LINE",
"261 612 LINE",
"261 636 LINE",
"262 659 OFFCURVE",
"280 677 OFFCURVE",
"303 677 CURVE SMOOTH",
"307 677 LINE",
"307 700 LINE",
"50 700 LINE",
"50 677 LINE",
"54 677 LINE SMOOTH",
"77 677 OFFCURVE",
"96 659 OFFCURVE",
"97 636 CURVE",
"97 612 LINE",
"97 66 LINE",
"97 42 OFFCURVE",
"77 29 OFFCURVE",
"54 23 CURVE SMOOTH",
"50 22 LINE",
"50 0 LINE",
"308 0 LINE",
"308 22 LINE",
"303 23 LINE SMOOTH"
);
},
{
closed = 1;
nodes = (
"330 738 LINE",
"220 738 LINE",
"190 789 LINE",
"150 738 LINE",
"40 738 LINE",
"170 864 LINE",
"215 866 LINE"
);
}
);
width = 370;
},
{
layerId = "A2D4E86B-AE4C-4A17-A9B1-46D900F500CD";
paths = (
{
closed = 1;
nodes = (
"170 28 OFFCURVE",
"155 42 OFFCURVE",
"159 65 CURVE SMOOTH",
"164 91 LINE",
"275 612 LINE",
"280 636 LINE",
"286 659 OFFCURVE",
"308 677 OFFCURVE",
"331 677 CURVE SMOOTH",
"335 677 LINE",
"340 700 LINE",
"163 700 LINE",
"158 677 LINE",
"162 677 LINE SMOOTH",
"185 677 OFFCURVE",
"200 659 OFFCURVE",
"196 636 CURVE",
"191 612 LINE",
"75 66 LINE",
"70 42 OFFCURVE",
"47 28 OFFCURVE",
"23 23 CURVE SMOOTH",
"18 22 LINE",
"14 0 LINE",
"192 0 LINE",
"196 22 LINE",
"192 23 LINE SMOOTH"
);
},
{
closed = 1;
nodes = (
"373 735 LINE",
"293 735 LINE",
"283 826 LINE",
"223 735 LINE",
"143 735 LINE",
"270 861 LINE",
"316 863 LINE"
);
}
);
width = 310;
},
{
layerId = "01F24223-DBC3-4147-9700-0A3055B7ADEF";
paths = (
{
closed = 1;
nodes = (
"276 28 OFFCURVE",
"260 42 OFFCURVE",
"265 65 CURVE SMOOTH",
"270 91 LINE",
"381 612 LINE",
"386 636 LINE",
"392 659 OFFCURVE",
"414 677 OFFCURVE",
"437 677 CURVE SMOOTH",
"441 677 LINE",
"446 700 LINE",
"189 700 LINE",
"184 677 LINE",
"188 677 LINE SMOOTH",
"211 677 OFFCURVE",
"226 659 OFFCURVE",
"222 636 CURVE",
"217 612 LINE",
"101 66 LINE",
"96 42 OFFCURVE",
"73 29 OFFCURVE",
"49 23 CURVE SMOOTH",
"45 22 LINE",
"40 0 LINE",
"298 0 LINE",
"303 22 LINE",
"298 23 LINE SMOOTH"
);
},
{
closed = 1;
nodes = (
"477 738 LINE",
"367 738 LINE",
"348 789 LINE",
"297 738 LINE",
"187 738 LINE",
"344 864 LINE",
"389 866 LINE"
);
}
);
width = 517;
}
);
unicode = 00CE;
},
{
glyphname = Idieresis;
lastChange = "2022-02-15 21:48:24 +0000";
layers = (
{
components = (
{
name = I;
transform = "{1, 0, 0, 1, 27, 0}";
}
);
layerId = "0F50FE64-90BD-4AD4-940A-DD271C654105";
paths = (
{
closed = 1;
nodes = (
"108 732 OFFCURVE",
"134 758 OFFCURVE",
"134 789 CURVE SMOOTH",
"134 820 OFFCURVE",
"108 846 OFFCURVE",
"77 846 CURVE SMOOTH",
"46 846 OFFCURVE",
"20 820 OFFCURVE",
"20 789 CURVE SMOOTH",
"20 758 OFFCURVE",
"46 732 OFFCURVE",
"77 732 CURVE SMOOTH"
);
},
{
closed = 1;
nodes = (
"268 732 OFFCURVE",
"294 758 OFFCURVE",
"294 789 CURVE SMOOTH",
"294 820 OFFCURVE",
"268 846 OFFCURVE",
"237 846 CURVE SMOOTH",
"206 846 OFFCURVE",
"180 820 OFFCURVE",
"180 789 CURVE SMOOTH",
"180 758 OFFCURVE",
"206 732 OFFCURVE",
"237 732 CURVE SMOOTH"
);
}
);
width = 314;
},
{
components = (
{
name = I;
transform = "{1, 0, 0, 1, 75, 0}";
}
);
layerId = "78443275-C7CF-46E0-B20A-E99834DDCE81";
paths = (
{
closed = 1;
nodes = (
"172 754 OFFCURVE",
"211 793 OFFCURVE",
"211 839 CURVE SMOOTH",
"211 886 OFFCURVE",
"172 925 OFFCURVE",
"126 925 CURVE SMOOTH",
"79 925 OFFCURVE",
"40 886 OFFCURVE",
"40 839 CURVE SMOOTH",
"40 793 OFFCURVE",
"79 754 OFFCURVE",
"126 754 CURVE SMOOTH"
);
},
{
closed = 1;
nodes = (
"407 754 OFFCURVE",
"446 793 OFFCURVE",
"446 839 CURVE SMOOTH",
"446 886 OFFCURVE",
"407 925 OFFCURVE",
"361 925 CURVE SMOOTH",
"314 925 OFFCURVE",
"275 886 OFFCURVE",
"275 839 CURVE SMOOTH",
"275 793 OFFCURVE",
"314 754 OFFCURVE",
"361 754 CURVE SMOOTH"
);
}
);
width = 486;
},
{
components = (
{
name = I;
}
);
layerId = "A2D4E86B-AE4C-4A17-A9B1-46D900F500CD";
paths = (
{
closed = 1;
nodes = (
"189 742 OFFCURVE",
"220 768 OFFCURVE",
"227 799 CURVE SMOOTH",
"234 830 OFFCURVE",
"213 856 OFFCURVE",
"182 856 CURVE SMOOTH",
"151 856 OFFCURVE",
"120 830 OFFCURVE",
"113 799 CURVE SMOOTH",
"106 768 OFFCURVE",
"127 742 OFFCURVE",
"158 742 CURVE SMOOTH"
);
},
{
closed = 1;
nodes = (
"349 742 OFFCURVE",
"380 768 OFFCURVE",
"387 799 CURVE SMOOTH",
"394 830 OFFCURVE",
"373 856 OFFCURVE",
"342 856 CURVE SMOOTH",
"311 856 OFFCURVE",
"280 830 OFFCURVE",
"273 799 CURVE SMOOTH",
"266 768 OFFCURVE",
"287 742 OFFCURVE",
"318 742 CURVE SMOOTH"
);
}
);
width = 259;
},
{
components = (
{
name = I;
}
);
layerId = "01F24223-DBC3-4147-9700-0A3055B7ADEF";
paths = (
{
closed = 1;
nodes = (
"249 754 OFFCURVE",
"296 793 OFFCURVE",
"306 839 CURVE SMOOTH",
"316 886 OFFCURVE",
"285 925 OFFCURVE",
"239 925 CURVE SMOOTH",
"192 925 OFFCURVE",
"145 886 OFFCURVE",
"135 839 CURVE SMOOTH",
"125 793 OFFCURVE",
"156 754 OFFCURVE",
"203 754 CURVE SMOOTH"
);
},
{
closed = 1;
nodes = (
"484 754 OFFCURVE",
"531 793 OFFCURVE",
"541 839 CURVE SMOOTH",
"551 886 OFFCURVE",
"520 925 OFFCURVE",
"474 925 CURVE SMOOTH",
"427 925 OFFCURVE",
"380 886 OFFCURVE",
"370 839 CURVE SMOOTH",
"360 793 OFFCURVE",
"391 754 OFFCURVE",
"438 754 CURVE SMOOTH"
);
}
);
width = 583;
}
);
unicode = 00CF;
},
{
glyphname = Igrave;
lastChange = "2022-02-15 21:48:35 +0000";
layers = (
{
layerId = "0F50FE64-90BD-4AD4-940A-DD271C654105";
paths = (
{
closed = 1;
nodes = (
"212 28 OFFCURVE",
"193 42 OFFCURVE",
"193 65 CURVE SMOOTH",
"193 91 LINE",
"193 612 LINE",
"193 636 LINE",
"194 659 OFFCURVE",
"212 677 OFFCURVE",
"235 677 CURVE SMOOTH",
"239 677 LINE",
"239 700 LINE",
"62 700 LINE",
"62 677 LINE",
"66 677 LINE SMOOTH",
"89 677 OFFCURVE",
"108 659 OFFCURVE",
"109 636 CURVE",
"109 612 LINE",
"109 66 LINE",
"109 42 OFFCURVE",
"89 29 OFFCURVE",
"66 23 CURVE SMOOTH",
"62 22 LINE",
"62 0 LINE",
"240 0 LINE",
"240 22 LINE",
"235 23 LINE SMOOTH"
);
},
{
closed = 1;
nodes = (
"104 864 LINE",
"20 864 LINE",
"126 722 LINE",
"171 722 LINE"
);
}
);
width = 260;
},
{
layerId = "78443275-C7CF-46E0-B20A-E99834DDCE81";
paths = (
{
closed = 1;
nodes = (
"320 28 OFFCURVE",
"301 42 OFFCURVE",
"301 65 CURVE SMOOTH",
"301 91 LINE",
"301 612 LINE",
"301 636 LINE",
"302 659 OFFCURVE",
"320 677 OFFCURVE",
"343 677 CURVE SMOOTH",
"347 677 LINE",
"347 700 LINE",
"90 700 LINE",
"90 677 LINE",
"94 677 LINE SMOOTH",
"117 677 OFFCURVE",
"136 659 OFFCURVE",
"137 636 CURVE",
"137 612 LINE",
"137 66 LINE",
"137 42 OFFCURVE",
"117 29 OFFCURVE",
"94 23 CURVE SMOOTH",
"90 22 LINE",
"90 0 LINE",
"348 0 LINE",
"348 22 LINE",
"343 23 LINE SMOOTH"
);
},
{
closed = 1;
nodes = (
"234 865 LINE",
"30 865 LINE",
"176 723 LINE",
"261 723 LINE"
);
}
);
width = 388;
},
{
layerId = "A2D4E86B-AE4C-4A17-A9B1-46D900F500CD";
paths = (
{
closed = 1;
nodes = (
"165 28 OFFCURVE",
"149 42 OFFCURVE",
"154 65 CURVE SMOOTH",
"160 91 LINE",
"270 612 LINE",
"275 636 LINE",
"281 659 OFFCURVE",
"303 677 OFFCURVE",
"326 677 CURVE SMOOTH",
"330 677 LINE",
"335 700 LINE",
"158 700 LINE",
"153 677 LINE",
"157 677 LINE SMOOTH",
"180 677 OFFCURVE",
"195 659 OFFCURVE",
"191 636 CURVE",
"186 612 LINE",
"70 66 LINE",
"65 42 OFFCURVE",
"42 29 OFFCURVE",
"18 23 CURVE SMOOTH",
"14 22 LINE",
"9 0 LINE",
"187 0 LINE",
"192 22 LINE",
"187 23 LINE SMOOTH"
);
},
{
closed = 1;
nodes = (
"235 864 LINE",
"151 864 LINE",
"227 722 LINE",
"272 722 LINE"
);
}
);
width = 260;
},
{
layerId = "01F24223-DBC3-4147-9700-0A3055B7ADEF";
paths = (
{
closed = 1;
nodes = (
"276 28 OFFCURVE",
"260 42 OFFCURVE",
"265 65 CURVE SMOOTH",
"270 91 LINE",
"381 612 LINE",
"386 636 LINE",
"392 659 OFFCURVE",
"414 677 OFFCURVE",
"437 677 CURVE SMOOTH",
"441 677 LINE",
"446 700 LINE",
"189 700 LINE",
"184 677 LINE",
"188 677 LINE SMOOTH",
"211 677 OFFCURVE",
"226 659 OFFCURVE",
"222 636 CURVE",
"217 612 LINE",
"101 66 LINE",
"96 42 OFFCURVE",
"73 29 OFFCURVE",
"49 23 CURVE SMOOTH",
"45 22 LINE",
"40 0 LINE",
"298 0 LINE",
"303 22 LINE",
"298 23 LINE SMOOTH"
);
},
{
closed = 1;
nodes = (
"368 865 LINE",
"164 865 LINE",
"280 723 LINE",
"365 723 LINE"
);
}
);
width = 486;
}
);
unicode = 00CC;
},
{
glyphname = J;
lastChange = "2022-06-14 17:23:23 +0000";
layers = (
{
layerId = "0F50FE64-90BD-4AD4-940A-DD271C654105";
paths = (
{
closed = 1;
nodes = (
"40 -170 OFFCURVE",
"100 -195 OFFCURVE",
"156 -195 CURVE SMOOTH",
"232 -195 OFFCURVE",
"292 -160 OFFCURVE",
"292 -84 CURVE SMOOTH",
"292 636 LINE SMOOTH",
"292 659 OFFCURVE",
"311 677 OFFCURVE",
"338 677 CURVE",
"338 700 LINE",
"162 700 LINE",
"162 677 LINE",
"189 677 OFFCURVE",
"209 659 OFFCURVE",
"209 636 CURVE SMOOTH",
"209 -79 LINE SMOOTH",
"209 -129 OFFCURVE",
"183 -150 OFFCURVE",
"157 -150 CURVE SMOOTH",
"131 -150 OFFCURVE",
"104 -129 OFFCURVE",
"103 -79 CURVE",
"103 -43 LINE",
"73 -43 LINE",
"40 -94 LINE"
);
}
);
width = 378;
},
{
layerId = "78443275-C7CF-46E0-B20A-E99834DDCE81";
paths = (
{
closed = 1;
nodes = (
"40 -130 OFFCURVE",
"85 -215 OFFCURVE",
"214 -215 CURVE SMOOTH",
"358 -215 OFFCURVE",
"422 -150 OFFCURVE",
"422 -64 CURVE SMOOTH",
"422 636 LINE SMOOTH",
"422 659 OFFCURVE",
"441 677 OFFCURVE",
"468 677 CURVE",
"468 700 LINE",
"212 700 LINE",
"212 677 LINE",
"239 677 OFFCURVE",
"259 659 OFFCURVE",
"259 636 CURVE SMOOTH",
"259 -51 LINE SMOOTH",
"259 -140 OFFCURVE",
"230 -150 OFFCURVE",
"204 -150 CURVE SMOOTH",
"178 -150 OFFCURVE",
"149 -140 OFFCURVE",
"149 -51 CURVE",
"149 -20 LINE",
"104 -20 LINE",
"40 -84 LINE"
);
}
);
width = 506;
},
{
layerId = "A2D4E86B-AE4C-4A17-A9B1-46D900F500CD";
paths = (
{
closed = 1;
nodes = (
"-49 -170 OFFCURVE",
"6 -195 OFFCURVE",
"62 -195 CURVE SMOOTH",
"138 -195 OFFCURVE",
"203 -170 OFFCURVE",
"219 -94 CURVE SMOOTH",
"375 636 LINE",
"379 659 OFFCURVE",
"402 677 OFFCURVE",
"429 677 CURVE",
"434 700 LINE",
"258 700 LINE",
"253 677 LINE",
"280 677 OFFCURVE",
"296 659 OFFCURVE",
"292 636 CURVE",
"140 -79 LINE SMOOTH",
"129 -129 OFFCURVE",
"98 -150 OFFCURVE",
"72 -150 CURVE SMOOTH",
"46 -150 OFFCURVE",
"24 -129 OFFCURVE",
"34 -79 CURVE",
"41 -43 LINE",
"11 -43 LINE",
"-33 -94 LINE"
);
}
);
width = 378;
},
{
layerId = "01F24223-DBC3-4147-9700-0A3055B7ADEF";
paths = (
{
closed = 1;
nodes = (
"-41 -130 OFFCURVE",
"-14 -215 OFFCURVE",
"115 -215 CURVE SMOOTH",
"259 -215 OFFCURVE",
"337 -150 OFFCURVE",
"355 -64 CURVE SMOOTH",
"504 636 LINE SMOOTH",
"509 659 OFFCURVE",
"531 677 OFFCURVE",
"558 677 CURVE",
"563 700 LINE",
"307 700 LINE",
"302 677 LINE",
"329 677 OFFCURVE",
"346 659 OFFCURVE",
"341 636 CURVE SMOOTH",
"195 -51 LINE SMOOTH",
"176 -140 OFFCURVE",
"145 -150 OFFCURVE",
"119 -150 CURVE SMOOTH",
"93 -150 OFFCURVE",
"66 -140 OFFCURVE",
"85 -51 CURVE",
"91 -20 LINE",
"46 -20 LINE",
"-31 -84 LINE"
);
}
);
width = 507;
}
);
unicode = 004A;
},
{
glyphname = K;
lastChange = "2022-06-13 15:35:34 +0000";
layers = (
{
layerId = "0F50FE64-90BD-4AD4-940A-DD271C654105";
paths = (
{
closed = 1;
nodes = (
"617 0 LINE",
"617 22 LINE",
"583 22 OFFCURVE",
"546 58 OFFCURVE",
"512 94 CURVE",
"243 383 LINE",
"536 635 LINE",
"553 650 OFFCURVE",
"586 678 OFFCURVE",
"609 678 CURVE",
"619 700 LINE",
"446 700 LINE",
"446 678 LINE",
"474 678 OFFCURVE",
"485 650 OFFCURVE",
"468 633 CURVE",
"152 359 LINE",
"429 65 LINE SMOOTH",
"453 40 OFFCURVE",
"441 22 OFFCURVE",
"403 22 CURVE",
"403 0 LINE"
);
},
{
closed = 1;
nodes = (
"215 0 LINE",
"215 22 LINE",
"187 22 OFFCURVE",
"169 42 OFFCURVE",
"169 65 CURVE SMOOTH",
"169 635 LINE SMOOTH",
"169 658 OFFCURVE",
"187 678 OFFCURVE",
"215 678 CURVE",
"215 700 LINE",
"40 700 LINE",
"40 678 LINE",
"68 678 OFFCURVE",
"86 658 OFFCURVE",
"86 635 CURVE SMOOTH",
"86 65 LINE SMOOTH",
"86 42 OFFCURVE",
"68 22 OFFCURVE",
"40 22 CURVE",
"40 0 LINE"
);
}
);
width = 660;
},
{
layerId = "78443275-C7CF-46E0-B20A-E99834DDCE81";
paths = (
{
closed = 1;
nodes = (
"771 0 LINE",
"771 22 LINE",
"743 22 OFFCURVE",
"715 47 OFFCURVE",
"697 65 CURVE SMOOTH",
"401 376 LINE",
"675 624 LINE",
"708 652 OFFCURVE",
"742 678 OFFCURVE",
"770 678 CURVE",
"770 700 LINE",
"564 700 LINE",
"564 678 LINE",
"592 678 OFFCURVE",
"610 658 OFFCURVE",
"587 635 CURVE",
"240 324 LINE",
"483 65 LINE SMOOTH",
"508 38 OFFCURVE",
"495 22 OFFCURVE",
"457 22 CURVE",
"457 0 LINE"
);
},
{
closed = 1;
nodes = (
"295 0 LINE",
"295 22 LINE",
"267 22 OFFCURVE",
"249 42 OFFCURVE",
"249 65 CURVE SMOOTH",
"249 635 LINE SMOOTH",
"249 658 OFFCURVE",
"267 678 OFFCURVE",
"295 678 CURVE",
"295 700 LINE",
"40 700 LINE",
"40 678 LINE",
"68 678 OFFCURVE",
"86 658 OFFCURVE",
"86 635 CURVE SMOOTH",
"86 65 LINE SMOOTH",
"86 42 OFFCURVE",
"68 22 OFFCURVE",
"40 22 CURVE",
"40 0 LINE"
);
}
);
width = 811;
},
{
layerId = "A2D4E86B-AE4C-4A17-A9B1-46D900F500CD";
paths = (
{
closed = 1;
nodes = (
"565 0 LINE",
"569 22 LINE",
"535 22 OFFCURVE",
"506 58 OFFCURVE",
"480 94 CURVE",
"272 383 LINE",
"619 635 LINE",
"639 650 OFFCURVE",
"678 678 OFFCURVE",
"701 678 CURVE",
"715 700 LINE",
"542 700 LINE",
"538 678 LINE",
"566 678 OFFCURVE",
"571 650 OFFCURVE",
"550 633 CURVE",
"176 359 LINE",
"390 65 LINE SMOOTH",
"409 40 OFFCURVE",
"393 22 OFFCURVE",
"355 22 CURVE",
"351 0 LINE"
);
},
{
closed = 1;
nodes = (
"163 0 LINE",
"167 22 LINE",
"139 22 OFFCURVE",
"126 42 OFFCURVE",
"130 65 CURVE SMOOTH",
"252 635 LINE SMOOTH",
"256 658 OFFCURVE",
"279 678 OFFCURVE",
"307 678 CURVE",
"311 700 LINE",
"136 700 LINE",
"132 678 LINE",
"160 678 OFFCURVE",
"173 658 OFFCURVE",
"169 635 CURVE SMOOTH",
"47 65 LINE SMOOTH",
"43 42 OFFCURVE",
"20 22 OFFCURVE",
"-8 22 CURVE",
"-12 0 LINE"
);
}
);
width = 659;
},
{
layerId = "01F24223-DBC3-4147-9700-0A3055B7ADEF";
paths = (
{
closed = 1;
nodes = (
"719 0 LINE",
"723 22 LINE",
"695 22 OFFCURVE",
"673 47 OFFCURVE",
"658 65 CURVE SMOOTH",
"429 376 LINE",
"755 624 LINE",
"794 652 OFFCURVE",
"834 678 OFFCURVE",
"862 678 CURVE",
"866 700 LINE",
"660 700 LINE",
"656 678 LINE",
"684 678 OFFCURVE",
"697 658 OFFCURVE",
"670 635 CURVE",
"256 324 LINE",
"444 65 LINE SMOOTH",
"464 38 OFFCURVE",
"447 22 OFFCURVE",
"409 22 CURVE",
"405 0 LINE"
);
},
{
closed = 1;
nodes = (
"243 0 LINE",
"247 22 LINE",
"219 22 OFFCURVE",
"206 42 OFFCURVE",
"210 65 CURVE SMOOTH",
"332 635 LINE SMOOTH",
"336 658 OFFCURVE",
"359 678 OFFCURVE",
"387 678 CURVE",
"391 700 LINE",
"136 700 LINE",
"132 678 LINE",
"160 678 OFFCURVE",
"173 658 OFFCURVE",
"169 635 CURVE SMOOTH",
"47 65 LINE SMOOTH",
"43 42 OFFCURVE",
"20 22 OFFCURVE",
"-8 22 CURVE",
"-12 0 LINE"
);
}
);
width = 812;
}
);
unicode = 004B;
},
{
glyphname = L;
lastChange = "2022-06-13 15:27:16 +0000";
layers = (
{
layerId = "0F50FE64-90BD-4AD4-940A-DD271C654105";
paths = (
{
closed = 1;
nodes = (
"40 677 LINE",
"44 677 LINE",
"67 677 OFFCURVE",
"87 658 OFFCURVE",
"86 634 CURVE",
"86 66 LINE",
"86 42 OFFCURVE",
"68 23 OFFCURVE",
"44 23 CURVE",
"40 23 LINE",
"40 0 LINE",
"531 0 LINE",
"531 90 LINE",
"497 90 LINE",
"497 65 OFFCURVE",
"477 45 OFFCURVE",
"452 45 CURVE",
"169 45 LINE",
"169 634 LINE",
"169 658 OFFCURVE",
"189 677 OFFCURVE",
"213 677 CURVE",
"217 677 LINE",
"217 700 LINE",
"40 700 LINE"
);
}
);
width = 571;
},
{
layerId = "78443275-C7CF-46E0-B20A-E99834DDCE81";
paths = (
{
closed = 1;
nodes = (
"40 677 LINE",
"44 677 LINE",
"67 677 OFFCURVE",
"87 658 OFFCURVE",
"86 634 CURVE",
"86 66 LINE",
"86 42 OFFCURVE",
"68 23 OFFCURVE",
"44 23 CURVE",
"40 23 LINE",
"40 0 LINE",
"631 0 LINE",
"631 131 LINE",
"597 131 LINE",
"597 106 OFFCURVE",
"577 86 OFFCURVE",
"552 86 CURVE",
"249 86 LINE",
"249 634 LINE",
"249 658 OFFCURVE",
"269 677 OFFCURVE",
"293 677 CURVE",
"297 677 LINE",
"297 700 LINE",
"40 700 LINE"
);
}
);
width = 671;
},
{
layerId = "A2D4E86B-AE4C-4A17-A9B1-46D900F500CD";
paths = (
{
closed = 1;
nodes = (
"132 677 LINE",
"136 677 LINE",
"159 677 OFFCURVE",
"174 658 OFFCURVE",
"168 634 CURVE",
"48 66 LINE",
"43 42 OFFCURVE",
"20 23 OFFCURVE",
"-4 23 CURVE",
"-8 23 LINE",
"-12 0 LINE",
"479 0 LINE",
"498 90 LINE",
"464 90 LINE",
"458 65 OFFCURVE",
"434 45 OFFCURVE",
"409 45 CURVE",
"126 45 LINE",
"251 634 LINE",
"256 658 OFFCURVE",
"281 677 OFFCURVE",
"305 677 CURVE",
"309 677 LINE",
"313 700 LINE",
"136 700 LINE"
);
}
);
width = 572;
},
{
layerId = "01F24223-DBC3-4147-9700-0A3055B7ADEF";
paths = (
{
closed = 1;
nodes = (
"132 677 LINE",
"136 677 LINE",
"159 677 OFFCURVE",
"174 658 OFFCURVE",
"168 634 CURVE",
"48 66 LINE",
"43 42 OFFCURVE",
"20 23 OFFCURVE",
"-4 23 CURVE",
"-8 23 LINE",
"-12 0 LINE",
"579 0 LINE",
"606 131 LINE",
"572 131 LINE",
"567 106 OFFCURVE",
"543 86 OFFCURVE",
"518 86 CURVE",
"215 86 LINE",
"331 634 LINE",
"336 658 OFFCURVE",
"361 677 OFFCURVE",
"385 677 CURVE",
"389 677 LINE",
"393 700 LINE",
"136 700 LINE"
);
}
);
width = 672;
}
);
unicode = 004C;
},
{
glyphname = M;
lastChange = "2022-06-13 15:37:35 +0000";
layers = (
{
layerId = "0F50FE64-90BD-4AD4-940A-DD271C654105";
paths = (
{
closed = 1;
nodes = (
"178 0 LINE",
"178 22 LINE",
"150 22 OFFCURVE",
"132 42 OFFCURVE",
"132 65 CURVE",
"163 564 LINE",
"362 27 LINE",
"440 28 LINE",
"643 599 LINE",
"674 65 LINE",
"674 42 OFFCURVE",
"656 22 OFFCURVE",
"628 22 CURVE",
"628 0 LINE",
"804 0 LINE",
"804 22 LINE",
"776 22 OFFCURVE",
"758 42 OFFCURVE",
"758 65 CURVE",
"723 635 LINE",
"723 658 OFFCURVE",
"741 678 OFFCURVE",
"769 678 CURVE",
"769 700 LINE",
"632 700 LINE",
"417 99 LINE",
"193 700 LINE",
"77 700 LINE",
"77 678 LINE",
"105 678 OFFCURVE",
"122 659 OFFCURVE",
"123 636 CURVE",
"86 65 LINE",
"86 42 OFFCURVE",
"68 22 OFFCURVE",
"40 22 CURVE",
"40 0 LINE"
);
}
);
width = 844;
},
{
layerId = "78443275-C7CF-46E0-B20A-E99834DDCE81";
paths = (
{
closed = 1;
nodes = (
"225 0 LINE",
"225 22 LINE",
"200 22 OFFCURVE",
"182 42 OFFCURVE",
"182 65 CURVE",
"202 490 LINE",
"381 27 LINE",
"540 27 LINE",
"709 477 LINE",
"733 65 LINE",
"733 42 OFFCURVE",
"715 22 OFFCURVE",
"687 22 CURVE",
"687 0 LINE",
"942 0 LINE",
"942 22 LINE",
"914 22 OFFCURVE",
"896 42 OFFCURVE",
"896 65 CURVE",
"861 635 LINE",
"861 658 OFFCURVE",
"879 678 OFFCURVE",
"907 678 CURVE",
"907 700 LINE",
"701 700 LINE",
"494 153 LINE",
"285 700 LINE",
"74 700 LINE",
"74 678 LINE",
"102 678 OFFCURVE",
"119 659 OFFCURVE",
"120 636 CURVE",
"92 65 LINE",
"92 42 OFFCURVE",
"68 22 OFFCURVE",
"40 22 CURVE",
"40 0 LINE"
);
}
);
width = 982;
},
{
layerId = "A2D4E86B-AE4C-4A17-A9B1-46D900F500CD";
paths = (
{
closed = 1;
nodes = (
"126 0 LINE",
"130 22 LINE",
"102 22 OFFCURVE",
"89 42 OFFCURVE",
"93 65 CURVE",
"230 564 LINE",
"315 27 LINE",
"394 28 LINE",
"718 599 LINE",
"635 65 LINE",
"631 42 OFFCURVE",
"608 22 OFFCURVE",
"580 22 CURVE",
"576 0 LINE",
"752 0 LINE",
"756 22 LINE",
"728 22 OFFCURVE",
"715 42 OFFCURVE",
"719 65 CURVE",
"806 635 LINE",
"810 658 OFFCURVE",
"833 678 OFFCURVE",
"861 678 CURVE",
"865 700 LINE",
"728 700 LINE",
"386 99 LINE",
"289 700 LINE",
"173 700 LINE",
"169 678 LINE",
"197 678 OFFCURVE",
"210 659 OFFCURVE",
"206 636 CURVE",
"47 65 LINE",
"43 42 OFFCURVE",
"20 22 OFFCURVE",
"-8 22 CURVE",
"-12 0 LINE"
);
}
);
width = 845;
},
{
layerId = "01F24223-DBC3-4147-9700-0A3055B7ADEF";
paths = (
{
closed = 1;
nodes = (
"173 0 LINE",
"177 22 LINE",
"152 22 OFFCURVE",
"139 42 OFFCURVE",
"143 65 CURVE",
"254 490 LINE",
"334 27 LINE",
"493 27 LINE",
"758 477 LINE",
"694 65 LINE",
"690 42 OFFCURVE",
"667 22 OFFCURVE",
"639 22 CURVE",
"635 0 LINE",
"890 0 LINE",
"894 22 LINE",
"866 22 OFFCURVE",
"853 42 OFFCURVE",
"857 65 CURVE",
"944 635 LINE",
"948 658 OFFCURVE",
"971 678 OFFCURVE",
"999 678 CURVE",
"1003 700 LINE",
"797 700 LINE",
"474 153 LINE",
"381 700 LINE",
"170 700 LINE",
"166 678 LINE",
"194 678 OFFCURVE",
"207 659 OFFCURVE",
"203 636 CURVE",
"53 65 LINE",
"49 42 OFFCURVE",
"20 22 OFFCURVE",
"-8 22 CURVE",
"-12 0 LINE"
);
}
);
width = 983;
}
);
unicode = 004D;
},
{
glyphname = N;
lastChange = "2022-02-17 18:30:50 +0000";
layers = (
{
layerId = "0F50FE64-90BD-4AD4-940A-DD271C654105";
paths = (
{
closed = 1;
nodes = (
"512 648 LINE",
"512 120 LINE",
"163 700 LINE",
"86 700 LINE",
"86 49 LINE",
"146 49 LINE",
"146 565 LINE",
"487 0 LINE",
"572 0 LINE",
"572 648 LINE"
);
},
{
closed = 1;
nodes = (
"86 65 LINE",
"86 42 OFFCURVE",
"68 22 OFFCURVE",
"40 22 CURVE",
"40 0 LINE",
"192 0 LINE",
"192 22 LINE",
"164 22 OFFCURVE",
"146 42 OFFCURVE",
"146 65 CURVE"
);
},
{
closed = 1;
nodes = (
"572 635 LINE",
"572 658 OFFCURVE",
"590 678 OFFCURVE",
"618 678 CURVE",
"618 700 LINE",
"466 700 LINE",
"466 678 LINE",
"494 678 OFFCURVE",
"512 658 OFFCURVE",
"512 635 CURVE"
);
},
{
closed = 1;
nodes = (
"108 635 LINE",
"108 658 OFFCURVE",
"126 678 OFFCURVE",
"154 678 CURVE",
"154 700 LINE",
"40 700 LINE",
"40 678 LINE",
"68 678 OFFCURVE",
"86 658 OFFCURVE",
"86 635 CURVE"
);
}
);
width = 658;
},
{
layerId = "78443275-C7CF-46E0-B20A-E99834DDCE81";
paths = (
{
closed = 1;
nodes = (
"552 648 LINE",
"552 160 LINE",
"243 700 LINE",
"86 700 LINE",
"86 49 LINE",
"186 49 LINE",
"186 525 LINE",
"487 0 LINE",
"652 0 LINE",
"652 648 LINE"
);
},
{
closed = 1;
nodes = (
"86 65 LINE",
"86 42 OFFCURVE",
"68 22 OFFCURVE",
"40 22 CURVE",
"40 0 LINE",
"232 0 LINE",
"232 22 LINE",
"204 22 OFFCURVE",
"186 42 OFFCURVE",
"186 65 CURVE"
);
},
{
closed = 1;
nodes = (
"652 635 LINE",
"652 658 OFFCURVE",
"670 678 OFFCURVE",
"698 678 CURVE",
"698 700 LINE",
"506 700 LINE",
"506 678 LINE",
"534 678 OFFCURVE",
"552 658 OFFCURVE",
"552 635 CURVE"
);
},
{
closed = 1;
nodes = (
"108 635 LINE",
"108 658 OFFCURVE",
"126 678 OFFCURVE",
"154 678 CURVE",
"154 700 LINE",
"40 700 LINE",
"40 678 LINE",
"68 678 OFFCURVE",
"86 658 OFFCURVE",
"86 635 CURVE"
);
}
);
width = 738;
},
{
layerId = "A2D4E86B-AE4C-4A17-A9B1-46D900F500CD";
paths = (
{
closed = 1;
nodes = (
"598 648 LINE",
"485 120 LINE",
"260 700 LINE",
"183 700 LINE",
"44 49 LINE",
"104 49 LINE",
"214 565 LINE",
"435 0 LINE",
"520 0 LINE",
"658 648 LINE"
);
},
{
closed = 1;
nodes = (
"48 65 LINE",
"43 42 OFFCURVE",
"20 22 OFFCURVE",
"-8 22 CURVE",
"-12 0 LINE",
"140 0 LINE",
"144 22 LINE",
"116 22 OFFCURVE",
"103 42 OFFCURVE",
"108 65 CURVE"
);
},
{
closed = 1;
nodes = (
"655 635 LINE",
"660 658 OFFCURVE",
"682 678 OFFCURVE",
"710 678 CURVE",
"715 700 LINE",
"563 700 LINE",
"558 678 LINE",
"586 678 OFFCURVE",
"600 658 OFFCURVE",
"595 635 CURVE"
);
},
{
closed = 1;
nodes = (
"191 635 LINE",
"196 658 OFFCURVE",
"218 678 OFFCURVE",
"246 678 CURVE",
"251 700 LINE",
"137 700 LINE",
"132 678 LINE",
"160 678 OFFCURVE",
"174 658 OFFCURVE",
"169 635 CURVE"
);
}
);
width = 659;
},
{
layerId = "01F24223-DBC3-4147-9700-0A3055B7ADEF";
paths = (
{
closed = 1;
nodes = (
"637 648 LINE",
"534 160 LINE",
"339 700 LINE",
"182 700 LINE",
"44 49 LINE",
"144 49 LINE",
"245 525 LINE",
"435 0 LINE",
"600 0 LINE",
"737 648 LINE"
);
},
{
closed = 1;
nodes = (
"47 65 LINE",
"43 42 OFFCURVE",
"20 22 OFFCURVE",
"-8 22 CURVE",
"-12 0 LINE",
"180 0 LINE",
"184 22 LINE",
"156 22 OFFCURVE",
"143 42 OFFCURVE",
"147 65 CURVE"
);
},
{
closed = 1;
nodes = (
"735 635 LINE",
"739 658 OFFCURVE",
"762 678 OFFCURVE",
"790 678 CURVE",
"794 700 LINE",
"602 700 LINE",
"598 678 LINE",
"626 678 OFFCURVE",
"639 658 OFFCURVE",
"635 635 CURVE"
);
},
{
closed = 1;
nodes = (
"191 635 LINE",
"195 658 OFFCURVE",
"218 678 OFFCURVE",
"246 678 CURVE",
"250 700 LINE",
"136 700 LINE",
"132 678 LINE",
"160 678 OFFCURVE",
"173 658 OFFCURVE",
"169 635 CURVE"
);
}
);
width = 739;
}
);
unicode = 004E;
},
{
glyphname = Ntilde;
lastChange = "2022-02-15 21:56:47 +0000";
layers = (
{
layerId = "0F50FE64-90BD-4AD4-940A-DD271C654105";
paths = (
{
closed = 1;
nodes = (
"512 648 LINE",
"512 120 LINE",
"163 700 LINE",
"86 700 LINE",
"86 49 LINE",
"146 49 LINE",
"146 565 LINE",
"487 0 LINE",
"572 0 LINE",
"572 648 LINE"
);
},
{
closed = 1;
nodes = (
"86 65 LINE",
"86 42 OFFCURVE",
"68 22 OFFCURVE",
"40 22 CURVE",
"40 0 LINE",
"192 0 LINE",
"192 22 LINE",
"164 22 OFFCURVE",
"146 42 OFFCURVE",
"146 65 CURVE"
);
},
{
closed = 1;
nodes = (
"572 635 LINE",
"572 658 OFFCURVE",
"590 678 OFFCURVE",
"618 678 CURVE",
"618 700 LINE",
"466 700 LINE",
"466 678 LINE",
"494 678 OFFCURVE",
"512 658 OFFCURVE",
"512 635 CURVE"
);
},
{
closed = 1;
nodes = (
"108 635 LINE",
"108 658 OFFCURVE",
"126 678 OFFCURVE",
"154 678 CURVE",
"154 700 LINE",
"40 700 LINE",
"40 678 LINE",
"68 678 OFFCURVE",
"86 658 OFFCURVE",
"86 635 CURVE"
);
},
{
closed = 1;
nodes = (
"515 837 OFFCURVE",
"470 801 OFFCURVE",
"413 800 CURVE SMOOTH",
"358 799 OFFCURVE",
"322 860 OFFCURVE",
"266 860 CURVE SMOOTH",
"208 860 OFFCURVE",
"162 805 OFFCURVE",
"122 766 CURVE",
"122 731 LINE",
"181 764 OFFCURVE",
"208 800 OFFCURVE",
"267 800 CURVE SMOOTH",
"322 800 OFFCURVE",
"363 740 OFFCURVE",
"412 740 CURVE SMOOTH",
"470 740 OFFCURVE",
"518 789 OFFCURVE",
"558 825 CURVE",
"558 860 LINE"
);
}
);
width = 658;
},
{
layerId = "78443275-C7CF-46E0-B20A-E99834DDCE81";
paths = (
{
closed = 1;
nodes = (
"552 648 LINE",
"552 160 LINE",
"243 700 LINE",
"86 700 LINE",
"86 49 LINE",
"186 49 LINE",
"186 525 LINE",
"487 0 LINE",
"652 0 LINE",
"652 648 LINE"
);
},
{
closed = 1;
nodes = (
"86 65 LINE",
"86 42 OFFCURVE",
"68 22 OFFCURVE",
"40 22 CURVE",
"40 0 LINE",
"232 0 LINE",
"232 22 LINE",
"204 22 OFFCURVE",
"186 42 OFFCURVE",
"186 65 CURVE"
);
},
{
closed = 1;
nodes = (
"652 635 LINE",
"652 658 OFFCURVE",
"670 678 OFFCURVE",
"698 678 CURVE",
"698 700 LINE",
"506 700 LINE",
"506 678 LINE",
"534 678 OFFCURVE",
"552 658 OFFCURVE",
"552 635 CURVE"
);
},
{
closed = 1;
nodes = (
"108 635 LINE",
"108 658 OFFCURVE",
"126 678 OFFCURVE",
"154 678 CURVE",
"154 700 LINE",
"40 700 LINE",
"40 678 LINE",
"68 678 OFFCURVE",
"86 658 OFFCURVE",
"86 635 CURVE"
);
},
{
closed = 1;
nodes = (
"562 850 OFFCURVE",
"517 834 OFFCURVE",
"460 833 CURVE SMOOTH",
"405 832 OFFCURVE",
"368 873 OFFCURVE",
"313 873 CURVE SMOOTH",
"255 873 OFFCURVE",
"209 838 OFFCURVE",
"169 799 CURVE",
"169 724 LINE",
"228 757 OFFCURVE",
"255 773 OFFCURVE",
"314 773 CURVE SMOOTH",
"368 773 OFFCURVE",
"410 733 OFFCURVE",
"459 733 CURVE SMOOTH",
"517 733 OFFCURVE",
"565 762 OFFCURVE",
"605 798 CURVE",
"605 873 LINE"
);
}
);
width = 738;
},
{
layerId = "A2D4E86B-AE4C-4A17-A9B1-46D900F500CD";
paths = (
{
closed = 1;
nodes = (
"597 648 LINE",
"485 120 LINE",
"259 700 LINE",
"182 700 LINE",
"44 49 LINE",
"104 49 LINE",
"214 565 LINE",
"435 0 LINE",
"520 0 LINE",
"657 648 LINE"
);
},
{
closed = 1;
nodes = (
"47 65 LINE",
"43 42 OFFCURVE",
"20 22 OFFCURVE",
"-8 22 CURVE",
"-12 0 LINE",
"140 0 LINE",
"144 22 LINE",
"116 22 OFFCURVE",
"103 42 OFFCURVE",
"107 65 CURVE"
);
},
{
closed = 1;
nodes = (
"655 635 LINE",
"659 658 OFFCURVE",
"682 678 OFFCURVE",
"710 678 CURVE",
"714 700 LINE",
"562 700 LINE",
"558 678 LINE",
"586 678 OFFCURVE",
"599 658 OFFCURVE",
"595 635 CURVE"
);
},
{
closed = 1;
nodes = (
"191 635 LINE",
"195 658 OFFCURVE",
"218 678 OFFCURVE",
"246 678 CURVE",
"250 700 LINE",
"136 700 LINE",
"132 678 LINE",
"160 678 OFFCURVE",
"173 658 OFFCURVE",
"169 635 CURVE"
);
},
{
closed = 1;
nodes = (
"641 837 OFFCURVE",
"588 801 OFFCURVE",
"531 800 CURVE SMOOTH",
"475 799 OFFCURVE",
"452 860 OFFCURVE",
"396 860 CURVE SMOOTH",
"338 860 OFFCURVE",
"281 805 OFFCURVE",
"232 766 CURVE",
"225 731 LINE",
"291 764 OFFCURVE",
"326 800 OFFCURVE",
"385 800 CURVE SMOOTH",
"440 800 OFFCURVE",
"468 740 OFFCURVE",
"517 740 CURVE SMOOTH",
"575 740 OFFCURVE",
"633 789 OFFCURVE",
"681 825 CURVE",
"688 860 LINE"
);
}
);
width = 659;
},
{
layerId = "01F24223-DBC3-4147-9700-0A3055B7ADEF";
paths = (
{
closed = 1;
nodes = (
"690 648 LINE",
"586 160 LINE",
"392 700 LINE",
"235 700 LINE",
"97 49 LINE",
"197 49 LINE",
"298 525 LINE",
"487 0 LINE",
"652 0 LINE",
"790 648 LINE"
);
},
{
closed = 1;
nodes = (
"100 65 LINE",
"95 42 OFFCURVE",
"73 22 OFFCURVE",
"45 22 CURVE",
"40 0 LINE",
"232 0 LINE",
"237 22 LINE",
"209 22 OFFCURVE",
"195 42 OFFCURVE",
"200 65 CURVE"
);
},
{
closed = 1;
nodes = (
"787 635 LINE",
"792 658 OFFCURVE",
"814 678 OFFCURVE",
"842 678 CURVE",
"847 700 LINE",
"655 700 LINE",
"650 678 LINE",
"678 678 OFFCURVE",
"692 658 OFFCURVE",
"687 635 CURVE"
);
},
{
closed = 1;
nodes = (
"243 635 LINE",
"248 658 OFFCURVE",
"270 678 OFFCURVE",
"298 678 CURVE",
"303 700 LINE",
"189 700 LINE",
"184 678 LINE",
"212 678 OFFCURVE",
"226 658 OFFCURVE",
"221 635 CURVE"
);
},
{
closed = 1;
nodes = (
"743 850 OFFCURVE",
"694 834 OFFCURVE",
"637 833 CURVE SMOOTH",
"582 832 OFFCURVE",
"554 873 OFFCURVE",
"499 873 CURVE SMOOTH",
"441 873 OFFCURVE",
"387 838 OFFCURVE",
"339 799 CURVE",
"323 724 LINE",
"389 757 OFFCURVE",
"420 773 OFFCURVE",
"479 773 CURVE SMOOTH",
"533 773 OFFCURVE",
"566 733 OFFCURVE",
"615 733 CURVE SMOOTH",
"673 733 OFFCURVE",
"727 762 OFFCURVE",
"775 798 CURVE",
"791 873 LINE"
);
}
);
width = 887;
}
);
unicode = 00D1;
},
{
glyphname = O;
lastChange = "2022-06-13 17:31:04 +0000";
layers = (
{
layerId = "0F50FE64-90BD-4AD4-940A-DD271C654105";
paths = (
{
closed = 1;
nodes = (
"203 719 OFFCURVE",
"40 601 OFFCURVE",
"40 353 CURVE",
"40 103 OFFCURVE",
"203 -15 OFFCURVE",
"403 -15 CURVE",
"609 -15 OFFCURVE",
"766 103 OFFCURVE",
"766 353 CURVE",
"766 601 OFFCURVE",
"609 719 OFFCURVE",
"403 719 CURVE"
);
},
{
closed = 1;
nodes = (
"248 30 OFFCURVE",
"130 135 OFFCURVE",
"130 353 CURVE",
"130 573 OFFCURVE",
"249 674 OFFCURVE",
"403 674 CURVE",
"558 674 OFFCURVE",
"676 573 OFFCURVE",
"676 353 CURVE",
"676 135 OFFCURVE",
"559 30 OFFCURVE",
"403 30 CURVE"
);
}
);
width = 806;
},
{
associatedMasterId = "0F50FE64-90BD-4AD4-940A-DD271C654105";
layerId = "774D04F8-5F12-4FA7-B13E-53690F1A2F25";
name = "Mar 24 19, 13:36";
paths = (
{
closed = 1;
nodes = (
"91 719 OFFCURVE",
"23 601 OFFCURVE",
"23 353 CURVE",
"23 103 OFFCURVE",
"91 -15 OFFCURVE",
"326 -15 CURVE",
"562 -15 OFFCURVE",
"629 103 OFFCURVE",
"629 353 CURVE",
"629 601 OFFCURVE",
"562 719 OFFCURVE",
"326 719 CURVE"
);
},
{
closed = 1;
nodes = (
"141 30 OFFCURVE",
"113 135 OFFCURVE",
"113 353 CURVE",
"113 573 OFFCURVE",
"142 674 OFFCURVE",
"326 674 CURVE",
"511 674 OFFCURVE",
"539 573 OFFCURVE",
"539 353 CURVE",
"539 135 OFFCURVE",
"512 30 OFFCURVE",
"326 30 CURVE"
);
}
);
width = 664;
},
{
layerId = "78443275-C7CF-46E0-B20A-E99834DDCE81";
paths = (
{
closed = 1;
nodes = (
"203 719 OFFCURVE",
"40 601 OFFCURVE",
"40 353 CURVE",
"40 103 OFFCURVE",
"203 -15 OFFCURVE",
"403 -15 CURVE",
"609 -15 OFFCURVE",
"766 103 OFFCURVE",
"766 353 CURVE",
"766 601 OFFCURVE",
"609 719 OFFCURVE",
"403 719 CURVE"
);
},
{
closed = 1;
nodes = (
"278 70 OFFCURVE",
"220 175 OFFCURVE",
"220 353 CURVE",
"220 533 OFFCURVE",
"269 634 OFFCURVE",
"403 634 CURVE",
"538 634 OFFCURVE",
"586 533 OFFCURVE",
"586 353 CURVE",
"586 175 OFFCURVE",
"539 70 OFFCURVE",
"403 70 CURVE"
);
}
);
width = 806;
},
{
layerId = "A2D4E86B-AE4C-4A17-A9B1-46D900F500CD";
paths = (
{
closed = 1;
nodes = (
"303 719 OFFCURVE",
"115 601 OFFCURVE",
"62 353 CURVE",
"9 103 OFFCURVE",
"147 -15 OFFCURVE",
"347 -15 CURVE",
"553 -15 OFFCURVE",
"735 103 OFFCURVE",
"788 353 CURVE",
"841 601 OFFCURVE",
"709 719 OFFCURVE",
"503 719 CURVE"
);
},
{
closed = 1;
nodes = (
"201 30 OFFCURVE",
"106 135 OFFCURVE",
"152 353 CURVE",
"199 573 OFFCURVE",
"339 674 OFFCURVE",
"493 674 CURVE",
"648 674 OFFCURVE",
"745 573 OFFCURVE",
"698 353 CURVE",
"652 135 OFFCURVE",
"512 30 OFFCURVE",
"356 30 CURVE"
);
}
);
width = 806;
},
{
layerId = "01F24223-DBC3-4147-9700-0A3055B7ADEF";
paths = (
{
closed = 1;
nodes = (
"303 719 OFFCURVE",
"115 601 OFFCURVE",
"62 353 CURVE",
"9 103 OFFCURVE",
"147 -15 OFFCURVE",
"347 -15 CURVE",
"553 -15 OFFCURVE",
"735 103 OFFCURVE",
"788 353 CURVE",
"841 601 OFFCURVE",
"709 719 OFFCURVE",
"503 719 CURVE"
);
},
{
closed = 1;
nodes = (
"240 70 OFFCURVE",
"204 175 OFFCURVE",
"242 353 CURVE",
"280 533 OFFCURVE",
"351 634 OFFCURVE",
"485 634 CURVE",
"620 634 OFFCURVE",
"646 533 OFFCURVE",
"608 353 CURVE",
"570 175 OFFCURVE",
"501 70 OFFCURVE",
"365 70 CURVE"
);
}
);
width = 806;
}
);
unicode = 004F;
},
{
glyphname = Oacute;
lastChange = "2022-02-15 21:57:50 +0000";
layers = (
{
layerId = "0F50FE64-90BD-4AD4-940A-DD271C654105";
paths = (
{
closed = 1;
nodes = (
"203 719 OFFCURVE",
"40 601 OFFCURVE",
"40 353 CURVE",
"40 103 OFFCURVE",
"203 -15 OFFCURVE",
"403 -15 CURVE",
"609 -15 OFFCURVE",
"766 103 OFFCURVE",
"766 353 CURVE",
"766 601 OFFCURVE",
"609 719 OFFCURVE",
"403 719 CURVE"
);
},
{
closed = 1;
nodes = (
"248 30 OFFCURVE",
"130 135 OFFCURVE",
"130 353 CURVE",
"130 573 OFFCURVE",
"249 674 OFFCURVE",
"403 674 CURVE",
"558 674 OFFCURVE",
"676 573 OFFCURVE",
"676 353 CURVE",
"676 135 OFFCURVE",
"559 30 OFFCURVE",
"403 30 CURVE"
);
},
{
closed = 1;
nodes = (
"431 740 LINE",
"537 882 LINE",
"453 882 LINE",
"386 740 LINE"
);
}
);
width = 806;
},
{
layerId = "78443275-C7CF-46E0-B20A-E99834DDCE81";
paths = (
{
closed = 1;
nodes = (
"203 719 OFFCURVE",
"40 601 OFFCURVE",
"40 353 CURVE",
"40 103 OFFCURVE",
"203 -15 OFFCURVE",
"403 -15 CURVE",
"609 -15 OFFCURVE",
"766 103 OFFCURVE",
"766 353 CURVE",
"766 601 OFFCURVE",
"609 719 OFFCURVE",
"403 719 CURVE"
);
},
{
closed = 1;
nodes = (
"248 70 OFFCURVE",
"220 175 OFFCURVE",
"220 353 CURVE",
"220 533 OFFCURVE",
"249 634 OFFCURVE",
"403 634 CURVE",
"558 634 OFFCURVE",
"586 533 OFFCURVE",
"586 353 CURVE",
"586 175 OFFCURVE",
"559 70 OFFCURVE",
"403 70 CURVE"
);
},
{
closed = 1;
nodes = (
"444 741 LINE",
"590 883 LINE",
"386 883 LINE",
"359 741 LINE"
);
}
);
width = 806;
},
{
layerId = "A2D4E86B-AE4C-4A17-A9B1-46D900F500CD";
paths = (
{
closed = 1;
nodes = (
"303 719 OFFCURVE",
"115 601 OFFCURVE",
"62 353 CURVE",
"9 103 OFFCURVE",
"147 -15 OFFCURVE",
"347 -15 CURVE",
"553 -15 OFFCURVE",
"735 103 OFFCURVE",
"788 353 CURVE",
"841 601 OFFCURVE",
"709 719 OFFCURVE",
"503 719 CURVE"
);
},
{
closed = 1;
nodes = (
"201 30 OFFCURVE",
"106 135 OFFCURVE",
"152 353 CURVE",
"199 573 OFFCURVE",
"339 674 OFFCURVE",
"493 674 CURVE",
"648 674 OFFCURVE",
"745 573 OFFCURVE",
"698 353 CURVE",
"652 135 OFFCURVE",
"512 30 OFFCURVE",
"356 30 CURVE"
);
},
{
closed = 1;
nodes = (
"538 745 LINE",
"674 887 LINE",
"590 887 LINE",
"493 745 LINE"
);
}
);
width = 806;
},
{
layerId = "01F24223-DBC3-4147-9700-0A3055B7ADEF";
paths = (
{
closed = 1;
nodes = (
"292 719 OFFCURVE",
"103 601 OFFCURVE",
"51 353 CURVE",
"-2 103 OFFCURVE",
"136 -15 OFFCURVE",
"336 -15 CURVE",
"542 -15 OFFCURVE",
"724 103 OFFCURVE",
"777 353 CURVE",
"829 601 OFFCURVE",
"698 719 OFFCURVE",
"492 719 CURVE"
);
},
{
closed = 1;
nodes = (
"199 70 OFFCURVE",
"193 175 OFFCURVE",
"231 353 CURVE",
"269 533 OFFCURVE",
"320 634 OFFCURVE",
"474 634 CURVE",
"629 634 OFFCURVE",
"635 533 OFFCURVE",
"597 353 CURVE",
"559 175 OFFCURVE",
"510 70 OFFCURVE",
"354 70 CURVE"
);
},
{
closed = 1;
nodes = (
"537 741 LINE",
"713 883 LINE",
"509 883 LINE",
"452 741 LINE"
);
}
);
width = 828;
}
);
unicode = 00D3;
},
{
glyphname = Ograve;
lastChange = "2022-02-15 22:00:33 +0000";
layers = (
{
components = (
{
name = O;
}
);
layerId = "0F50FE64-90BD-4AD4-940A-DD271C654105";
paths = (
{
closed = 1;
nodes = (
"354 894 LINE",
"270 894 LINE",
"376 752 LINE",
"421 752 LINE"
);
}
);
width = 806;
},
{
components = (
{
name = O;
}
);
layerId = "78443275-C7CF-46E0-B20A-E99834DDCE81";
paths = (
{
closed = 1;
nodes = (
"424 883 LINE",
"220 883 LINE",
"366 741 LINE",
"451 741 LINE"
);
}
);
width = 805;
},
{
components = (
{
name = O;
}
);
layerId = "A2D4E86B-AE4C-4A17-A9B1-46D900F500CD";
paths = (
{
closed = 1;
nodes = (
"503 882 LINE",
"419 882 LINE",
"495 740 LINE",
"540 740 LINE"
);
}
);
width = 806;
},
{
components = (
{
name = O;
}
);
layerId = "01F24223-DBC3-4147-9700-0A3055B7ADEF";
paths = (
{
closed = 1;
nodes = (
"539 883 LINE",
"335 883 LINE",
"451 741 LINE",
"536 741 LINE"
);
}
);
width = 829;
}
);
unicode = 00D2;
},
{
glyphname = Oslash;
lastChange = "2022-02-15 22:01:58 +0000";
layers = (
{
layerId = "0F50FE64-90BD-4AD4-940A-DD271C654105";
paths = (
{
closed = 1;
nodes = (
"205 719 OFFCURVE",
"42 601 OFFCURVE",
"42 353 CURVE",
"42 103 OFFCURVE",
"205 -15 OFFCURVE",
"405 -15 CURVE",
"611 -15 OFFCURVE",
"768 103 OFFCURVE",
"768 353 CURVE",
"768 601 OFFCURVE",
"611 719 OFFCURVE",
"405 719 CURVE"
);
},
{
closed = 1;
nodes = (
"250 30 OFFCURVE",
"132 135 OFFCURVE",
"132 353 CURVE",
"132 573 OFFCURVE",
"251 674 OFFCURVE",
"405 674 CURVE",
"560 674 OFFCURVE",
"678 573 OFFCURVE",
"678 353 CURVE",
"678 135 OFFCURVE",
"561 30 OFFCURVE",
"405 30 CURVE"
);
},
{
closed = 1;
nodes = (
"773 700 LINE",
"665 700 LINE",
"20 3 LINE",
"128 0 LINE"
);
}
);
width = 793;
},
{
layerId = "78443275-C7CF-46E0-B20A-E99834DDCE81";
paths = (
{
closed = 1;
nodes = (
"273 719 OFFCURVE",
"110 601 OFFCURVE",
"110 353 CURVE",
"110 103 OFFCURVE",
"273 -15 OFFCURVE",
"473 -15 CURVE",
"679 -15 OFFCURVE",
"836 103 OFFCURVE",
"836 353 CURVE",
"836 601 OFFCURVE",
"679 719 OFFCURVE",
"473 719 CURVE"
);
},
{
closed = 1;
nodes = (
"348 70 OFFCURVE",
"290 175 OFFCURVE",
"290 353 CURVE",
"290 533 OFFCURVE",
"339 634 OFFCURVE",
"473 634 CURVE",
"608 634 OFFCURVE",
"656 533 OFFCURVE",
"656 353 CURVE",
"656 175 OFFCURVE",
"609 70 OFFCURVE",
"473 70 CURVE"
);
},
{
closed = 1;
nodes = (
"917 700 LINE",
"707 700 LINE",
"19 2 LINE",
"234 -1 LINE"
);
}
);
width = 947;
},
{
layerId = "A2D4E86B-AE4C-4A17-A9B1-46D900F500CD";
paths = (
{
closed = 1;
nodes = (
"304 719 OFFCURVE",
"116 601 OFFCURVE",
"63 353 CURVE",
"10 103 OFFCURVE",
"148 -15 OFFCURVE",
"348 -15 CURVE",
"554 -15 OFFCURVE",
"736 103 OFFCURVE",
"789 353 CURVE",
"842 601 OFFCURVE",
"710 719 OFFCURVE",
"504 719 CURVE"
);
},
{
closed = 1;
nodes = (
"203 30 OFFCURVE",
"107 135 OFFCURVE",
"153 353 CURVE",
"200 573 OFFCURVE",
"340 674 OFFCURVE",
"494 674 CURVE",
"649 674 OFFCURVE",
"746 573 OFFCURVE",
"699 353 CURVE",
"653 135 OFFCURVE",
"514 30 OFFCURVE",
"358 30 CURVE"
);
},
{
closed = 1;
nodes = (
"868 700 LINE",
"760 700 LINE",
"-33 3 LINE",
"74 0 LINE"
);
}
);
width = 792;
},
{
layerId = "01F24223-DBC3-4147-9700-0A3055B7ADEF";
paths = (
{
closed = 1;
nodes = (
"446 719 OFFCURVE",
"258 601 OFFCURVE",
"205 353 CURVE",
"152 103 OFFCURVE",
"290 -15 OFFCURVE",
"490 -15 CURVE",
"696 -15 OFFCURVE",
"878 103 OFFCURVE",
"931 353 CURVE",
"984 601 OFFCURVE",
"852 719 OFFCURVE",
"646 719 CURVE"
);
},
{
closed = 1;
nodes = (
"383 70 OFFCURVE",
"347 175 OFFCURVE",
"385 353 CURVE",
"423 533 OFFCURVE",
"494 634 OFFCURVE",
"628 634 CURVE",
"763 634 OFFCURVE",
"789 533 OFFCURVE",
"751 353 CURVE",
"713 175 OFFCURVE",
"644 70 OFFCURVE",
"508 70 CURVE"
);
},
{
closed = 1;
nodes = (
"1086 700 LINE",
"876 700 LINE",
"40 2 LINE",
"254 -1 LINE"
);
}
);
width = 1126;
}
);
unicode = 00D8;
},
{
glyphname = Otilde;
lastChange = "2022-02-15 22:03:57 +0000";
layers = (
{
layerId = "0F50FE64-90BD-4AD4-940A-DD271C654105";
paths = (
{
closed = 1;
nodes = (
"203 719 OFFCURVE",
"40 601 OFFCURVE",
"40 353 CURVE",
"40 103 OFFCURVE",
"203 -15 OFFCURVE",
"403 -15 CURVE",
"609 -15 OFFCURVE",
"766 103 OFFCURVE",
"766 353 CURVE",
"766 601 OFFCURVE",
"609 719 OFFCURVE",
"403 719 CURVE"
);
},
{
closed = 1;
nodes = (
"248 30 OFFCURVE",
"130 135 OFFCURVE",
"130 353 CURVE",
"130 573 OFFCURVE",
"249 674 OFFCURVE",
"403 674 CURVE",
"558 674 OFFCURVE",
"676 573 OFFCURVE",
"676 353 CURVE",
"676 135 OFFCURVE",
"559 30 OFFCURVE",
"403 30 CURVE"
);
},
{
closed = 1;
nodes = (
"596 826 OFFCURVE",
"551 790 OFFCURVE",
"494 789 CURVE SMOOTH",
"439 788 OFFCURVE",
"403 849 OFFCURVE",
"347 849 CURVE SMOOTH",
"289 849 OFFCURVE",
"243 794 OFFCURVE",
"203 755 CURVE",
"203 720 LINE",
"262 753 OFFCURVE",
"289 789 OFFCURVE",
"348 789 CURVE SMOOTH",
"403 789 OFFCURVE",
"444 729 OFFCURVE",
"493 729 CURVE SMOOTH",
"551 729 OFFCURVE",
"599 778 OFFCURVE",
"639 814 CURVE",
"639 849 LINE"
);
}
);
width = 806;
},
{
layerId = "78443275-C7CF-46E0-B20A-E99834DDCE81";
paths = (
{
closed = 1;
nodes = (
"203 719 OFFCURVE",
"40 601 OFFCURVE",
"40 353 CURVE",
"40 103 OFFCURVE",
"203 -15 OFFCURVE",
"403 -15 CURVE",
"609 -15 OFFCURVE",
"766 103 OFFCURVE",
"766 353 CURVE",
"766 601 OFFCURVE",
"609 719 OFFCURVE",
"403 719 CURVE"
);
},
{
closed = 1;
nodes = (
"248 70 OFFCURVE",
"220 175 OFFCURVE",
"220 353 CURVE",
"220 533 OFFCURVE",
"249 634 OFFCURVE",
"403 634 CURVE",
"558 634 OFFCURVE",
"586 533 OFFCURVE",
"586 353 CURVE",
"586 175 OFFCURVE",
"559 70 OFFCURVE",
"403 70 CURVE"
);
},
{
closed = 1;
nodes = (
"616 850 OFFCURVE",
"571 834 OFFCURVE",
"514 833 CURVE SMOOTH",
"459 832 OFFCURVE",
"422 873 OFFCURVE",
"367 873 CURVE SMOOTH",
"309 873 OFFCURVE",
"263 838 OFFCURVE",
"223 799 CURVE",
"223 724 LINE",
"282 757 OFFCURVE",
"309 773 OFFCURVE",
"368 773 CURVE SMOOTH",
"422 773 OFFCURVE",
"464 733 OFFCURVE",
"513 733 CURVE SMOOTH",
"571 733 OFFCURVE",
"619 762 OFFCURVE",
"659 798 CURVE",
"659 873 LINE"
);
}
);
width = 806;
},
{
layerId = "A2D4E86B-AE4C-4A17-A9B1-46D900F500CD";
paths = (
{
closed = 1;
nodes = (
"303 719 OFFCURVE",
"115 601 OFFCURVE",
"62 353 CURVE",
"9 103 OFFCURVE",
"147 -15 OFFCURVE",
"347 -15 CURVE",
"553 -15 OFFCURVE",
"735 103 OFFCURVE",
"788 353 CURVE",
"841 601 OFFCURVE",
"709 719 OFFCURVE",
"503 719 CURVE"
);
},
{
closed = 1;
nodes = (
"201 30 OFFCURVE",
"106 135 OFFCURVE",
"152 353 CURVE",
"199 573 OFFCURVE",
"339 674 OFFCURVE",
"493 674 CURVE",
"648 674 OFFCURVE",
"745 573 OFFCURVE",
"698 353 CURVE",
"652 135 OFFCURVE",
"512 30 OFFCURVE",
"356 30 CURVE"
);
},
{
closed = 1;
nodes = (
"739 827 OFFCURVE",
"686 791 OFFCURVE",
"629 790 CURVE SMOOTH",
"574 789 OFFCURVE",
"551 850 OFFCURVE",
"495 850 CURVE SMOOTH",
"437 850 OFFCURVE",
"379 795 OFFCURVE",
"331 756 CURVE",
"323 721 LINE",
"389 754 OFFCURVE",
"424 790 OFFCURVE",
"483 790 CURVE SMOOTH",
"538 790 OFFCURVE",
"566 730 OFFCURVE",
"615 730 CURVE SMOOTH",
"673 730 OFFCURVE",
"732 779 OFFCURVE",
"779 815 CURVE",
"787 850 LINE"
);
}
);
width = 806;
},
{
layerId = "01F24223-DBC3-4147-9700-0A3055B7ADEF";
paths = (
{
closed = 1;
nodes = (
"292 719 OFFCURVE",
"104 601 OFFCURVE",
"51 353 CURVE SMOOTH",
"-2 103 OFFCURVE",
"136 -15 OFFCURVE",
"336 -15 CURVE SMOOTH",
"542 -15 OFFCURVE",
"724 103 OFFCURVE",
"777 353 CURVE SMOOTH",
"830 601 OFFCURVE",
"698 719 OFFCURVE",
"492 719 CURVE SMOOTH"
);
},
{
closed = 1;
nodes = (
"199 70 OFFCURVE",
"193 175 OFFCURVE",
"231 353 CURVE SMOOTH",
"269 533 OFFCURVE",
"320 634 OFFCURVE",
"474 634 CURVE SMOOTH",
"629 634 OFFCURVE",
"635 533 OFFCURVE",
"597 353 CURVE SMOOTH",
"559 175 OFFCURVE",
"510 70 OFFCURVE",
"354 70 CURVE SMOOTH"
);
},
{
closed = 1;
nodes = (
"707 850 OFFCURVE",
"659 834 OFFCURVE",
"601 833 CURVE SMOOTH",
"546 832 OFFCURVE",
"518 873 OFFCURVE",
"463 873 CURVE SMOOTH",
"405 873 OFFCURVE",
"351 838 OFFCURVE",
"303 799 CURVE",
"287 724 LINE",
"353 757 OFFCURVE",
"384 773 OFFCURVE",
"443 773 CURVE SMOOTH",
"497 773 OFFCURVE",
"530 733 OFFCURVE",
"579 733 CURVE SMOOTH",
"637 733 OFFCURVE",
"691 762 OFFCURVE",
"739 798 CURVE",
"755 873 LINE"
);
}
);
width = 829;
}
);
unicode = 00D5;
},
{
glyphname = OE;
lastChange = "2022-02-15 22:05:02 +0000";
layers = (
{
layerId = "0F50FE64-90BD-4AD4-940A-DD271C654105";
paths = (
{
closed = 1;
nodes = (
"183 719 OFFCURVE",
"20 601 OFFCURVE",
"20 353 CURVE",
"20 103 OFFCURVE",
"183 -15 OFFCURVE",
"383 -15 CURVE",
"589 -15 OFFCURVE",
"746 103 OFFCURVE",
"746 353 CURVE",
"746 601 OFFCURVE",
"589 719 OFFCURVE",
"383 719 CURVE"
);
},
{
closed = 1;
nodes = (
"228 30 OFFCURVE",
"110 135 OFFCURVE",
"110 353 CURVE",
"110 573 OFFCURVE",
"229 674 OFFCURVE",
"383 674 CURVE",
"538 674 OFFCURVE",
"656 573 OFFCURVE",
"656 353 CURVE",
"656 135 OFFCURVE",
"539 30 OFFCURVE",
"383 30 CURVE"
);
},
{
closed = 1;
nodes = (
"1011 655 LINE SMOOTH",
"1035 655 OFFCURVE",
"1055 636 OFFCURVE",
"1055 612 CURVE",
"1079 608 LINE",
"1079 700 LINE",
"616 700 LINE",
"616 677 LINE",
"620 677 LINE",
"644 677 OFFCURVE",
"663 658 OFFCURVE",
"663 634 CURVE",
"663 66 LINE",
"663 42 OFFCURVE",
"644 23 OFFCURVE",
"620 23 CURVE",
"616 22 LINE",
"616 0 LINE",
"1108 0 LINE",
"1108 92 LINE",
"1084 92 LINE",
"1084 88 LINE",
"1084 64 OFFCURVE",
"1064 45 OFFCURVE",
"1040 45 CURVE",
"747 45 LINE",
"747 91 LINE",
"747 282 LINE",
"746 324 LINE",
"852 324 LINE",
"878 324 OFFCURVE",
"899 303 OFFCURVE",
"899 277 CURVE",
"923 278 LINE",
"923 417 LINE",
"898 417 LINE",
"898 414 LINE",
"898 390 OFFCURVE",
"879 370 OFFCURVE",
"855 370 CURVE",
"747 370 LINE",
"747 383 LINE",
"747 612 LINE",
"746 655 LINE"
);
}
);
width = 1128;
},
{
layerId = "78443275-C7CF-46E0-B20A-E99834DDCE81";
paths = (
{
closed = 1;
nodes = (
"183 719 OFFCURVE",
"20 601 OFFCURVE",
"20 353 CURVE",
"20 103 OFFCURVE",
"183 -15 OFFCURVE",
"383 -15 CURVE",
"589 -15 OFFCURVE",
"746 103 OFFCURVE",
"746 353 CURVE",
"746 601 OFFCURVE",
"589 719 OFFCURVE",
"383 719 CURVE"
);
},
{
closed = 1;
nodes = (
"228 70 OFFCURVE",
"200 175 OFFCURVE",
"200 353 CURVE",
"200 533 OFFCURVE",
"229 634 OFFCURVE",
"383 634 CURVE",
"538 634 OFFCURVE",
"566 533 OFFCURVE",
"566 353 CURVE",
"566 175 OFFCURVE",
"539 70 OFFCURVE",
"383 70 CURVE"
);
},
{
closed = 1;
nodes = (
"1110 614 LINE SMOOTH",
"1134 614 OFFCURVE",
"1154 595 OFFCURVE",
"1154 571 CURVE",
"1178 567 LINE",
"1178 700 LINE",
"635 700 LINE",
"635 677 LINE",
"639 677 LINE",
"663 677 OFFCURVE",
"682 658 OFFCURVE",
"682 634 CURVE",
"682 66 LINE",
"682 42 OFFCURVE",
"663 23 OFFCURVE",
"639 23 CURVE",
"635 22 LINE",
"635 0 LINE",
"1207 0 LINE",
"1207 133 LINE",
"1183 133 LINE",
"1183 129 LINE",
"1183 105 OFFCURVE",
"1163 86 OFFCURVE",
"1139 86 CURVE",
"846 86 LINE",
"846 132 LINE",
"846 262 LINE",
"845 304 LINE",
"951 304 LINE",
"977 304 OFFCURVE",
"998 283 OFFCURVE",
"998 257 CURVE",
"1022 258 LINE",
"1022 437 LINE",
"997 437 LINE",
"997 434 LINE",
"997 410 OFFCURVE",
"978 390 OFFCURVE",
"954 390 CURVE",
"846 390 LINE",
"846 403 LINE",
"846 571 LINE",
"845 614 LINE"
);
}
);
width = 1227;
},
{
layerId = "A2D4E86B-AE4C-4A17-A9B1-46D900F500CD";
paths = (
{
closed = 1;
nodes = (
"283 719 OFFCURVE",
"95 601 OFFCURVE",
"42 353 CURVE",
"-11 103 OFFCURVE",
"127 -15 OFFCURVE",
"327 -15 CURVE",
"533 -15 OFFCURVE",
"715 103 OFFCURVE",
"768 353 CURVE",
"821 601 OFFCURVE",
"689 719 OFFCURVE",
"483 719 CURVE"
);
},
{
closed = 1;
nodes = (
"181 30 OFFCURVE",
"86 135 OFFCURVE",
"132 353 CURVE",
"179 573 OFFCURVE",
"319 674 OFFCURVE",
"473 674 CURVE",
"628 674 OFFCURVE",
"725 573 OFFCURVE",
"678 353 CURVE",
"632 135 OFFCURVE",
"492 30 OFFCURVE",
"336 30 CURVE"
);
},
{
closed = 1;
nodes = (
"1098 655 LINE SMOOTH",
"1122 655 OFFCURVE",
"1138 636 OFFCURVE",
"1133 612 CURVE",
"1156 608 LINE",
"1175 700 LINE",
"712 700 LINE",
"708 677 LINE",
"712 677 LINE",
"736 677 OFFCURVE",
"751 658 OFFCURVE",
"746 634 CURVE",
"626 66 LINE",
"621 42 OFFCURVE",
"598 23 OFFCURVE",
"574 23 CURVE",
"570 22 LINE",
"566 0 LINE",
"1058 0 LINE",
"1077 92 LINE",
"1053 92 LINE",
"1052 88 LINE",
"1047 64 OFFCURVE",
"1023 45 OFFCURVE",
"999 45 CURVE",
"706 45 LINE",
"716 91 LINE",
"756 282 LINE",
"764 324 LINE",
"870 324 LINE",
"896 324 OFFCURVE",
"912 303 OFFCURVE",
"907 277 CURVE",
"931 278 LINE",
"960 417 LINE",
"935 417 LINE",
"934 414 LINE",
"929 390 OFFCURVE",
"906 370 OFFCURVE",
"882 370 CURVE",
"774 370 LINE",
"777 383 LINE",
"825 612 LINE",
"833 655 LINE"
);
}
);
width = 1131;
},
{
layerId = "01F24223-DBC3-4147-9700-0A3055B7ADEF";
paths = (
{
closed = 1;
nodes = (
"292 719 OFFCURVE",
"104 601 OFFCURVE",
"51 353 CURVE",
"-2 103 OFFCURVE",
"136 -15 OFFCURVE",
"336 -15 CURVE",
"542 -15 OFFCURVE",
"724 103 OFFCURVE",
"777 353 CURVE",
"830 601 OFFCURVE",
"698 719 OFFCURVE",
"492 719 CURVE"
);
},
{
closed = 1;
nodes = (
"199 70 OFFCURVE",
"193 175 OFFCURVE",
"231 353 CURVE",
"269 533 OFFCURVE",
"320 634 OFFCURVE",
"474 634 CURVE",
"629 634 OFFCURVE",
"635 533 OFFCURVE",
"597 353 CURVE",
"559 175 OFFCURVE",
"510 70 OFFCURVE",
"354 70 CURVE"
);
},
{
closed = 1;
nodes = (
"1197 614 LINE SMOOTH",
"1221 614 OFFCURVE",
"1237 595 OFFCURVE",
"1232 571 CURVE",
"1255 567 LINE",
"1283 700 LINE",
"740 700 LINE",
"735 677 LINE",
"739 677 LINE",
"763 677 OFFCURVE",
"778 658 OFFCURVE",
"773 634 CURVE",
"652 66 LINE",
"647 42 OFFCURVE",
"624 23 OFFCURVE",
"600 23 CURVE",
"596 22 LINE",
"591 0 LINE",
"1163 0 LINE",
"1191 133 LINE",
"1167 133 LINE",
"1167 129 LINE",
"1161 105 OFFCURVE",
"1137 86 OFFCURVE",
"1113 86 CURVE",
"820 86 LINE",
"830 132 LINE",
"858 262 LINE",
"866 304 LINE",
"972 304 LINE",
"998 304 OFFCURVE",
"1014 283 OFFCURVE",
"1009 257 CURVE",
"1033 258 LINE",
"1071 437 LINE",
"1046 437 LINE",
"1045 434 LINE",
"1040 410 OFFCURVE",
"1017 390 OFFCURVE",
"993 390 CURVE",
"885 390 LINE",
"888 403 LINE",
"924 571 LINE",
"932 614 LINE"
);
}
);
width = 1323;
}
);
unicode = 0152;
},
{
glyphname = P;
lastChange = "2022-06-13 15:30:50 +0000";
layers = (
{
layerId = "0F50FE64-90BD-4AD4-940A-DD271C654105";
paths = (
{
closed = 1;
nodes = (
"223 376 OFFCURVE",
"272 352 OFFCURVE",
"314 352 CURVE",
"495 352 OFFCURVE",
"591 415 OFFCURVE",
"591 530 CURVE SMOOTH",
"591 645 OFFCURVE",
"495 704 OFFCURVE",
"314 704 CURVE",
"167 704 OFFCURVE",
"46 700 OFFCURVE",
"40 700 CURVE",
"86 672 LINE",
"86 53 LINE",
"169 53 LINE",
"169 659 LINE",
"214 659 OFFCURVE",
"239 659 OFFCURVE",
"314 659 CURVE",
"451 659 OFFCURVE",
"501 606 OFFCURVE",
"501 521 CURVE SMOOTH",
"501 436 OFFCURVE",
"451 383 OFFCURVE",
"314 383 CURVE",
"259 383 OFFCURVE",
"234 384 OFFCURVE",
"208 384 CURVE"
);
},
{
closed = 1;
nodes = (
"143 635 LINE",
"143 658 OFFCURVE",
"161 678 OFFCURVE",
"189 678 CURVE",
"189 700 LINE",
"40 700 LINE",
"40 678 LINE",
"68 678 OFFCURVE",
"86 658 OFFCURVE",
"86 635 CURVE"
);
},
{
closed = 1;
nodes = (
"86 65 LINE",
"86 42 OFFCURVE",
"68 22 OFFCURVE",
"40 22 CURVE",
"40 0 LINE",
"215 0 LINE",
"215 22 LINE",
"187 22 OFFCURVE",
"169 42 OFFCURVE",
"169 65 CURVE"
);
}
);
width = 631;
},
{
layerId = "78443275-C7CF-46E0-B20A-E99834DDCE81";
paths = (
{
closed = 1;
nodes = (
"306 343 OFFCURVE",
"385 299 OFFCURVE",
"449 299 CURVE",
"619 299 OFFCURVE",
"661 399 OFFCURVE",
"661 501 CURVE SMOOTH",
"661 606 OFFCURVE",
"621 704 OFFCURVE",
"387 704 CURVE",
"252 704 OFFCURVE",
"46 700 OFFCURVE",
"40 700 CURVE",
"86 672 LINE",
"86 53 LINE",
"249 53 LINE",
"249 619 LINE",
"294 619 OFFCURVE",
"254 619 OFFCURVE",
"317 619 CURVE",
"471 619 OFFCURVE",
"491 580 OFFCURVE",
"491 516 CURVE SMOOTH",
"491 412 OFFCURVE",
"471 384 OFFCURVE",
"341 384 CURVE",
"296 384 OFFCURVE",
"257 384 OFFCURVE",
"252 384 CURVE"
);
},
{
closed = 1;
nodes = (
"223 635 LINE",
"223 658 OFFCURVE",
"241 678 OFFCURVE",
"269 678 CURVE",
"269 700 LINE",
"40 700 LINE",
"40 678 LINE",
"68 678 OFFCURVE",
"86 658 OFFCURVE",
"86 635 CURVE"
);
},
{
closed = 1;
nodes = (
"86 65 LINE",
"86 42 OFFCURVE",
"68 22 OFFCURVE",
"40 22 CURVE",
"40 0 LINE",
"295 0 LINE",
"295 22 LINE",
"267 22 OFFCURVE",
"249 42 OFFCURVE",
"249 65 CURVE"
);
}
);
width = 711;
},
{
associatedMasterId = "0F50FE64-90BD-4AD4-940A-DD271C654105";
components = (
{
name = serif01;
transform = "{1, 0, 0, 1, -188, 0}";
}
);
layerId = "6EA30949-9B24-4835-954A-603A719FE9CA";
name = "Apr 2 19, 21:39";
paths = (
{
closed = 1;
nodes = (
"143 339 LINE",
"316 339 LINE",
"496 339 OFFCURVE",
"576 406 OFFCURVE",
"576 528 CURVE SMOOTH",
"576 633 OFFCURVE",
"496 704 OFFCURVE",
"292 704 CURVE",
"157 704 OFFCURVE",
"30 700 OFFCURVE",
"24 700 CURVE",
"70 672 LINE",
"70 53 LINE",
"154 53 LINE",
"154 659 LINE",
"199 659 OFFCURVE",
"229 659 OFFCURVE",
"292 659 CURVE",
"446 659 OFFCURVE",
"486 608 OFFCURVE",
"486 528 CURVE SMOOTH",
"486 448 OFFCURVE",
"446 384 OFFCURVE",
"316 384 CURVE",
"303 384 OFFCURVE",
"224 384 OFFCURVE",
"143 384 CURVE"
);
},
{
closed = 1;
nodes = (
"128 635 LINE",
"128 658 OFFCURVE",
"146 678 OFFCURVE",
"174 678 CURVE",
"174 700 LINE",
"24 700 LINE",
"24 678 LINE",
"52 678 OFFCURVE",
"70 658 OFFCURVE",
"70 635 CURVE"
);
}
);
visible = 1;
width = 600;
},
{
layerId = "A2D4E86B-AE4C-4A17-A9B1-46D900F500CD";
paths = (
{
closed = 1;
nodes = (
"250 376 OFFCURVE",
"294 352 OFFCURVE",
"336 352 CURVE",
"517 352 OFFCURVE",
"626 415 OFFCURVE",
"651 530 CURVE SMOOTH",
"675 645 OFFCURVE",
"592 704 OFFCURVE",
"411 704 CURVE",
"264 704 OFFCURVE",
"142 700 OFFCURVE",
"136 700 CURVE",
"176 672 LINE",
"44 53 LINE",
"127 53 LINE",
"256 659 LINE",
"301 659 OFFCURVE",
"326 659 OFFCURVE",
"401 659 CURVE",
"538 659 OFFCURVE",
"577 606 OFFCURVE",
"559 521 CURVE SMOOTH",
"541 436 OFFCURVE",
"480 383 OFFCURVE",
"343 383 CURVE",
"288 383 OFFCURVE",
"263 384 OFFCURVE",
"237 384 CURVE"
);
},
{
closed = 1;
nodes = (
"225 635 LINE",
"230 658 OFFCURVE",
"252 678 OFFCURVE",
"280 678 CURVE",
"285 700 LINE",
"136 700 LINE",
"131 678 LINE",
"159 678 OFFCURVE",
"173 658 OFFCURVE",
"168 635 CURVE"
);
},
{
closed = 1;
nodes = (
"47 65 LINE",
"42 42 OFFCURVE",
"20 22 OFFCURVE",
"-8 22 CURVE",
"-13 0 LINE",
"162 0 LINE",
"167 22 LINE",
"139 22 OFFCURVE",
"125 42 OFFCURVE",
"130 65 CURVE"
);
}
);
width = 631;
},
{
layerId = "01F24223-DBC3-4147-9700-0A3055B7ADEF";
paths = (
{
closed = 1;
nodes = (
"326 343 OFFCURVE",
"396 299 OFFCURVE",
"460 299 CURVE",
"630 299 OFFCURVE",
"693 399 OFFCURVE",
"715 501 CURVE SMOOTH",
"737 606 OFFCURVE",
"718 704 OFFCURVE",
"484 704 CURVE",
"349 704 OFFCURVE",
"142 700 OFFCURVE",
"136 700 CURVE",
"176 672 LINE",
"44 53 LINE",
"207 53 LINE",
"328 619 LINE",
"373 619 OFFCURVE",
"333 619 OFFCURVE",
"396 619 CURVE",
"550 619 OFFCURVE",
"561 580 OFFCURVE",
"548 516 CURVE SMOOTH",
"526 412 OFFCURVE",
"500 384 OFFCURVE",
"370 384 CURVE",
"325 384 OFFCURVE",
"286 384 OFFCURVE",
"281 384 CURVE"
);
},
{
closed = 1;
nodes = (
"305 635 LINE",
"310 658 OFFCURVE",
"332 678 OFFCURVE",
"360 678 CURVE",
"365 700 LINE",
"136 700 LINE",
"131 678 LINE",
"159 678 OFFCURVE",
"173 658 OFFCURVE",
"168 635 CURVE"
);
},
{
closed = 1;
nodes = (
"47 65 LINE",
"42 42 OFFCURVE",
"20 22 OFFCURVE",
"-8 22 CURVE",
"-13 0 LINE",
"242 0 LINE",
"247 22 LINE",
"219 22 OFFCURVE",
"205 42 OFFCURVE",
"210 65 CURVE"
);
}
);
width = 702;
}
);
unicode = 0050;
},
{
glyphname = Thorn;
lastChange = "2022-02-24 22:10:26 +0000";
layers = (
{
layerId = "0F50FE64-90BD-4AD4-940A-DD271C654105";
paths = (
{
closed = 1;
nodes = (
"184 212 LINE",
"220 198 OFFCURVE",
"265 179 OFFCURVE",
"332 179 CURVE",
"502 179 OFFCURVE",
"592 234 OFFCURVE",
"592 356 CURVE SMOOTH",
"592 471 OFFCURVE",
"532 544 OFFCURVE",
"308 544 CURVE",
"261 544 OFFCURVE",
"210 544 OFFCURVE",
"170 544 CURVE",
"170 570 OFFCURVE",
"170 672 OFFCURVE",
"170 703 CURVE",
"98 702 OFFCURVE",
"44 700 OFFCURVE",
"40 700 CURVE",
"86 672 LINE",
"86 53 LINE",
"170 53 LINE",
"170 499 LINE",
"215 499 OFFCURVE",
"245 499 OFFCURVE",
"308 499 CURVE",
"462 499 OFFCURVE",
"502 446 OFFCURVE",
"502 356 CURVE SMOOTH",
"502 276 OFFCURVE",
"452 224 OFFCURVE",
"332 224 CURVE",
"265 224 OFFCURVE",
"210 224 OFFCURVE",
"184 224 CURVE"
);
},
{
closed = 1;
nodes = (
"144 635 LINE",
"144 658 OFFCURVE",
"144 678 OFFCURVE",
"162 678 CURVE",
"162 700 LINE",
"40 700 LINE",
"40 678 LINE",
"68 678 OFFCURVE",
"86 658 OFFCURVE",
"86 635 CURVE"
);
},
{
closed = 1;
nodes = (
"86 65 LINE",
"86 42 OFFCURVE",
"68 22 OFFCURVE",
"40 22 CURVE",
"40 0 LINE",
"216 0 LINE",
"216 22 LINE",
"188 22 OFFCURVE",
"170 42 OFFCURVE",
"170 65 CURVE"
);
}
);
width = 632;
},
{
layerId = "78443275-C7CF-46E0-B20A-E99834DDCE81";
paths = (
{
closed = 1;
nodes = (
"258 224 LINE",
"281 211 OFFCURVE",
"358 189 OFFCURVE",
"412 189 CURVE",
"582 189 OFFCURVE",
"672 244 OFFCURVE",
"672 366 CURVE SMOOTH",
"672 481 OFFCURVE",
"612 554 OFFCURVE",
"388 554 CURVE",
"348 554 OFFCURVE",
"295 554 OFFCURVE",
"249 553 CURVE",
"249 574 OFFCURVE",
"249 677 OFFCURVE",
"249 703 CURVE",
"144 702 OFFCURVE",
"44 700 OFFCURVE",
"40 700 CURVE",
"86 672 LINE",
"86 53 LINE",
"250 53 LINE",
"250 509 LINE",
"295 509 OFFCURVE",
"255 509 OFFCURVE",
"318 509 CURVE",
"472 509 OFFCURVE",
"492 456 OFFCURVE",
"492 366 CURVE SMOOTH",
"492 286 OFFCURVE",
"462 234 OFFCURVE",
"342 234 CURVE",
"267 234 OFFCURVE",
"263 234 OFFCURVE",
"258 234 CURVE"
);
},
{
closed = 1;
nodes = (
"224 635 LINE",
"224 658 OFFCURVE",
"229 678 OFFCURVE",
"242 678 CURVE",
"242 700 LINE",
"40 700 LINE",
"40 678 LINE",
"68 678 OFFCURVE",
"86 658 OFFCURVE",
"86 635 CURVE"
);
},
{
closed = 1;
nodes = (
"86 65 LINE",
"86 42 OFFCURVE",
"68 22 OFFCURVE",
"40 22 CURVE",
"40 0 LINE",
"296 0 LINE",
"296 22 LINE",
"268 22 OFFCURVE",
"250 42 OFFCURVE",
"250 65 CURVE"
);
}
);
width = 712;
},
{
layerId = "A2D4E86B-AE4C-4A17-A9B1-46D900F500CD";
paths = (
{
closed = 1;
nodes = (
"176 212 LINE",
"209 198 OFFCURVE",
"250 179 OFFCURVE",
"317 179 CURVE",
"487 179 OFFCURVE",
"589 234 OFFCURVE",
"615 356 CURVE SMOOTH",
"639 471 OFFCURVE",
"595 544 OFFCURVE",
"371 544 CURVE",
"324 544 OFFCURVE",
"273 544 OFFCURVE",
"233 544 CURVE",
"238 570 OFFCURVE",
"260 672 OFFCURVE",
"267 703 CURVE",
"195 702 OFFCURVE",
"140 700 OFFCURVE",
"136 700 CURVE",
"176 672 LINE",
"45 53 LINE",
"129 53 LINE",
"223 499 LINE",
"268 499 OFFCURVE",
"298 499 OFFCURVE",
"361 499 CURVE",
"515 499 OFFCURVE",
"544 446 OFFCURVE",
"525 356 CURVE SMOOTH",
"508 276 OFFCURVE",
"447 224 OFFCURVE",
"327 224 CURVE",
"260 224 OFFCURVE",
"205 224 OFFCURVE",
"179 224 CURVE"
);
},
{
closed = 1;
nodes = (
"226 635 LINE",
"231 658 OFFCURVE",
"237 678 OFFCURVE",
"253 678 CURVE",
"258 700 LINE",
"136 700 LINE",
"131 678 LINE",
"159 678 OFFCURVE",
"173 658 OFFCURVE",
"168 635 CURVE"
);
},
{
closed = 1;
nodes = (
"47 65 LINE",
"42 42 OFFCURVE",
"20 22 OFFCURVE",
"-8 22 CURVE",
"-13 0 LINE",
"163 0 LINE",
"168 22 LINE",
"140 22 OFFCURVE",
"126 42 OFFCURVE",
"131 65 CURVE"
);
}
);
width = 632;
},
{
layerId = "01F24223-DBC3-4147-9700-0A3055B7ADEF";
paths = (
{
closed = 1;
nodes = (
"306 224 LINE",
"326 211 OFFCURVE",
"398 189 OFFCURVE",
"452 189 CURVE",
"622 189 OFFCURVE",
"724 244 OFFCURVE",
"750 366 CURVE SMOOTH",
"775 481 OFFCURVE",
"730 554 OFFCURVE",
"506 554 CURVE",
"466 554 OFFCURVE",
"413 554 OFFCURVE",
"367 553 CURVE",
"371 574 OFFCURVE",
"393 677 OFFCURVE",
"399 703 CURVE",
"294 702 OFFCURVE",
"193 700 OFFCURVE",
"189 700 CURVE",
"229 672 LINE",
"98 53 LINE",
"262 53 LINE",
"358 509 LINE",
"403 509 OFFCURVE",
"363 509 OFFCURVE",
"426 509 CURVE",
"580 509 OFFCURVE",
"589 456 OFFCURVE",
"570 366 CURVE SMOOTH",
"553 286 OFFCURVE",
"512 234 OFFCURVE",
"392 234 CURVE",
"317 234 OFFCURVE",
"313 234 OFFCURVE",
"308 234 CURVE"
);
},
{
closed = 1;
nodes = (
"359 635 LINE",
"364 658 OFFCURVE",
"373 678 OFFCURVE",
"386 678 CURVE",
"391 700 LINE",
"189 700 LINE",
"184 678 LINE",
"212 678 OFFCURVE",
"226 658 OFFCURVE",
"221 635 CURVE"
);
},
{
closed = 1;
nodes = (
"100 65 LINE",
"95 42 OFFCURVE",
"73 22 OFFCURVE",
"45 22 CURVE",
"40 0 LINE",
"296 0 LINE",
"301 22 LINE",
"273 22 OFFCURVE",
"259 42 OFFCURVE",
"264 65 CURVE"
);
}
);
width = 796;
}
);
unicode = 00DE;
},
{
glyphname = Q;
lastChange = "2022-06-13 16:56:46 +0000";
layers = (
{
layerId = "0F50FE64-90BD-4AD4-940A-DD271C654105";
paths = (
{
closed = 1;
nodes = (
"527 -116 OFFCURVE",
"482 -17 OFFCURVE",
"482 26 CURVE",
"352 17 LINE",
"413 -68 OFFCURVE",
"547 -141 OFFCURVE",
"641 -141 CURVE",
"632 -116 LINE"
);
},
{
closed = 1;
nodes = (
"203 719 OFFCURVE",
"40 601 OFFCURVE",
"40 353 CURVE",
"40 103 OFFCURVE",
"203 -15 OFFCURVE",
"403 -15 CURVE",
"609 -15 OFFCURVE",
"766 103 OFFCURVE",
"766 353 CURVE",
"766 601 OFFCURVE",
"609 719 OFFCURVE",
"403 719 CURVE"
);
},
{
closed = 1;
nodes = (
"248 30 OFFCURVE",
"130 135 OFFCURVE",
"130 353 CURVE",
"130 573 OFFCURVE",
"249 674 OFFCURVE",
"403 674 CURVE",
"558 674 OFFCURVE",
"676 573 OFFCURVE",
"676 353 CURVE",
"676 135 OFFCURVE",
"559 30 OFFCURVE",
"403 30 CURVE"
);
}
);
width = 806;
},
{
layerId = "78443275-C7CF-46E0-B20A-E99834DDCE81";
paths = (
{
closed = 1;
nodes = (
"569 -127 OFFCURVE",
"523 -13 OFFCURVE",
"523 44 CURVE",
"353 16 LINE",
"414 -69 OFFCURVE",
"528 -152 OFFCURVE",
"662 -152 CURVE",
"653 -127 LINE"
);
},
{
closed = 1;
nodes = (
"203 719 OFFCURVE",
"40 601 OFFCURVE",
"40 353 CURVE",
"40 103 OFFCURVE",
"203 -15 OFFCURVE",
"403 -15 CURVE",
"609 -15 OFFCURVE",
"766 103 OFFCURVE",
"766 353 CURVE",
"766 601 OFFCURVE",
"609 719 OFFCURVE",
"403 719 CURVE"
);
},
{
closed = 1;
nodes = (
"278 70 OFFCURVE",
"220 175 OFFCURVE",
"220 353 CURVE",
"220 533 OFFCURVE",
"269 634 OFFCURVE",
"403 634 CURVE",
"538 634 OFFCURVE",
"586 533 OFFCURVE",
"586 353 CURVE",
"586 175 OFFCURVE",
"539 70 OFFCURVE",
"403 70 CURVE"
);
}
);
width = 806;
},
{
layerId = "A2D4E86B-AE4C-4A17-A9B1-46D900F500CD";
paths = (
{
closed = 1;
nodes = (
"449 -116 OFFCURVE",
"425 -17 OFFCURVE",
"434 26 CURVE",
"302 17 LINE",
"345 -68 OFFCURVE",
"464 -141 OFFCURVE",
"558 -141 CURVE",
"554 -116 LINE"
);
},
{
closed = 1;
nodes = (
"302 719 OFFCURVE",
"114 601 OFFCURVE",
"62 353 CURVE",
"8 103 OFFCURVE",
"146 -15 OFFCURVE",
"346 -15 CURVE",
"552 -15 OFFCURVE",
"734 103 OFFCURVE",
"788 353 CURVE",
"840 601 OFFCURVE",
"708 719 OFFCURVE",
"502 719 CURVE"
);
},
{
closed = 1;
nodes = (
"201 30 OFFCURVE",
"105 135 OFFCURVE",
"152 353 CURVE",
"198 573 OFFCURVE",
"339 674 OFFCURVE",
"493 674 CURVE",
"648 674 OFFCURVE",
"744 573 OFFCURVE",
"698 353 CURVE",
"651 135 OFFCURVE",
"512 30 OFFCURVE",
"356 30 CURVE"
);
}
);
width = 806;
},
{
layerId = "01F24223-DBC3-4147-9700-0A3055B7ADEF";
paths = (
{
closed = 1;
nodes = (
"489 -127 OFFCURVE",
"467 -13 OFFCURVE",
"479 44 CURVE",
"303 16 LINE",
"346 -69 OFFCURVE",
"442 -152 OFFCURVE",
"576 -152 CURVE",
"573 -127 LINE"
);
},
{
closed = 1;
nodes = (
"303 719 OFFCURVE",
"114 601 OFFCURVE",
"62 353 CURVE",
"9 103 OFFCURVE",
"147 -15 OFFCURVE",
"347 -15 CURVE",
"553 -15 OFFCURVE",
"735 103 OFFCURVE",
"788 353 CURVE",
"840 601 OFFCURVE",
"709 719 OFFCURVE",
"503 719 CURVE"
);
},
{
closed = 1;
nodes = (
"240 70 OFFCURVE",
"204 175 OFFCURVE",
"242 353 CURVE",
"280 533 OFFCURVE",
"351 634 OFFCURVE",
"485 634 CURVE",
"620 634 OFFCURVE",
"646 533 OFFCURVE",
"608 353 CURVE",
"570 175 OFFCURVE",
"501 70 OFFCURVE",
"365 70 CURVE"
);
}
);
width = 806;
}
);
unicode = 0051;
},
{
glyphname = R;
lastChange = "2022-06-14 17:48:31 +0000";
layers = (
{
layerId = "0F50FE64-90BD-4AD4-940A-DD271C654105";
paths = (
{
closed = 1;
nodes = (
"627 19 LINE",
"602 26 OFFCURVE",
"582 45 OFFCURVE",
"566 65 CURVE SMOOTH",
"332 352 LINE",
"512 352 OFFCURVE",
"592 419 OFFCURVE",
"592 521 CURVE SMOOTH",
"592 626 OFFCURVE",
"512 704 OFFCURVE",
"308 704 CURVE",
"41 700 LINE",
"41 678 LINE",
"69 678 OFFCURVE",
"87 658 OFFCURVE",
"87 635 CURVE SMOOTH",
"87 65 LINE SMOOTH",
"87 42 OFFCURVE",
"69 22 OFFCURVE",
"41 22 CURVE",
"41 0 LINE",
"216 0 LINE",
"216 22 LINE",
"188 22 OFFCURVE",
"170 42 OFFCURVE",
"170 65 CURVE SMOOTH",
"170 659 LINE",
"308 659 LINE SMOOTH",
"462 659 OFFCURVE",
"502 601 OFFCURVE",
"502 521 CURVE SMOOTH",
"502 431 OFFCURVE",
"462 384 OFFCURVE",
"332 384 CURVE SMOOTH",
"209 384 LINE",
"348 210 OFFCURVE",
"440 96 OFFCURVE",
"463 65 CURVE SMOOTH",
"487 34 OFFCURVE",
"482 22 OFFCURVE",
"437 22 CURVE",
"437 0 LINE",
"645 0 LINE"
);
}
);
width = 685;
},
{
layerId = "78443275-C7CF-46E0-B20A-E99834DDCE81";
paths = (
{
closed = 1;
nodes = (
"749 25 LINE",
"711 25 OFFCURVE",
"703 46 OFFCURVE",
"686 65 CURVE SMOOTH",
"452 332 LINE",
"622 332 OFFCURVE",
"662 398 OFFCURVE",
"662 500 CURVE SMOOTH",
"662 605 OFFCURVE",
"622 700 OFFCURVE",
"452 700 CURVE SMOOTH",
"41 700 LINE",
"41 678 LINE",
"69 678 OFFCURVE",
"87 658 OFFCURVE",
"87 635 CURVE SMOOTH",
"87 65 LINE SMOOTH",
"87 42 OFFCURVE",
"69 22 OFFCURVE",
"41 22 CURVE",
"41 0 LINE",
"296 0 LINE",
"296 22 LINE",
"268 22 OFFCURVE",
"250 42 OFFCURVE",
"250 65 CURVE SMOOTH",
"250 619 LINE",
"358 619 LINE SMOOTH",
"472 619 OFFCURVE",
"492 581 OFFCURVE",
"492 501 CURVE SMOOTH",
"492 411 OFFCURVE",
"472 384 OFFCURVE",
"342 384 CURVE SMOOTH",
"252 384 LINE",
"391 210 OFFCURVE",
"480 96 OFFCURVE",
"503 65 CURVE SMOOTH",
"527 34 OFFCURVE",
"522 22 OFFCURVE",
"477 22 CURVE",
"477 0 LINE",
"758 0 LINE"
);
}
);
width = 805;
},
{
layerId = "A2D4E86B-AE4C-4A17-A9B1-46D900F500CD";
paths = (
{
closed = 1;
nodes = (
"577 19 LINE",
"554 26 OFFCURVE",
"538 45 OFFCURVE",
"526 65 CURVE SMOOTH",
"353 352 LINE",
"533 352 OFFCURVE",
"627 419 OFFCURVE",
"649 521 CURVE SMOOTH",
"671 626 OFFCURVE",
"608 704 OFFCURVE",
"404 704 CURVE",
"136 700 LINE",
"131 678 LINE",
"159 678 OFFCURVE",
"173 658 OFFCURVE",
"168 635 CURVE SMOOTH",
"47 65 LINE SMOOTH",
"42 42 OFFCURVE",
"20 22 OFFCURVE",
"-8 22 CURVE",
"-13 0 LINE",
"162 0 LINE",
"167 22 LINE",
"139 22 OFFCURVE",
"125 42 OFFCURVE",
"130 65 CURVE SMOOTH",
"256 659 LINE",
"394 659 LINE SMOOTH",
"548 659 OFFCURVE",
"576 601 OFFCURVE",
"559 521 CURVE SMOOTH",
"540 431 OFFCURVE",
"490 384 OFFCURVE",
"360 384 CURVE SMOOTH",
"237 384 LINE",
"339 210 OFFCURVE",
"407 96 OFFCURVE",
"423 65 CURVE SMOOTH",
"440 34 OFFCURVE",
"433 22 OFFCURVE",
"388 22 CURVE",
"383 0 LINE",
"591 0 LINE"
);
}
);
width = 684;
},
{
layerId = "01F24223-DBC3-4147-9700-0A3055B7ADEF";
paths = (
{
closed = 1;
nodes = (
"702 25 LINE",
"664 25 OFFCURVE",
"660 46 OFFCURVE",
"647 65 CURVE SMOOTH",
"470 332 LINE",
"650 332 OFFCURVE",
"704 398 OFFCURVE",
"726 500 CURVE SMOOTH",
"748 605 OFFCURVE",
"728 700 OFFCURVE",
"548 700 CURVE SMOOTH",
"136 700 LINE",
"132 678 LINE",
"160 678 OFFCURVE",
"173 658 OFFCURVE",
"169 635 CURVE SMOOTH",
"47 65 LINE SMOOTH",
"43 42 OFFCURVE",
"20 22 OFFCURVE",
"-8 22 CURVE",
"-12 0 LINE",
"244 0 LINE",
"248 22 LINE",
"220 22 OFFCURVE",
"207 42 OFFCURVE",
"211 65 CURVE SMOOTH",
"329 619 LINE",
"437 619 LINE SMOOTH",
"551 619 OFFCURVE",
"563 581 OFFCURVE",
"546 501 CURVE SMOOTH",
"527 411 OFFCURVE",
"501 384 OFFCURVE",
"371 384 CURVE SMOOTH",
"281 384 LINE",
"383 210 OFFCURVE",
"448 96 OFFCURVE",
"464 65 CURVE SMOOTH",
"482 34 OFFCURVE",
"474 22 OFFCURVE",
"429 22 CURVE",
"425 0 LINE",
"706 0 LINE"
);
}
);
width = 799;
}
);
unicode = 0052;
},
{
glyphname = S;
lastChange = "2022-06-10 15:10:10 +0000";
layers = (
{
background = {
paths = (
{
closed = 1;
nodes = (
"342 379 OFFCURVE",
"241 413 OFFCURVE",
"213 425 CURVE SMOOTH",
"153 451 OFFCURVE",
"130 489 OFFCURVE",
"130 553 CURVE SMOOTH",
"130 613 OFFCURVE",
"186 675 OFFCURVE",
"307 675 CURVE SMOOTH",
"393 675 OFFCURVE",
"441 660 OFFCURVE",
"452 657 CURVE SMOOTH",
"473 651 OFFCURVE",
"487 632 OFFCURVE",
"487 611 CURVE SMOOTH",
"487 607 OFFCURVE",
"486 603 OFFCURVE",
"485 599 CURVE",
"509 594 LINE",
"532 677 LINE",
"542 683 OFFCURVE",
"454 705 OFFCURVE",
"464 702 CURVE",
"421 708 OFFCURVE",
"383 716 OFFCURVE",
"286 713 CURVE SMOOTH",
"164 709 OFFCURVE",
"46 658 OFFCURVE",
"46 542 CURVE SMOOTH",
"46 456 OFFCURVE",
"77 399 OFFCURVE",
"168 358 CURVE SMOOTH",
"230 330 OFFCURVE",
"307 309 OFFCURVE",
"367 280 CURVE",
"426 253 OFFCURVE",
"450 216 OFFCURVE",
"450 153 CURVE SMOOTH",
"450 88 OFFCURVE",
"394 26 OFFCURVE",
"273 26 CURVE SMOOTH",
"187 26 OFFCURVE",
"139 41 OFFCURVE",
"128 44 CURVE SMOOTH",
"107 50 OFFCURVE",
"93 69 OFFCURVE",
"93 90 CURVE SMOOTH",
"93 94 OFFCURVE",
"94 98 OFFCURVE",
"95 102 CURVE",
"71 107 LINE",
"52 4 LINE",
"86 4 OFFCURVE",
"161 -18 OFFCURVE",
"294 -12 CURVE SMOOTH",
"411 -7 OFFCURVE",
"534 43 OFFCURVE",
"534 164 CURVE SMOOTH",
"534 249 OFFCURVE",
"511 299 OFFCURVE",
"412 348 CURVE"
);
}
);
};
layerId = "0F50FE64-90BD-4AD4-940A-DD271C654105";
paths = (
{
closed = 1;
nodes = (
"242 422 LINE SMOOTH",
"174 453 OFFCURVE",
"150 489 OFFCURVE",
"150 538 CURVE SMOOTH",
"150 613 OFFCURVE",
"206 675 OFFCURVE",
"317 675 CURVE SMOOTH",
"392 675 OFFCURVE",
"451 648 OFFCURVE",
"465 599 CURVE",
"484 594 LINE",
"512 674 LINE",
"449 702 OFFCURVE",
"357 714 OFFCURVE",
"311 713 CURVE SMOOTH",
"184 710 OFFCURVE",
"66 657 OFFCURVE",
"66 529 CURVE SMOOTH",
"66 455 OFFCURVE",
"97 398 OFFCURVE",
"197 354 CURVE SMOOTH",
"349 287 LINE SMOOTH",
"426 253 OFFCURVE",
"450 216 OFFCURVE",
"450 163 CURVE SMOOTH",
"450 88 OFFCURVE",
"394 26 OFFCURVE",
"273 26 CURVE SMOOTH",
"195 26 OFFCURVE",
"107 50 OFFCURVE",
"103 133 CURVE",
"79 141 LINE",
"40 33 LINE",
"74 25 OFFCURVE",
"161 -18 OFFCURVE",
"294 -12 CURVE SMOOTH",
"411 -7 OFFCURVE",
"534 43 OFFCURVE",
"534 174 CURVE SMOOTH",
"534 249 OFFCURVE",
"497 308 OFFCURVE",
"385 358 CURVE SMOOTH"
);
}
);
width = 574;
},
{
associatedMasterId = "0F50FE64-90BD-4AD4-940A-DD271C654105";
layerId = "00D8ACEF-4956-41C1-8797-D00624AC03F4";
name = "Mar 24 19, 13:27";
paths = (
{
closed = 1;
nodes = (
"306 379 OFFCURVE",
"205 413 OFFCURVE",
"177 425 CURVE SMOOTH",
"117 451 OFFCURVE",
"94 489 OFFCURVE",
"94 553 CURVE SMOOTH",
"94 613 OFFCURVE",
"150 675 OFFCURVE",
"271 675 CURVE SMOOTH",
"357 675 OFFCURVE",
"405 660 OFFCURVE",
"416 657 CURVE SMOOTH",
"437 651 OFFCURVE",
"451 632 OFFCURVE",
"451 611 CURVE SMOOTH",
"451 607 OFFCURVE",
"450 603 OFFCURVE",
"449 599 CURVE",
"473 594 LINE",
"496 677 LINE",
"506 683 OFFCURVE",
"418 705 OFFCURVE",
"428 702 CURVE",
"385 708 OFFCURVE",
"347 716 OFFCURVE",
"250 713 CURVE SMOOTH",
"128 709 OFFCURVE",
"10 658 OFFCURVE",
"10 542 CURVE SMOOTH",
"10 456 OFFCURVE",
"41 399 OFFCURVE",
"132 358 CURVE SMOOTH",
"194 330 OFFCURVE",
"271 309 OFFCURVE",
"331 280 CURVE",
"390 253 OFFCURVE",
"414 216 OFFCURVE",
"414 153 CURVE SMOOTH",
"414 88 OFFCURVE",
"358 26 OFFCURVE",
"237 26 CURVE SMOOTH",
"151 26 OFFCURVE",
"103 41 OFFCURVE",
"92 44 CURVE SMOOTH",
"71 50 OFFCURVE",
"57 69 OFFCURVE",
"57 90 CURVE SMOOTH",
"57 94 OFFCURVE",
"58 98 OFFCURVE",
"59 102 CURVE",
"35 107 LINE",
"16 4 LINE",
"50 4 OFFCURVE",
"125 -18 OFFCURVE",
"258 -12 CURVE SMOOTH",
"375 -7 OFFCURVE",
"498 43 OFFCURVE",
"498 164 CURVE SMOOTH",
"498 249 OFFCURVE",
"475 299 OFFCURVE",
"376 348 CURVE"
);
}
);
width = 560;
},
{
layerId = "78443275-C7CF-46E0-B20A-E99834DDCE81";
paths = (
{
closed = 1;
nodes = (
"311 442 LINE SMOOTH",
"251 466 OFFCURVE",
"208 489 OFFCURVE",
"208 538 CURVE SMOOTH",
"208 613 OFFCURVE",
"264 635 OFFCURVE",
"355 635 CURVE SMOOTH",
"450 635 OFFCURVE",
"509 608 OFFCURVE",
"523 559 CURVE",
"554 547 LINE",
"592 657 LINE",
"529 685 OFFCURVE",
"415 714 OFFCURVE",
"349 713 CURVE SMOOTH",
"202 711 OFFCURVE",
"64 657 OFFCURVE",
"64 529 CURVE SMOOTH",
"64 415 OFFCURVE",
"121 350 OFFCURVE",
"255 298 CURVE SMOOTH",
"355 259 LINE SMOOTH",
"420 234 OFFCURVE",
"448 196 OFFCURVE",
"448 163 CURVE SMOOTH",
"448 88 OFFCURVE",
"392 66 OFFCURVE",
"311 66 CURVE SMOOTH",
"263 66 OFFCURVE",
"152 84 OFFCURVE",
"116 164 CURVE",
"76 177 LINE",
"40 30 LINE",
"74 22 OFFCURVE",
"199 -18 OFFCURVE",
"332 -12 CURVE SMOOTH",
"449 -7 OFFCURVE",
"592 43 OFFCURVE",
"592 174 CURVE SMOOTH",
"592 289 OFFCURVE",
"538 352 OFFCURVE",
"407 404 CURVE SMOOTH"
);
}
);
width = 632;
},
{
layerId = "A2D4E86B-AE4C-4A17-A9B1-46D900F500CD";
paths = (
{
closed = 1;
nodes = (
"278 422 LINE SMOOTH",
"217 453 OFFCURVE",
"200 489 OFFCURVE",
"211 538 CURVE SMOOTH",
"227 613 OFFCURVE",
"296 675 OFFCURVE",
"407 675 CURVE SMOOTH",
"482 675 OFFCURVE",
"535 648 OFFCURVE",
"539 599 CURVE",
"557 594 LINE",
"602 674 LINE",
"545 702 OFFCURVE",
"455 714 OFFCURVE",
"409 713 CURVE SMOOTH",
"281 710 OFFCURVE",
"152 657 OFFCURVE",
"125 529 CURVE SMOOTH",
"109 455 OFFCURVE",
"128 398 OFFCURVE",
"219 354 CURVE SMOOTH",
"357 287 LINE SMOOTH",
"426 253 OFFCURVE",
"442 216 OFFCURVE",
"431 163 CURVE SMOOTH",
"415 88 OFFCURVE",
"346 26 OFFCURVE",
"225 26 CURVE SMOOTH",
"147 26 OFFCURVE",
"32 52 OFFCURVE",
"56 133 CURVE",
"34 141 LINE",
"-6 33 LINE",
"26 25 OFFCURVE",
"104 -18 OFFCURVE",
"238 -12 CURVE SMOOTH",
"356 -7 OFFCURVE",
"490 43 OFFCURVE",
"518 174 CURVE SMOOTH",
"533 249 OFFCURVE",
"509 308 OFFCURVE",
"408 358 CURVE SMOOTH"
);
}
);
width = 574;
},
{
layerId = "01F24223-DBC3-4147-9700-0A3055B7ADEF";
paths = (
{
closed = 1;
nodes = (
"352 442 LINE SMOOTH",
"297 466 OFFCURVE",
"259 489 OFFCURVE",
"269 538 CURVE SMOOTH",
"285 613 OFFCURVE",
"346 635 OFFCURVE",
"437 635 CURVE SMOOTH",
"532 635 OFFCURVE",
"585 608 OFFCURVE",
"588 559 CURVE",
"617 547 LINE",
"678 657 LINE",
"621 685 OFFCURVE",
"513 714 OFFCURVE",
"447 713 CURVE SMOOTH",
"300 711 OFFCURVE",
"150 657 OFFCURVE",
"123 529 CURVE SMOOTH",
"99 415 OFFCURVE",
"142 350 OFFCURVE",
"265 298 CURVE SMOOTH",
"357 259 LINE SMOOTH",
"416 234 OFFCURVE",
"436 196 OFFCURVE",
"429 163 CURVE SMOOTH",
"413 88 OFFCURVE",
"353 66 OFFCURVE",
"272 66 CURVE SMOOTH",
"224 66 OFFCURVE",
"116 84 OFFCURVE",
"97 164 CURVE",
"60 177 LINE",
"-7 30 LINE",
"25 22 OFFCURVE",
"142 -18 OFFCURVE",
"276 -12 CURVE SMOOTH",
"394 -7 OFFCURVE",
"548 43 OFFCURVE",
"576 174 CURVE SMOOTH",
"600 289 OFFCURVE",
"559 352 OFFCURVE",
"439 404 CURVE SMOOTH"
);
}
);
width = 632;
}
);
unicode = 0053;
},
{
glyphname = T;
lastChange = "2022-06-14 16:11:58 +0000";
layers = (
{
layerId = "0F50FE64-90BD-4AD4-940A-DD271C654105";
paths = (
{
closed = 1;
nodes = (
"40 700 LINE",
"40 611 LINE",
"74 610 LINE",
"74 635 OFFCURVE",
"94 655 OFFCURVE",
"119 655 CURVE SMOOTH",
"330 655 LINE",
"330 66 LINE SMOOTH",
"330 42 OFFCURVE",
"310 23 OFFCURVE",
"286 23 CURVE SMOOTH",
"282 23 LINE",
"282 0 LINE",
"461 0 LINE",
"461 23 LINE",
"457 23 LINE SMOOTH",
"433 23 OFFCURVE",
"413 42 OFFCURVE",
"413 66 CURVE SMOOTH",
"414 655 LINE",
"625 654 LINE SMOOTH",
"650 654 OFFCURVE",
"670 634 OFFCURVE",
"670 609 CURVE",
"704 610 LINE",
"704 699 LINE"
);
}
);
width = 744;
},
{
layerId = "78443275-C7CF-46E0-B20A-E99834DDCE81";
paths = (
{
closed = 1;
nodes = (
"40 700 LINE",
"40 571 LINE",
"74 570 LINE",
"74 595 OFFCURVE",
"94 615 OFFCURVE",
"119 615 CURVE SMOOTH",
"290 615 LINE",
"290 66 LINE SMOOTH",
"290 42 OFFCURVE",
"270 23 OFFCURVE",
"246 23 CURVE SMOOTH",
"242 23 LINE",
"242 0 LINE",
"500 0 LINE",
"500 23 LINE",
"496 23 LINE SMOOTH",
"472 23 OFFCURVE",
"452 42 OFFCURVE",
"452 66 CURVE SMOOTH",
"453 615 LINE",
"624 614 LINE SMOOTH",
"649 614 OFFCURVE",
"669 594 OFFCURVE",
"669 569 CURVE",
"703 570 LINE",
"703 699 LINE"
);
}
);
width = 744;
},
{
layerId = "A2D4E86B-AE4C-4A17-A9B1-46D900F500CD";
paths = (
{
closed = 1;
nodes = (
"136 700 LINE",
"117 611 LINE",
"151 610 LINE",
"157 635 OFFCURVE",
"181 655 OFFCURVE",
"206 655 CURVE SMOOTH",
"417 655 LINE",
"292 66 LINE SMOOTH",
"287 42 OFFCURVE",
"262 23 OFFCURVE",
"238 23 CURVE SMOOTH",
"234 23 LINE",
"230 0 LINE",
"409 0 LINE",
"413 23 LINE",
"409 23 LINE SMOOTH",
"385 23 OFFCURVE",
"370 42 OFFCURVE",
"375 66 CURVE SMOOTH",
"501 655 LINE",
"712 654 LINE SMOOTH",
"737 654 OFFCURVE",
"752 634 OFFCURVE",
"747 609 CURVE",
"781 610 LINE",
"800 699 LINE"
);
}
);
width = 745;
},
{
layerId = "01F24223-DBC3-4147-9700-0A3055B7ADEF";
paths = (
{
closed = 1;
nodes = (
"136 700 LINE",
"109 571 LINE",
"143 570 LINE",
"148 595 OFFCURVE",
"172 615 OFFCURVE",
"197 615 CURVE SMOOTH",
"368 615 LINE",
"252 66 LINE SMOOTH",
"247 42 OFFCURVE",
"222 23 OFFCURVE",
"198 23 CURVE SMOOTH",
"194 23 LINE",
"190 0 LINE",
"449 0 LINE",
"453 23 LINE",
"449 23 LINE SMOOTH",
"425 23 OFFCURVE",
"410 42 OFFCURVE",
"415 66 CURVE SMOOTH",
"532 615 LINE",
"703 614 LINE SMOOTH",
"728 614 OFFCURVE",
"744 594 OFFCURVE",
"739 569 CURVE",
"773 570 LINE",
"800 699 LINE"
);
}
);
width = 745;
}
);
unicode = 0054;
},
{
glyphname = U;
lastChange = "2022-05-25 22:41:21 +0000";
layers = (
{
layerId = "0F50FE64-90BD-4AD4-940A-DD271C654105";
paths = (
{
closed = 1;
nodes = (
"535 651 LINE",
"535 564 OFFCURVE",
"535 291 OFFCURVE",
"535 210 CURVE",
"535 109 OFFCURVE",
"494 18 OFFCURVE",
"334 18 CURVE",
"188 18 OFFCURVE",
"172 139 OFFCURVE",
"172 205 CURVE",
"172 667 LINE",
"86 644 LINE",
"86 574 OFFCURVE",
"86 325 OFFCURVE",
"86 200 CURVE",
"86 49 OFFCURVE",
"178 -22 OFFCURVE",
"334 -22 CURVE",
"504 -22 OFFCURVE",
"585 53 OFFCURVE",
"585 200 CURVE",
"585 245 OFFCURVE",
"585 645 OFFCURVE",
"585 670 CURVE"
);
},
{
closed = 1;
nodes = (
"172 635 LINE",
"172 658 OFFCURVE",
"190 678 OFFCURVE",
"218 678 CURVE",
"218 700 LINE",
"40 700 LINE",
"40 678 LINE",
"68 678 OFFCURVE",
"86 658 OFFCURVE",
"86 635 CURVE"
);
},
{
closed = 1;
nodes = (
"585 635 LINE",
"585 658 OFFCURVE",
"603 678 OFFCURVE",
"631 678 CURVE",
"631 700 LINE",
"489 700 LINE",
"489 678 LINE",
"517 678 OFFCURVE",
"535 658 OFFCURVE",
"535 635 CURVE"
);
}
);
width = 671;
},
{
layerId = "78443275-C7CF-46E0-B20A-E99834DDCE81";
paths = (
{
closed = 1;
nodes = (
"555 651 LINE",
"555 564 OFFCURVE",
"555 331 OFFCURVE",
"555 250 CURVE",
"555 149 OFFCURVE",
"539 58 OFFCURVE",
"399 58 CURVE",
"273 58 OFFCURVE",
"252 179 OFFCURVE",
"252 245 CURVE",
"252 667 LINE",
"86 644 LINE",
"86 574 OFFCURVE",
"86 370 OFFCURVE",
"86 245 CURVE",
"86 44 OFFCURVE",
"183 -22 OFFCURVE",
"399 -22 CURVE",
"589 -22 OFFCURVE",
"645 78 OFFCURVE",
"645 245 CURVE",
"645 290 OFFCURVE",
"645 645 OFFCURVE",
"645 670 CURVE"
);
},
{
closed = 1;
nodes = (
"252 635 LINE",
"252 658 OFFCURVE",
"270 678 OFFCURVE",
"298 678 CURVE",
"298 700 LINE",
"40 700 LINE",
"40 678 LINE",
"68 678 OFFCURVE",
"86 658 OFFCURVE",
"86 635 CURVE"
);
},
{
closed = 1;
nodes = (
"645 635 LINE",
"645 658 OFFCURVE",
"663 678 OFFCURVE",
"691 678 CURVE",
"691 700 LINE",
"509 700 LINE",
"509 678 LINE",
"537 678 OFFCURVE",
"555 658 OFFCURVE",
"555 635 CURVE"
);
}
);
width = 731;
},
{
layerId = "A2D4E86B-AE4C-4A17-A9B1-46D900F500CD";
paths = (
{
closed = 1;
nodes = (
"621 651 LINE",
"602 564 OFFCURVE",
"545 291 OFFCURVE",
"526 210 CURVE",
"505 109 OFFCURVE",
"446 18 OFFCURVE",
"286 18 CURVE",
"140 18 OFFCURVE",
"148 139 OFFCURVE",
"162 205 CURVE",
"262 667 LINE",
"170 644 LINE",
"155 574 OFFCURVE",
"102 325 OFFCURVE",
"75 200 CURVE",
"43 49 OFFCURVE",
"121 -22 OFFCURVE",
"277 -22 CURVE",
"447 -22 OFFCURVE",
"544 53 OFFCURVE",
"574 200 CURVE",
"584 245 OFFCURVE",
"669 645 OFFCURVE",
"674 670 CURVE"
);
},
{
closed = 1;
nodes = (
"254 635 LINE",
"260 658 OFFCURVE",
"281 678 OFFCURVE",
"309 678 CURVE",
"315 700 LINE",
"137 700 LINE",
"131 678 LINE",
"159 678 OFFCURVE",
"174 658 OFFCURVE",
"168 635 CURVE"
);
},
{
closed = 1;
nodes = (
"667 635 LINE",
"673 658 OFFCURVE",
"694 678 OFFCURVE",
"722 678 CURVE",
"728 700 LINE",
"586 700 LINE",
"580 678 LINE",
"608 678 OFFCURVE",
"623 658 OFFCURVE",
"617 635 CURVE"
);
}
);
width = 672;
},
{
layerId = "01F24223-DBC3-4147-9700-0A3055B7ADEF";
paths = (
{
closed = 1;
nodes = (
"640 651 LINE",
"622 564 OFFCURVE",
"572 331 OFFCURVE",
"555 250 CURVE",
"534 149 OFFCURVE",
"498 58 OFFCURVE",
"358 58 CURVE",
"232 58 OFFCURVE",
"237 179 OFFCURVE",
"251 245 CURVE",
"341 667 LINE",
"170 644 LINE",
"155 574 OFFCURVE",
"112 370 OFFCURVE",
"85 245 CURVE",
"42 44 OFFCURVE",
"125 -22 OFFCURVE",
"341 -22 CURVE",
"531 -22 OFFCURVE",
"609 78 OFFCURVE",
"644 245 CURVE",
"654 290 OFFCURVE",
"729 645 OFFCURVE",
"734 670 CURVE"
);
},
{
closed = 1;
nodes = (
"334 635 LINE",
"339 658 OFFCURVE",
"361 678 OFFCURVE",
"389 678 CURVE",
"394 700 LINE",
"136 700 LINE",
"131 678 LINE",
"159 678 OFFCURVE",
"173 658 OFFCURVE",
"168 635 CURVE"
);
},
{
closed = 1;
nodes = (
"727 635 LINE",
"732 658 OFFCURVE",
"754 678 OFFCURVE",
"782 678 CURVE",
"787 700 LINE",
"605 700 LINE",
"600 678 LINE",
"628 678 OFFCURVE",
"642 658 OFFCURVE",
"637 635 CURVE"
);
}
);
width = 731;
}
);
unicode = 0055;
},
{
glyphname = Uacute;
lastChange = "2022-02-16 21:40:26 +0000";
layers = (
{
layerId = "0F50FE64-90BD-4AD4-940A-DD271C654105";
paths = (
{
closed = 1;
nodes = (
"535 651 LINE",
"535 564 OFFCURVE",
"535 291 OFFCURVE",
"535 210 CURVE",
"535 109 OFFCURVE",
"494 18 OFFCURVE",
"334 18 CURVE",
"188 18 OFFCURVE",
"172 139 OFFCURVE",
"172 205 CURVE",
"172 667 LINE",
"86 644 LINE",
"86 574 OFFCURVE",
"86 325 OFFCURVE",
"86 200 CURVE",
"86 49 OFFCURVE",
"178 -22 OFFCURVE",
"334 -22 CURVE",
"504 -22 OFFCURVE",
"585 53 OFFCURVE",
"585 200 CURVE",
"585 245 OFFCURVE",
"585 645 OFFCURVE",
"585 670 CURVE"
);
},
{
closed = 1;
nodes = (
"172 635 LINE",
"172 658 OFFCURVE",
"190 678 OFFCURVE",
"218 678 CURVE",
"218 700 LINE",
"40 700 LINE",
"40 678 LINE",
"68 678 OFFCURVE",
"86 658 OFFCURVE",
"86 635 CURVE"
);
},
{
closed = 1;
nodes = (
"585 635 LINE",
"585 658 OFFCURVE",
"603 678 OFFCURVE",
"631 678 CURVE",
"631 700 LINE",
"489 700 LINE",
"489 678 LINE",
"517 678 OFFCURVE",
"535 658 OFFCURVE",
"535 635 CURVE"
);
},
{
closed = 1;
nodes = (
"375 715 LINE",
"481 857 LINE",
"397 857 LINE",
"330 715 LINE"
);
}
);
width = 671;
},
{
layerId = "78443275-C7CF-46E0-B20A-E99834DDCE81";
paths = (
{
closed = 1;
nodes = (
"555 651 LINE",
"555 564 OFFCURVE",
"555 331 OFFCURVE",
"555 250 CURVE",
"555 149 OFFCURVE",
"539 58 OFFCURVE",
"399 58 CURVE",
"273 58 OFFCURVE",
"252 179 OFFCURVE",
"252 245 CURVE",
"252 667 LINE",
"86 644 LINE",
"86 574 OFFCURVE",
"86 370 OFFCURVE",
"86 245 CURVE",
"86 44 OFFCURVE",
"183 -22 OFFCURVE",
"399 -22 CURVE",
"589 -22 OFFCURVE",
"645 78 OFFCURVE",
"645 245 CURVE",
"645 290 OFFCURVE",
"645 645 OFFCURVE",
"645 670 CURVE"
);
},
{
closed = 1;
nodes = (
"252 635 LINE",
"252 658 OFFCURVE",
"270 678 OFFCURVE",
"298 678 CURVE",
"298 700 LINE",
"40 700 LINE",
"40 678 LINE",
"68 678 OFFCURVE",
"86 658 OFFCURVE",
"86 635 CURVE"
);
},
{
closed = 1;
nodes = (
"645 635 LINE",
"645 658 OFFCURVE",
"663 678 OFFCURVE",
"691 678 CURVE",
"691 700 LINE",
"509 700 LINE",
"509 678 LINE",
"537 678 OFFCURVE",
"555 658 OFFCURVE",
"555 635 CURVE"
);
},
{
closed = 1;
nodes = (
"441 716 LINE",
"587 858 LINE",
"383 858 LINE",
"356 716 LINE"
);
}
);
width = 731;
},
{
layerId = "A2D4E86B-AE4C-4A17-A9B1-46D900F500CD";
paths = (
{
closed = 1;
nodes = (
"621 651 LINE",
"602 564 OFFCURVE",
"545 291 OFFCURVE",
"526 210 CURVE",
"505 109 OFFCURVE",
"446 18 OFFCURVE",
"286 18 CURVE",
"140 18 OFFCURVE",
"148 139 OFFCURVE",
"162 205 CURVE",
"262 667 LINE",
"170 644 LINE",
"155 574 OFFCURVE",
"102 325 OFFCURVE",
"75 200 CURVE",
"43 49 OFFCURVE",
"121 -22 OFFCURVE",
"277 -22 CURVE",
"447 -22 OFFCURVE",
"544 53 OFFCURVE",
"574 200 CURVE",
"584 245 OFFCURVE",
"669 645 OFFCURVE",
"674 670 CURVE"
);
},
{
closed = 1;
nodes = (
"254 635 LINE",
"260 658 OFFCURVE",
"281 678 OFFCURVE",
"309 678 CURVE",
"315 700 LINE",
"137 700 LINE",
"131 678 LINE",
"159 678 OFFCURVE",
"174 658 OFFCURVE",
"168 635 CURVE"
);
},
{
closed = 1;
nodes = (
"667 635 LINE",
"673 658 OFFCURVE",
"694 678 OFFCURVE",
"722 678 CURVE",
"728 700 LINE",
"586 700 LINE",
"580 678 LINE",
"608 678 OFFCURVE",
"623 658 OFFCURVE",
"617 635 CURVE"
);
},
{
closed = 1;
nodes = (
"471 719 LINE",
"607 861 LINE",
"523 861 LINE",
"426 719 LINE"
);
}
);
width = 672;
},
{
layerId = "01F24223-DBC3-4147-9700-0A3055B7ADEF";
paths = (
{
closed = 1;
nodes = (
"607 651 LINE",
"588 564 OFFCURVE",
"539 331 OFFCURVE",
"521 250 CURVE",
"500 149 OFFCURVE",
"464 58 OFFCURVE",
"324 58 CURVE",
"198 58 OFFCURVE",
"203 179 OFFCURVE",
"217 245 CURVE",
"307 667 LINE",
"136 644 LINE",
"121 574 OFFCURVE",
"78 370 OFFCURVE",
"51 245 CURVE",
"9 44 OFFCURVE",
"91 -22 OFFCURVE",
"307 -22 CURVE",
"497 -22 OFFCURVE",
"575 78 OFFCURVE",
"610 245 CURVE",
"620 290 OFFCURVE",
"695 645 OFFCURVE",
"701 670 CURVE"
);
},
{
closed = 1;
nodes = (
"300 635 LINE",
"305 658 OFFCURVE",
"327 678 OFFCURVE",
"355 678 CURVE",
"360 700 LINE",
"102 700 LINE",
"97 678 LINE",
"125 678 OFFCURVE",
"139 658 OFFCURVE",
"134 635 CURVE"
);
},
{
closed = 1;
nodes = (
"693 635 LINE",
"698 658 OFFCURVE",
"720 678 OFFCURVE",
"748 678 CURVE",
"753 700 LINE",
"571 700 LINE",
"566 678 LINE",
"594 678 OFFCURVE",
"608 658 OFFCURVE",
"603 635 CURVE"
);
},
{
closed = 1;
nodes = (
"502 716 LINE",
"679 858 LINE",
"475 858 LINE",
"417 716 LINE"
);
}
);
width = 793;
}
);
unicode = 00DA;
},
{
glyphname = Ugrave;
lastChange = "2022-02-15 22:11:36 +0000";
layers = (
{
layerId = "0F50FE64-90BD-4AD4-940A-DD271C654105";
paths = (
{
closed = 1;
nodes = (
"535 651 LINE",
"535 564 OFFCURVE",
"535 291 OFFCURVE",
"535 210 CURVE",
"535 109 OFFCURVE",
"494 18 OFFCURVE",
"334 18 CURVE",
"188 18 OFFCURVE",
"172 139 OFFCURVE",
"172 205 CURVE",
"172 667 LINE",
"86 644 LINE",
"86 574 OFFCURVE",
"86 325 OFFCURVE",
"86 200 CURVE",
"86 49 OFFCURVE",
"178 -22 OFFCURVE",
"334 -22 CURVE",
"504 -22 OFFCURVE",
"585 53 OFFCURVE",
"585 200 CURVE",
"585 245 OFFCURVE",
"585 645 OFFCURVE",
"585 670 CURVE"
);
},
{
closed = 1;
nodes = (
"172 635 LINE",
"172 658 OFFCURVE",
"190 678 OFFCURVE",
"218 678 CURVE",
"218 700 LINE",
"40 700 LINE",
"40 678 LINE",
"68 678 OFFCURVE",
"86 658 OFFCURVE",
"86 635 CURVE"
);
},
{
closed = 1;
nodes = (
"585 635 LINE",
"585 658 OFFCURVE",
"603 678 OFFCURVE",
"631 678 CURVE",
"631 700 LINE",
"489 700 LINE",
"489 678 LINE",
"517 678 OFFCURVE",
"535 658 OFFCURVE",
"535 635 CURVE"
);
},
{
closed = 1;
nodes = (
"315 904 LINE",
"231 904 LINE",
"337 762 LINE",
"382 762 LINE"
);
}
);
width = 671;
},
{
layerId = "78443275-C7CF-46E0-B20A-E99834DDCE81";
paths = (
{
closed = 1;
nodes = (
"555 651 LINE",
"555 564 OFFCURVE",
"555 331 OFFCURVE",
"555 250 CURVE",
"555 149 OFFCURVE",
"539 58 OFFCURVE",
"399 58 CURVE",
"273 58 OFFCURVE",
"252 179 OFFCURVE",
"252 245 CURVE",
"252 667 LINE",
"86 644 LINE",
"86 574 OFFCURVE",
"86 370 OFFCURVE",
"86 245 CURVE",
"86 44 OFFCURVE",
"183 -22 OFFCURVE",
"399 -22 CURVE",
"589 -22 OFFCURVE",
"645 78 OFFCURVE",
"645 245 CURVE",
"645 290 OFFCURVE",
"645 645 OFFCURVE",
"645 670 CURVE"
);
},
{
closed = 1;
nodes = (
"252 635 LINE",
"252 658 OFFCURVE",
"270 678 OFFCURVE",
"298 678 CURVE",
"298 700 LINE",
"40 700 LINE",
"40 678 LINE",
"68 678 OFFCURVE",
"86 658 OFFCURVE",
"86 635 CURVE"
);
},
{
closed = 1;
nodes = (
"645 635 LINE",
"645 658 OFFCURVE",
"663 678 OFFCURVE",
"691 678 CURVE",
"691 700 LINE",
"509 700 LINE",
"509 678 LINE",
"537 678 OFFCURVE",
"555 658 OFFCURVE",
"555 635 CURVE"
);
},
{
closed = 1;
nodes = (
"425 904 LINE",
"221 904 LINE",
"367 762 LINE",
"452 762 LINE"
);
}
);
width = 731;
},
{
layerId = "A2D4E86B-AE4C-4A17-A9B1-46D900F500CD";
paths = (
{
closed = 1;
nodes = (
"621 651 LINE",
"602 564 OFFCURVE",
"545 291 OFFCURVE",
"526 210 CURVE",
"505 109 OFFCURVE",
"446 18 OFFCURVE",
"286 18 CURVE",
"140 18 OFFCURVE",
"148 139 OFFCURVE",
"162 205 CURVE",
"262 667 LINE",
"170 644 LINE",
"155 574 OFFCURVE",
"102 325 OFFCURVE",
"75 200 CURVE",
"43 49 OFFCURVE",
"121 -22 OFFCURVE",
"277 -22 CURVE",
"447 -22 OFFCURVE",
"544 53 OFFCURVE",
"574 200 CURVE",
"584 245 OFFCURVE",
"669 645 OFFCURVE",
"674 670 CURVE"
);
},
{
closed = 1;
nodes = (
"254 635 LINE",
"260 658 OFFCURVE",
"281 678 OFFCURVE",
"309 678 CURVE",
"315 700 LINE",
"137 700 LINE",
"131 678 LINE",
"159 678 OFFCURVE",
"174 658 OFFCURVE",
"168 635 CURVE"
);
},
{
closed = 1;
nodes = (
"667 635 LINE",
"673 658 OFFCURVE",
"694 678 OFFCURVE",
"722 678 CURVE",
"728 700 LINE",
"586 700 LINE",
"580 678 LINE",
"608 678 OFFCURVE",
"623 658 OFFCURVE",
"617 635 CURVE"
);
},
{
closed = 1;
nodes = (
"387 904 LINE",
"303 904 LINE",
"439 762 LINE",
"484 762 LINE"
);
}
);
width = 672;
},
{
layerId = "01F24223-DBC3-4147-9700-0A3055B7ADEF";
paths = (
{
closed = 1;
nodes = (
"607 651 LINE",
"588 564 OFFCURVE",
"539 331 OFFCURVE",
"521 250 CURVE",
"500 149 OFFCURVE",
"465 58 OFFCURVE",
"325 58 CURVE",
"199 58 OFFCURVE",
"203 179 OFFCURVE",
"217 245 CURVE",
"307 667 LINE",
"136 644 LINE",
"121 574 OFFCURVE",
"78 370 OFFCURVE",
"51 245 CURVE",
"9 44 OFFCURVE",
"92 -22 OFFCURVE",
"308 -22 CURVE",
"498 -22 OFFCURVE",
"575 78 OFFCURVE",
"610 245 CURVE",
"620 290 OFFCURVE",
"695 645 OFFCURVE",
"701 670 CURVE"
);
},
{
closed = 1;
nodes = (
"300 635 LINE",
"305 658 OFFCURVE",
"327 678 OFFCURVE",
"355 678 CURVE",
"360 700 LINE",
"102 700 LINE",
"97 678 LINE",
"125 678 OFFCURVE",
"139 658 OFFCURVE",
"134 635 CURVE"
);
},
{
closed = 1;
nodes = (
"693 635 LINE",
"698 658 OFFCURVE",
"720 678 OFFCURVE",
"748 678 CURVE",
"753 700 LINE",
"571 700 LINE",
"566 678 LINE",
"594 678 OFFCURVE",
"608 658 OFFCURVE",
"603 635 CURVE"
);
},
{
closed = 1;
nodes = (
"520 904 LINE",
"316 904 LINE",
"432 762 LINE",
"517 762 LINE"
);
}
);
width = 793;
}
);
unicode = 00D9;
},
{
glyphname = V;
lastChange = "2022-06-13 17:24:55 +0000";
layers = (
{
layerId = "0F50FE64-90BD-4AD4-940A-DD271C654105";
paths = (
{
closed = 1;
nodes = (
"321 0 LINE",
"382 0 LINE",
"623 649 LINE",
"629 666 OFFCURVE",
"645 677 OFFCURVE",
"662 677 CURVE",
"665 677 LINE",
"665 700 LINE",
"522 700 LINE",
"522 676 LINE",
"553 676 OFFCURVE",
"573 645 OFFCURVE",
"563 617 CURVE",
"373 105 LINE",
"275 371 LINE",
"182 619 LINE",
"172 647 OFFCURVE",
"193 677 OFFCURVE",
"223 678 CURVE",
"223 700 LINE",
"41 700 LINE",
"40 678 LINE",
"59 677 OFFCURVE",
"75 666 OFFCURVE",
"82 648 CURVE"
);
}
);
width = 705;
},
{
layerId = "78443275-C7CF-46E0-B20A-E99834DDCE81";
paths = (
{
closed = 1;
nodes = (
"321 0 LINE",
"502 0 LINE",
"743 649 LINE",
"749 666 OFFCURVE",
"765 677 OFFCURVE",
"782 677 CURVE",
"785 677 LINE",
"785 700 LINE",
"602 700 LINE",
"602 676 LINE",
"633 676 OFFCURVE",
"653 645 OFFCURVE",
"643 617 CURVE",
"453 105 LINE",
"355 371 LINE",
"262 619 LINE",
"252 647 OFFCURVE",
"273 677 OFFCURVE",
"303 678 CURVE",
"303 700 LINE",
"41 700 LINE",
"40 678 LINE",
"59 677 OFFCURVE",
"75 666 OFFCURVE",
"82 648 CURVE"
);
}
);
width = 825;
},
{
layerId = "A2D4E86B-AE4C-4A17-A9B1-46D900F500CD";
paths = (
{
closed = 1;
nodes = (
"268 0 LINE",
"329 0 LINE",
"708 649 LINE",
"717 666 OFFCURVE",
"736 677 OFFCURVE",
"753 677 CURVE",
"756 677 LINE",
"761 700 LINE",
"618 700 LINE",
"613 676 LINE",
"644 676 OFFCURVE",
"657 645 OFFCURVE",
"641 617 CURVE",
"342 105 LINE",
"301 371 LINE",
"260 619 LINE",
"256 647 OFFCURVE",
"284 677 OFFCURVE",
"314 678 CURVE",
"319 700 LINE",
"137 700 LINE",
"131 678 LINE",
"150 677 OFFCURVE",
"163 666 OFFCURVE",
"167 648 CURVE"
);
}
);
width = 705;
},
{
layerId = "01F24223-DBC3-4147-9700-0A3055B7ADEF";
paths = (
{
closed = 1;
nodes = (
"268 0 LINE",
"449 0 LINE",
"828 649 LINE",
"837 666 OFFCURVE",
"856 677 OFFCURVE",
"873 677 CURVE",
"876 677 LINE",
"880 700 LINE",
"697 700 LINE",
"692 676 LINE",
"723 676 OFFCURVE",
"737 645 OFFCURVE",
"721 617 CURVE",
"422 105 LINE",
"380 371 LINE",
"340 619 LINE",
"336 647 OFFCURVE",
"364 677 OFFCURVE",
"394 678 CURVE",
"398 700 LINE",
"136 700 LINE",
"131 678 LINE",
"150 677 OFFCURVE",
"163 666 OFFCURVE",
"166 648 CURVE"
);
}
);
width = 825;
}
);
unicode = 0056;
},
{
glyphname = W;
lastChange = "2022-06-12 16:06:41 +0000";
layers = (
{
layerId = "78443275-C7CF-46E0-B20A-E99834DDCE81";
paths = (
{
closed = 1;
nodes = (
"831 676 LINE",
"862 676 OFFCURVE",
"887 656 OFFCURVE",
"879 620 CURVE",
"773 136 LINE",
"650 700 LINE",
"490 699 LINE",
"369 136 LINE",
"265 619 LINE",
"260 656 OFFCURVE",
"276 677 OFFCURVE",
"306 678 CURVE",
"306 700 LINE",
"41 700 LINE",
"40 678 LINE",
"83 678 OFFCURVE",
"92 655 OFFCURVE",
"98 619 CURVE",
"232 0 LINE",
"429 0 LINE",
"534 479 LINE",
"638 0 LINE",
"830 0 LINE",
"967 620 LINE",
"972 655 OFFCURVE",
"1005 677 OFFCURVE",
"1025 677 CURVE",
"1025 700 LINE",
"831 700 LINE"
);
}
);
width = 1065;
},
{
layerId = "0F50FE64-90BD-4AD4-940A-DD271C654105";
paths = (
{
closed = 1;
nodes = (
"675 676 LINE",
"706 676 OFFCURVE",
"731 656 OFFCURVE",
"723 620 CURVE",
"616 110 LINE",
"488 700 LINE",
"410 700 LINE",
"283 110 LINE",
"181 619 LINE",
"176 656 OFFCURVE",
"192 677 OFFCURVE",
"222 678 CURVE",
"222 700 LINE",
"40 700 LINE",
"40 678 LINE",
"72 677 OFFCURVE",
"92 656 OFFCURVE",
"98 620 CURVE",
"232 0 LINE",
"303 0 LINE",
"433 593 LINE",
"562 0 LINE",
"634 0 LINE",
"771 620 LINE",
"776 656 OFFCURVE",
"799 677 OFFCURVE",
"827 677 CURVE",
"827 700 LINE",
"675 700 LINE"
);
}
);
width = 867;
},
{
layerId = "A2D4E86B-AE4C-4A17-A9B1-46D900F500CD";
paths = (
{
closed = 1;
nodes = (
"766 676 LINE",
"797 676 OFFCURVE",
"818 656 OFFCURVE",
"802 620 CURVE",
"594 136 LINE",
"590 700 LINE",
"506 700 LINE",
"266 136 LINE",
"264 619 LINE",
"267 656 OFFCURVE",
"288 677 OFFCURVE",
"318 678 CURVE",
"322 700 LINE",
"136 700 LINE",
"132 678 LINE",
"164 677 OFFCURVE",
"179 656 OFFCURVE",
"177 620 CURVE",
"180 0 LINE",
"251 0 LINE",
"507 593 LINE",
"510 0 LINE",
"582 0 LINE",
"850 620 LINE",
"863 656 OFFCURVE",
"891 677 OFFCURVE",
"919 677 CURVE",
"923 700 LINE",
"771 700 LINE"
);
}
);
width = 868;
},
{
layerId = "01F24223-DBC3-4147-9700-0A3055B7ADEF";
paths = (
{
closed = 1;
nodes = (
"921 676 LINE",
"952 676 OFFCURVE",
"973 656 OFFCURVE",
"957 620 CURVE",
"749 136 LINE",
"745 700 LINE",
"585 699 LINE",
"345 136 LINE",
"343 619 LINE",
"346 656 OFFCURVE",
"367 677 OFFCURVE",
"397 678 CURVE",
"401 700 LINE",
"136 700 LINE",
"131 678 LINE",
"174 678 OFFCURVE",
"178 655 OFFCURVE",
"176 619 CURVE",
"179 0 LINE",
"376 0 LINE",
"582 479 LINE",
"585 0 LINE",
"777 0 LINE",
"1045 620 LINE",
"1058 655 OFFCURVE",
"1096 677 OFFCURVE",
"1116 677 CURVE",
"1120 700 LINE",
"926 700 LINE"
);
}
);
width = 1065;
}
);
unicode = 0057;
},
{
glyphname = Wacute;
lastChange = "2022-02-15 22:14:19 +0000";
layers = (
{
layerId = "0F50FE64-90BD-4AD4-940A-DD271C654105";
paths = (
{
closed = 1;
nodes = (
"669 676 LINE",
"700 676 OFFCURVE",
"725 656 OFFCURVE",
"717 620 CURVE",
"611 136 LINE",
"488 700 LINE",
"401 699 LINE",
"279 136 LINE",
"175 619 LINE",
"170 656 OFFCURVE",
"186 677 OFFCURVE",
"216 678 CURVE",
"216 700 LINE",
"41 700 LINE",
"40 678 LINE",
"59 677 OFFCURVE",
"79 666 OFFCURVE",
"82 648 CURVE",
"222 0 LINE",
"293 0 LINE",
"425 604 LINE",
"556 0 LINE",
"628 0 LINE",
"771 649 LINE",
"776 667 OFFCURVE",
"793 677 OFFCURVE",
"813 677 CURVE",
"813 700 LINE",
"669 700 LINE"
);
},
{
closed = 1;
nodes = (
"473 721 LINE",
"579 863 LINE",
"495 863 LINE",
"428 721 LINE"
);
}
);
width = 853;
},
{
layerId = "78443275-C7CF-46E0-B20A-E99834DDCE81";
paths = (
{
closed = 1;
nodes = (
"869 676 LINE",
"900 676 OFFCURVE",
"925 656 OFFCURVE",
"917 620 CURVE",
"811 136 LINE",
"688 700 LINE",
"481 699 LINE",
"359 136 LINE",
"255 619 LINE",
"250 656 OFFCURVE",
"266 677 OFFCURVE",
"296 678 CURVE",
"296 700 LINE",
"41 700 LINE",
"40 678 LINE",
"59 677 OFFCURVE",
"79 666 OFFCURVE",
"82 648 CURVE",
"222 0 LINE",
"413 0 LINE",
"545 604 LINE",
"676 0 LINE",
"868 0 LINE",
"1011 649 LINE",
"1016 667 OFFCURVE",
"1033 677 OFFCURVE",
"1053 677 CURVE",
"1053 700 LINE",
"869 700 LINE"
);
},
{
closed = 1;
nodes = (
"621 724 LINE",
"767 866 LINE",
"563 866 LINE",
"536 724 LINE"
);
}
);
width = 1093;
},
{
layerId = "A2D4E86B-AE4C-4A17-A9B1-46D900F500CD";
paths = (
{
closed = 1;
nodes = (
"759 676 LINE",
"790 676 OFFCURVE",
"811 656 OFFCURVE",
"795 620 CURVE",
"587 136 LINE",
"583 700 LINE",
"496 699 LINE",
"255 136 LINE",
"253 619 LINE",
"256 656 OFFCURVE",
"277 677 OFFCURVE",
"307 678 CURVE",
"311 700 LINE",
"136 700 LINE",
"131 678 LINE",
"150 677 OFFCURVE",
"167 666 OFFCURVE",
"166 648 CURVE",
"169 0 LINE",
"240 0 LINE",
"500 604 LINE",
"503 0 LINE",
"575 0 LINE",
"856 649 LINE",
"864 667 OFFCURVE",
"884 677 OFFCURVE",
"904 677 CURVE",
"908 700 LINE",
"764 700 LINE"
);
},
{
closed = 1;
nodes = (
"571 724 LINE",
"707 866 LINE",
"623 866 LINE",
"526 724 LINE"
);
}
);
width = 853;
},
{
layerId = "01F24223-DBC3-4147-9700-0A3055B7ADEF";
paths = (
{
closed = 1;
nodes = (
"869 676 LINE",
"900 676 OFFCURVE",
"920 656 OFFCURVE",
"905 620 CURVE",
"696 136 LINE",
"693 700 LINE",
"486 699 LINE",
"244 136 LINE",
"243 619 LINE",
"245 656 OFFCURVE",
"266 677 OFFCURVE",
"296 678 CURVE",
"301 700 LINE",
"46 700 LINE",
"40 678 LINE",
"59 677 OFFCURVE",
"77 666 OFFCURVE",
"76 648 CURVE",
"78 0 LINE",
"269 0 LINE",
"529 604 LINE",
"532 0 LINE",
"724 0 LINE",
"1005 649 LINE",
"1014 667 OFFCURVE",
"1033 677 OFFCURVE",
"1053 677 CURVE",
"1058 700 LINE",
"874 700 LINE"
);
},
{
closed = 1;
nodes = (
"631 724 LINE",
"807 866 LINE",
"603 866 LINE",
"546 724 LINE"
);
}
);
width = 1098;
}
);
unicode = 1E82;
},
{
glyphname = Wgrave;
lastChange = "2022-02-15 22:15:51 +0000";
layers = (
{
components = (
{
name = W;
}
);
layerId = "0F50FE64-90BD-4AD4-940A-DD271C654105";
paths = (
{
closed = 1;
nodes = (
"401 904 LINE",
"317 904 LINE",
"423 762 LINE",
"468 762 LINE"
);
}
);
width = 853;
},
{
components = (
{
name = W;
}
);
layerId = "78443275-C7CF-46E0-B20A-E99834DDCE81";
paths = (
{
closed = 1;
nodes = (
"605 904 LINE",
"401 904 LINE",
"547 762 LINE",
"632 762 LINE"
);
}
);
width = 1093;
},
{
components = (
{
name = W;
}
);
layerId = "A2D4E86B-AE4C-4A17-A9B1-46D900F500CD";
paths = (
{
closed = 1;
nodes = (
"467 904 LINE",
"383 904 LINE",
"519 762 LINE",
"564 762 LINE"
);
}
);
width = 853;
},
{
components = (
{
name = W;
}
);
layerId = "01F24223-DBC3-4147-9700-0A3055B7ADEF";
paths = (
{
closed = 1;
nodes = (
"605 904 LINE",
"401 904 LINE",
"547 762 LINE",
"632 762 LINE"
);
}
);
width = 1097;
}
);
unicode = 1E80;
},
{
glyphname = X;
lastChange = "2022-05-25 22:40:36 +0000";
layers = (
{
layerId = "0F50FE64-90BD-4AD4-940A-DD271C654105";
paths = (
{
closed = 1;
nodes = (
"116 635 LINE",
"526 65 LINE",
"634 65 LINE",
"224 635 LINE"
);
},
{
closed = 1;
nodes = (
"624 635 LINE",
"657 663 OFFCURVE",
"670 678 OFFCURVE",
"708 678 CURVE",
"708 700 LINE",
"534 700 LINE",
"534 678 LINE",
"562 678 OFFCURVE",
"580 666 OFFCURVE",
"570 643 CURVE"
);
},
{
closed = 1;
nodes = (
"526 65 LINE",
"526 42 OFFCURVE",
"508 22 OFFCURVE",
"480 22 CURVE",
"480 0 LINE",
"708 0 LINE",
"708 22 LINE",
"680 22 OFFCURVE",
"651 46 OFFCURVE",
"634 65 CURVE"
);
},
{
closed = 1;
nodes = (
"124 65 LINE",
"91 37 OFFCURVE",
"78 22 OFFCURVE",
"40 22 CURVE",
"40 0 LINE",
"224 0 LINE",
"224 22 LINE",
"196 22 OFFCURVE",
"168 34 OFFCURVE",
"178 57 CURVE"
);
},
{
closed = 1;
nodes = (
"224 635 LINE",
"224 658 OFFCURVE",
"242 678 OFFCURVE",
"270 678 CURVE",
"270 700 LINE",
"42 700 LINE",
"42 678 LINE",
"70 678 OFFCURVE",
"99 654 OFFCURVE",
"116 635 CURVE"
);
},
{
closed = 1;
nodes = (
"178 57 LINE",
"624 635 LINE",
"570 643 LINE",
"124 65 LINE"
);
}
);
width = 748;
},
{
layerId = "78443275-C7CF-46E0-B20A-E99834DDCE81";
paths = (
{
closed = 1;
nodes = (
"114 635 LINE",
"524 65 LINE",
"712 65 LINE",
"302 635 LINE"
);
},
{
closed = 1;
nodes = (
"682 635 LINE",
"715 663 OFFCURVE",
"728 678 OFFCURVE",
"766 678 CURVE",
"766 700 LINE",
"552 700 LINE",
"552 678 LINE",
"580 678 OFFCURVE",
"598 666 OFFCURVE",
"588 643 CURVE"
);
},
{
closed = 1;
nodes = (
"524 65 LINE",
"524 42 OFFCURVE",
"506 22 OFFCURVE",
"478 22 CURVE",
"478 0 LINE",
"786 0 LINE",
"786 22 LINE",
"758 22 OFFCURVE",
"729 46 OFFCURVE",
"712 65 CURVE"
);
},
{
closed = 1;
nodes = (
"142 65 LINE",
"109 37 OFFCURVE",
"96 22 OFFCURVE",
"58 22 CURVE",
"58 0 LINE",
"282 0 LINE",
"282 22 LINE",
"254 22 OFFCURVE",
"226 34 OFFCURVE",
"236 57 CURVE"
);
},
{
closed = 1;
nodes = (
"302 635 LINE",
"302 658 OFFCURVE",
"320 678 OFFCURVE",
"348 678 CURVE",
"348 700 LINE",
"40 700 LINE",
"40 678 LINE",
"68 678 OFFCURVE",
"97 654 OFFCURVE",
"114 635 CURVE"
);
},
{
closed = 1;
nodes = (
"236 57 LINE",
"682 635 LINE",
"588 643 LINE",
"142 65 LINE"
);
}
);
width = 826;
},
{
layerId = "A2D4E86B-AE4C-4A17-A9B1-46D900F500CD";
paths = (
{
closed = 1;
nodes = (
"198 635 LINE",
"488 65 LINE",
"596 65 LINE",
"306 635 LINE"
);
},
{
closed = 1;
nodes = (
"706 635 LINE",
"745 663 OFFCURVE",
"748 685 OFFCURVE",
"786 685 CURVE",
"805 700 LINE",
"631 700 LINE",
"625 678 LINE",
"653 678 OFFCURVE",
"669 666 OFFCURVE",
"655 643 CURVE"
);
},
{
closed = 1;
nodes = (
"488 65 LINE",
"482 42 OFFCURVE",
"461 22 OFFCURVE",
"433 22 CURVE",
"427 0 LINE",
"655 0 LINE",
"642 16 LINE",
"614 16 OFFCURVE",
"609 46 OFFCURVE",
"596 65 CURVE"
);
},
{
closed = 1;
nodes = (
"86 65 LINE",
"47 37 OFFCURVE",
"49 16 OFFCURVE",
"11 16 CURVE",
"-13 0 LINE",
"171 0 LINE",
"177 22 LINE",
"149 22 OFFCURVE",
"123 34 OFFCURVE",
"137 57 CURVE"
);
},
{
closed = 1;
nodes = (
"306 635 LINE",
"312 658 OFFCURVE",
"333 678 OFFCURVE",
"361 678 CURVE",
"367 700 LINE",
"139 700 LINE",
"143 685 LINE",
"171 685 OFFCURVE",
"185 654 OFFCURVE",
"198 635 CURVE"
);
},
{
closed = 1;
nodes = (
"137 57 LINE",
"706 635 LINE",
"655 643 LINE",
"86 65 LINE"
);
}
);
width = 749;
},
{
layerId = "01F24223-DBC3-4147-9700-0A3055B7ADEF";
paths = (
{
closed = 1;
nodes = (
"197 635 LINE",
"485 65 LINE",
"673 65 LINE",
"385 635 LINE"
);
},
{
closed = 1;
nodes = (
"765 635 LINE",
"804 663 OFFCURVE",
"820 678 OFFCURVE",
"858 678 CURVE",
"862 700 LINE",
"648 700 LINE",
"644 678 LINE",
"672 678 OFFCURVE",
"687 666 OFFCURVE",
"672 643 CURVE"
);
},
{
closed = 1;
nodes = (
"485 65 LINE",
"481 42 OFFCURVE",
"458 22 OFFCURVE",
"430 22 CURVE",
"426 0 LINE",
"734 0 LINE",
"738 22 LINE",
"710 22 OFFCURVE",
"686 46 OFFCURVE",
"673 65 CURVE"
);
},
{
closed = 1;
nodes = (
"103 65 LINE",
"64 37 OFFCURVE",
"48 22 OFFCURVE",
"10 22 CURVE",
"6 0 LINE",
"230 0 LINE",
"234 22 LINE",
"206 22 OFFCURVE",
"181 34 OFFCURVE",
"196 57 CURVE"
);
},
{
closed = 1;
nodes = (
"385 635 LINE",
"389 658 OFFCURVE",
"412 678 OFFCURVE",
"440 678 CURVE",
"444 700 LINE",
"136 700 LINE",
"132 678 LINE",
"160 678 OFFCURVE",
"184 654 OFFCURVE",
"197 635 CURVE"
);
},
{
closed = 1;
nodes = (
"196 57 LINE",
"765 635 LINE",
"672 643 LINE",
"103 65 LINE"
);
}
);
width = 827;
}
);
unicode = 0058;
},
{
glyphname = Y;
lastChange = "2022-06-13 15:14:15 +0000";
layers = (
{
layerId = "0F50FE64-90BD-4AD4-940A-DD271C654105";
paths = (
{
closed = 1;
nodes = (
"332 330 LINE",
"415 330 LINE",
"621 615 LINE",
"656 660 OFFCURVE",
"676 677 OFFCURVE",
"708 677 CURVE",
"708 700 LINE",
"526 700 LINE",
"526 676 LINE",
"557 676 OFFCURVE",
"587 648 OFFCURVE",
"567 617 CURVE",
"387 375 LINE",
"207 619 LINE",
"190 647 OFFCURVE",
"218 677 OFFCURVE",
"248 678 CURVE",
"248 700 LINE",
"42 700 LINE",
"41 678 LINE",
"67 677 OFFCURVE",
"90 657 OFFCURVE",
"115 619 CURVE"
);
},
{
closed = 1;
nodes = (
"434 28 OFFCURVE",
"415 42 OFFCURVE",
"415 65 CURVE SMOOTH",
"415 91 LINE",
"415 332 LINE",
"332 332 LINE",
"332 66 LINE SMOOTH",
"332 42 OFFCURVE",
"312 29 OFFCURVE",
"289 23 CURVE SMOOTH",
"285 22 LINE",
"285 0 LINE",
"462 0 LINE",
"462 22 LINE",
"457 23 LINE SMOOTH"
);
}
);
width = 748;
},
{
layerId = "78443275-C7CF-46E0-B20A-E99834DDCE81";
paths = (
{
closed = 1;
nodes = (
"331 330 LINE",
"535 330 LINE",
"744 619 LINE",
"770 655 OFFCURVE",
"799 677 OFFCURVE",
"828 677 CURVE",
"828 700 LINE",
"606 700 LINE",
"606 676 LINE",
"637 676 OFFCURVE",
"673 652 OFFCURVE",
"647 617 CURVE",
"467 375 LINE",
"286 619 LINE",
"259 652 OFFCURVE",
"290 677 OFFCURVE",
"327 678 CURVE",
"327 700 LINE",
"41 700 LINE",
"40 678 LINE",
"69 678 OFFCURVE",
"95 647 OFFCURVE",
"114 619 CURVE"
);
},
{
closed = 1;
nodes = (
"554 28 OFFCURVE",
"535 42 OFFCURVE",
"535 65 CURVE SMOOTH",
"535 91 LINE",
"535 332 LINE",
"331 332 LINE",
"331 66 LINE SMOOTH",
"331 42 OFFCURVE",
"311 29 OFFCURVE",
"288 23 CURVE SMOOTH",
"284 22 LINE",
"284 0 LINE",
"582 0 LINE",
"582 22 LINE",
"577 23 LINE SMOOTH"
);
}
);
width = 868;
},
{
layerId = "A2D4E86B-AE4C-4A17-A9B1-46D900F500CD";
paths = (
{
closed = 1;
nodes = (
"348 330 LINE",
"431 330 LINE",
"697 615 LINE",
"742 660 OFFCURVE",
"766 677 OFFCURVE",
"798 677 CURVE",
"802 700 LINE",
"620 700 LINE",
"615 676 LINE",
"646 676 OFFCURVE",
"670 648 OFFCURVE",
"644 617 CURVE",
"412 375 LINE",
"284 619 LINE",
"273 647 OFFCURVE",
"308 677 OFFCURVE",
"338 678 CURVE",
"342 700 LINE",
"136 700 LINE",
"131 678 LINE",
"157 677 OFFCURVE",
"175 657 OFFCURVE",
"192 619 CURVE"
);
},
{
closed = 1;
nodes = (
"386 28 OFFCURVE",
"370 42 OFFCURVE",
"374 65 CURVE SMOOTH",
"380 91 LINE",
"431 332 LINE",
"348 332 LINE",
"292 66 LINE SMOOTH",
"287 42 OFFCURVE",
"264 29 OFFCURVE",
"239 23 CURVE SMOOTH",
"235 22 LINE",
"231 0 LINE",
"408 0 LINE",
"412 22 LINE",
"407 23 LINE SMOOTH"
);
}
);
width = 747;
},
{
layerId = "01F24223-DBC3-4147-9700-0A3055B7ADEF";
paths = (
{
closed = 1;
nodes = (
"348 330 LINE",
"552 330 LINE",
"822 619 LINE",
"856 655 OFFCURVE",
"890 677 OFFCURVE",
"919 677 CURVE",
"923 700 LINE",
"701 700 LINE",
"696 676 LINE",
"727 676 OFFCURVE",
"758 652 OFFCURVE",
"725 617 CURVE",
"493 375 LINE",
"364 619 LINE",
"344 652 OFFCURVE",
"381 677 OFFCURVE",
"418 678 CURVE",
"422 700 LINE",
"136 700 LINE",
"131 678 LINE",
"160 678 OFFCURVE",
"179 647 OFFCURVE",
"192 619 CURVE"
);
},
{
closed = 1;
nodes = (
"507 28 OFFCURVE",
"491 42 OFFCURVE",
"495 65 CURVE SMOOTH",
"501 91 LINE",
"552 332 LINE",
"348 332 LINE",
"292 66 LINE SMOOTH",
"287 42 OFFCURVE",
"264 29 OFFCURVE",
"239 23 CURVE SMOOTH",
"235 22 LINE",
"231 0 LINE",
"529 0 LINE",
"533 22 LINE",
"528 23 LINE SMOOTH"
);
}
);
width = 868;
}
);
unicode = 0059;
},
{
glyphname = Yacute;
lastChange = "2022-02-15 22:17:38 +0000";
layers = (
{
layerId = "0F50FE64-90BD-4AD4-940A-DD271C654105";
paths = (
{
closed = 1;
nodes = (
"311 330 LINE",
"395 330 LINE",
"626 649 LINE",
"632 666 OFFCURVE",
"668 677 OFFCURVE",
"685 677 CURVE",
"688 677 LINE",
"688 700 LINE",
"506 700 LINE",
"506 676 LINE",
"537 676 OFFCURVE",
"557 645 OFFCURVE",
"547 617 CURVE",
"367 375 LINE",
"186 619 LINE",
"176 647 OFFCURVE",
"197 677 OFFCURVE",
"227 678 CURVE",
"227 700 LINE",
"21 700 LINE",
"20 678 LINE",
"39 677 OFFCURVE",
"65 666 OFFCURVE",
"72 648 CURVE"
);
},
{
closed = 1;
nodes = (
"414 28 OFFCURVE",
"395 42 OFFCURVE",
"395 65 CURVE SMOOTH",
"395 91 LINE",
"395 332 LINE",
"311 332 LINE",
"311 66 LINE SMOOTH",
"311 42 OFFCURVE",
"291 29 OFFCURVE",
"268 23 CURVE SMOOTH",
"264 22 LINE",
"264 0 LINE",
"442 0 LINE",
"442 22 LINE",
"437 23 LINE SMOOTH"
);
},
{
closed = 1;
nodes = (
"369 699 LINE",
"475 841 LINE",
"391 841 LINE",
"324 699 LINE"
);
}
);
width = 708;
},
{
layerId = "78443275-C7CF-46E0-B20A-E99834DDCE81";
paths = (
{
closed = 1;
nodes = (
"311 330 LINE",
"515 330 LINE",
"746 649 LINE",
"752 666 OFFCURVE",
"788 677 OFFCURVE",
"805 677 CURVE",
"808 677 LINE",
"808 700 LINE",
"586 700 LINE",
"586 676 LINE",
"617 676 OFFCURVE",
"637 645 OFFCURVE",
"627 617 CURVE",
"447 375 LINE",
"266 619 LINE",
"256 647 OFFCURVE",
"277 677 OFFCURVE",
"307 678 CURVE",
"307 700 LINE",
"21 700 LINE",
"20 678 LINE",
"39 677 OFFCURVE",
"65 666 OFFCURVE",
"72 648 CURVE"
);
},
{
closed = 1;
nodes = (
"534 28 OFFCURVE",
"515 42 OFFCURVE",
"515 65 CURVE SMOOTH",
"515 91 LINE",
"515 332 LINE",
"311 332 LINE",
"311 66 LINE SMOOTH",
"311 42 OFFCURVE",
"291 29 OFFCURVE",
"268 23 CURVE SMOOTH",
"264 22 LINE",
"264 0 LINE",
"562 0 LINE",
"562 22 LINE",
"557 23 LINE SMOOTH"
);
},
{
closed = 1;
nodes = (
"479 732 LINE",
"625 874 LINE",
"421 874 LINE",
"394 732 LINE"
);
}
);
width = 828;
},
{
layerId = "A2D4E86B-AE4C-4A17-A9B1-46D900F500CD";
paths = (
{
closed = 1;
nodes = (
"328 330 LINE",
"412 330 LINE",
"711 649 LINE",
"720 666 OFFCURVE",
"759 677 OFFCURVE",
"776 677 CURVE",
"779 677 LINE",
"784 700 LINE",
"602 700 LINE",
"597 676 LINE",
"628 676 OFFCURVE",
"641 645 OFFCURVE",
"625 617 CURVE",
"394 375 LINE",
"264 619 LINE",
"260 647 OFFCURVE",
"288 677 OFFCURVE",
"318 678 CURVE",
"323 700 LINE",
"117 700 LINE",
"111 678 LINE",
"130 677 OFFCURVE",
"153 666 OFFCURVE",
"157 648 CURVE"
);
},
{
closed = 1;
nodes = (
"367 28 OFFCURVE",
"352 42 OFFCURVE",
"356 65 CURVE SMOOTH",
"361 91 LINE",
"412 332 LINE",
"328 332 LINE",
"272 66 LINE SMOOTH",
"267 42 OFFCURVE",
"244 28 OFFCURVE",
"220 23 CURVE SMOOTH",
"215 22 LINE",
"211 0 LINE",
"389 0 LINE",
"393 22 LINE",
"389 23 LINE SMOOTH"
);
},
{
closed = 1;
nodes = (
"476 701 LINE",
"612 843 LINE",
"528 843 LINE",
"431 701 LINE"
);
}
);
width = 708;
},
{
layerId = "01F24223-DBC3-4147-9700-0A3055B7ADEF";
paths = (
{
closed = 1;
nodes = (
"257 330 LINE",
"461 330 LINE",
"760 649 LINE",
"770 666 OFFCURVE",
"808 677 OFFCURVE",
"825 677 CURVE",
"828 677 LINE",
"833 700 LINE",
"611 700 LINE",
"606 676 LINE",
"637 676 OFFCURVE",
"650 645 OFFCURVE",
"634 617 CURVE",
"403 375 LINE",
"274 619 LINE",
"270 647 OFFCURVE",
"297 677 OFFCURVE",
"327 678 CURVE",
"332 700 LINE",
"46 700 LINE",
"40 678 LINE",
"59 677 OFFCURVE",
"83 666 OFFCURVE",
"86 648 CURVE"
);
},
{
closed = 1;
nodes = (
"416 28 OFFCURVE",
"400 42 OFFCURVE",
"405 65 CURVE SMOOTH",
"410 91 LINE",
"462 332 LINE",
"258 332 LINE",
"201 66 LINE SMOOTH",
"196 42 OFFCURVE",
"173 29 OFFCURVE",
"149 23 CURVE SMOOTH",
"145 22 LINE",
"140 0 LINE",
"438 0 LINE",
"443 22 LINE",
"438 23 LINE SMOOTH"
);
},
{
closed = 1;
nodes = (
"511 732 LINE",
"687 874 LINE",
"483 874 LINE",
"426 732 LINE"
);
}
);
width = 873;
}
);
unicode = 00DD;
},
{
glyphname = Ygrave;
lastChange = "2022-02-16 21:36:00 +0000";
layers = (
{
components = (
{
name = Y;
}
);
layerId = "0F50FE64-90BD-4AD4-940A-DD271C654105";
paths = (
{
closed = 1;
nodes = (
"410 730 LINE",
"516 872 LINE",
"432 872 LINE",
"365 730 LINE"
);
}
);
width = 748;
},
{
components = (
{
name = Y;
}
);
layerId = "78443275-C7CF-46E0-B20A-E99834DDCE81";
paths = (
{
closed = 1;
nodes = (
"501 731 LINE",
"647 873 LINE",
"443 873 LINE",
"416 731 LINE"
);
}
);
width = 868;
},
{
components = (
{
name = Y;
transform = "{1, 0, 0, 1, 20, 0}";
}
);
layerId = "A2D4E86B-AE4C-4A17-A9B1-46D900F500CD";
paths = (
{
closed = 1;
nodes = (
"499 732 LINE",
"635 874 LINE",
"551 874 LINE",
"454 732 LINE"
);
}
);
width = 748;
},
{
components = (
{
name = Y;
}
);
layerId = "01F24223-DBC3-4147-9700-0A3055B7ADEF";
paths = (
{
closed = 1;
nodes = (
"501 731 LINE",
"647 873 LINE",
"443 873 LINE",
"416 731 LINE"
);
}
);
width = 872;
}
);
unicode = 1EF2;
},
{
glyphname = Z;
lastChange = "2022-06-09 22:46:43 +0000";
layers = (
{
layerId = "0F50FE64-90BD-4AD4-940A-DD271C654105";
paths = (
{
closed = 1;
nodes = (
"636 0 LINE",
"636 90 LINE",
"602 90 LINE",
"602 65 OFFCURVE",
"582 45 OFFCURVE",
"557 45 CURVE",
"154 45 LINE",
"117 0 LINE"
);
},
{
closed = 1;
nodes = (
"63 700 LINE",
"63 610 LINE",
"97 610 LINE",
"97 635 OFFCURVE",
"117 655 OFFCURVE",
"142 655 CURVE",
"526 655 LINE",
"563 700 LINE"
);
},
{
closed = 1;
nodes = (
"40 0 LINE",
"143 0 LINE",
"653 700 LINE",
"550 700 LINE"
);
}
);
width = 693;
},
{
layerId = "78443275-C7CF-46E0-B20A-E99834DDCE81";
paths = (
{
closed = 1;
nodes = (
"716 0 LINE",
"716 130 LINE",
"682 130 LINE",
"682 105 OFFCURVE",
"662 85 OFFCURVE",
"637 85 CURVE",
"194 85 LINE",
"157 0 LINE"
);
},
{
closed = 1;
nodes = (
"63 700 LINE",
"63 570 LINE",
"97 570 LINE",
"97 595 OFFCURVE",
"117 615 OFFCURVE",
"142 615 CURVE",
"566 615 LINE",
"603 700 LINE"
);
},
{
closed = 1;
nodes = (
"40 0 LINE",
"213 0 LINE",
"723 700 LINE",
"550 700 LINE"
);
}
);
width = 763;
},
{
layerId = "A2D4E86B-AE4C-4A17-A9B1-46D900F500CD";
paths = (
{
closed = 1;
nodes = (
"583 0 LINE",
"601 90 LINE",
"567 90 LINE",
"562 65 OFFCURVE",
"538 45 OFFCURVE",
"513 45 CURVE",
"110 45 LINE",
"64 0 LINE"
);
},
{
closed = 1;
nodes = (
"156 700 LINE",
"138 610 LINE",
"172 610 LINE",
"177 635 OFFCURVE",
"201 655 OFFCURVE",
"226 655 CURVE",
"610 655 LINE",
"656 700 LINE"
);
},
{
closed = 1;
nodes = (
"-13 0 LINE",
"90 0 LINE",
"746 700 LINE",
"643 700 LINE"
);
}
);
width = 690;
},
{
layerId = "01F24223-DBC3-4147-9700-0A3055B7ADEF";
paths = (
{
closed = 1;
nodes = (
"663 0 LINE",
"690 130 LINE",
"656 130 LINE",
"651 105 OFFCURVE",
"627 85 OFFCURVE",
"602 85 CURVE",
"159 85 LINE",
"104 0 LINE"
);
},
{
closed = 1;
nodes = (
"158 700 LINE",
"131 570 LINE",
"165 570 LINE",
"170 595 OFFCURVE",
"194 615 OFFCURVE",
"219 615 CURVE",
"643 615 LINE",
"698 700 LINE"
);
},
{
closed = 1;
nodes = (
"-13 0 LINE",
"160 0 LINE",
"818 700 LINE",
"645 700 LINE"
);
}
);
width = 762;
}
);
unicode = 005A;
},
{
glyphname = a;
lastChange = "2022-06-14 17:50:55 +0000";
layers = (
{
layerId = "0F50FE64-90BD-4AD4-940A-DD271C654105";
paths = (
{
closed = 1;
nodes = (
"280 24 OFFCURVE",
"224 24 CURVE SMOOTH",
"166 24 OFFCURVE",
"120 80 OFFCURVE",
"120 162 CURVE SMOOTH",
"120 237 OFFCURVE",
"156 292 OFFCURVE",
"224 294 CURVE",
"282 296 OFFCURVE",
"338 249 OFFCURVE",
"338 153 CURVE SMOOTH",
"338 67 OFFCURVE"
);
},
{
closed = 1;
nodes = (
"166 512 OFFCURVE",
"121 488 OFFCURVE",
"105 478 CURVE",
"86 410 LINE",
"103 409 LINE",
"137 445 OFFCURVE",
"188 478 OFFCURVE",
"246 478 CURVE SMOOTH",
"319 478 OFFCURVE",
"340 404 OFFCURVE",
"337 278 CURVE",
"324 302 OFFCURVE",
"287 329 OFFCURVE",
"224 329 CURVE SMOOTH",
"97 329 OFFCURVE",
"40 248 OFFCURVE",
"40 160 CURVE SMOOTH",
"40 57 OFFCURVE",
"105 -11 OFFCURVE",
"224 -11 CURVE SMOOTH",
"287 -11 OFFCURVE",
"324 16 OFFCURVE",
"340 38 CURVE",
"340 6 OFFCURVE",
"357 -8 OFFCURVE",
"386 -8 CURVE",
"412 0 LINE",
"412 151 OFFCURVE",
"408 208 OFFCURVE",
"410 278 CURVE SMOOTH",
"414 404 OFFCURVE",
"389 513 OFFCURVE",
"246 512 CURVE"
);
},
{
closed = 1;
nodes = (
"377 65 LINE",
"386 -8 LINE",
"457 0 LINE",
"457 22 LINE",
"429 22 OFFCURVE",
"411 42 OFFCURVE",
"411 65 CURVE"
);
}
);
width = 497;
},
{
layerId = "78443275-C7CF-46E0-B20A-E99834DDCE81";
paths = (
{
closed = 1;
nodes = (
"348 64 OFFCURVE",
"294 64 CURVE SMOOTH",
"251 64 OFFCURVE",
"200 100 OFFCURVE",
"200 162 CURVE SMOOTH",
"200 217 OFFCURVE",
"251 252 OFFCURVE",
"294 254 CURVE",
"357 255 OFFCURVE",
"389 202 OFFCURVE",
"389 158 CURVE SMOOTH",
"389 104 OFFCURVE"
);
},
{
closed = 1;
nodes = (
"200 512 OFFCURVE",
"156 500 OFFCURVE",
"134 487 CURVE",
"100 389 LINE",
"132 389 LINE",
"172 415 OFFCURVE",
"228 438 OFFCURVE",
"272 438 CURVE SMOOTH",
"365 438 OFFCURVE",
"380 364 OFFCURVE",
"377 278 CURVE",
"377 278 OFFCURVE",
"337 339 OFFCURVE",
"224 339 CURVE SMOOTH",
"127 339 OFFCURVE",
"40 268 OFFCURVE",
"40 160 CURVE SMOOTH",
"40 37 OFFCURVE",
"135 -11 OFFCURVE",
"224 -11 CURVE SMOOTH",
"317 -11 OFFCURVE",
"364 16 OFFCURVE",
"380 38 CURVE",
"380 6 OFFCURVE",
"397 -8 OFFCURVE",
"426 -8 CURVE",
"534 0 LINE",
"534 151 OFFCURVE",
"530 208 OFFCURVE",
"532 278 CURVE SMOOTH",
"536 414 OFFCURVE",
"475 513 OFFCURVE",
"272 512 CURVE"
);
},
{
closed = 1;
nodes = (
"419 65 LINE",
"429 -8 LINE",
"579 0 LINE",
"579 22 LINE",
"551 22 OFFCURVE",
"533 42 OFFCURVE",
"533 65 CURVE"
);
}
);
width = 619;
},
{
layerId = "A2D4E86B-AE4C-4A17-A9B1-46D900F500CD";
paths = (
{
closed = 1;
nodes = (
"232 24 OFFCURVE",
"176 24 CURVE SMOOTH",
"118 24 OFFCURVE",
"84 80 OFFCURVE",
"101 162 CURVE SMOOTH",
"117 237 OFFCURVE",
"165 292 OFFCURVE",
"233 294 CURVE",
"292 296 OFFCURVE",
"338 249 OFFCURVE",
"317 153 CURVE SMOOTH",
"299 67 OFFCURVE"
);
},
{
closed = 1;
nodes = (
"222 512 OFFCURVE",
"171 488 OFFCURVE",
"153 478 CURVE",
"120 410 LINE",
"137 409 LINE",
"178 445 OFFCURVE",
"236 478 OFFCURVE",
"294 478 CURVE SMOOTH",
"367 478 OFFCURVE",
"373 404 OFFCURVE",
"343 278 CURVE",
"335 302 OFFCURVE",
"304 329 OFFCURVE",
"241 329 CURVE SMOOTH",
"114 329 OFFCURVE",
"39 248 OFFCURVE",
"21 160 CURVE SMOOTH",
"-1 57 OFFCURVE",
"49 -11 OFFCURVE",
"168 -11 CURVE SMOOTH",
"231 -11 OFFCURVE",
"274 16 OFFCURVE",
"295 38 CURVE",
"288 6 OFFCURVE",
"302 -8 OFFCURVE",
"331 -8 CURVE",
"359 0 LINE",
"391 151 OFFCURVE",
"399 208 OFFCURVE",
"416 278 CURVE SMOOTH",
"447 404 OFFCURVE",
"445 513 OFFCURVE",
"302 512 CURVE"
);
},
{
closed = 1;
nodes = (
"338 65 LINE",
"331 -8 LINE",
"404 0 LINE",
"408 22 LINE",
"380 22 OFFCURVE",
"367 42 OFFCURVE",
"372 65 CURVE"
);
}
);
width = 497;
},
{
layerId = "01F24223-DBC3-4147-9700-0A3055B7ADEF";
paths = (
{
closed = 1;
nodes = (
"308 64 OFFCURVE",
"254 64 CURVE SMOOTH",
"211 64 OFFCURVE",
"168 100 OFFCURVE",
"181 162 CURVE SMOOTH",
"193 217 OFFCURVE",
"251 252 OFFCURVE",
"295 254 CURVE",
"358 255 OFFCURVE",
"379 202 OFFCURVE",
"369 158 CURVE SMOOTH",
"358 104 OFFCURVE"
);
},
{
closed = 1;
nodes = (
"256 512 OFFCURVE",
"209 500 OFFCURVE",
"184 487 CURVE",
"129 389 LINE",
"161 389 LINE",
"207 415 OFFCURVE",
"268 438 OFFCURVE",
"312 438 CURVE SMOOTH",
"405 438 OFFCURVE",
"404 364 OFFCURVE",
"383 278 CURVE",
"383 278 OFFCURVE",
"356 339 OFFCURVE",
"243 339 CURVE SMOOTH",
"146 339 OFFCURVE",
"44 268 OFFCURVE",
"21 160 CURVE SMOOTH",
"-5 37 OFFCURVE",
"79 -11 OFFCURVE",
"168 -11 CURVE SMOOTH",
"261 -11 OFFCURVE",
"314 16 OFFCURVE",
"335 38 CURVE",
"328 6 OFFCURVE",
"342 -8 OFFCURVE",
"371 -8 CURVE",
"481 0 LINE",
"513 151 OFFCURVE",
"521 208 OFFCURVE",
"538 278 CURVE SMOOTH",
"571 414 OFFCURVE",
"531 513 OFFCURVE",
"328 512 CURVE"
);
},
{
closed = 1;
nodes = (
"380 65 LINE",
"374 -8 LINE",
"526 0 LINE",
"530 22 LINE",
"502 22 OFFCURVE",
"489 42 OFFCURVE",
"494 65 CURVE"
);
}
);
width = 619;
}
);
unicode = 0061;
},
{
glyphname = aacute;
lastChange = "2022-02-24 23:08:17 +0000";
layers = (
{
layerId = "0F50FE64-90BD-4AD4-940A-DD271C654105";
paths = (
{
closed = 1;
nodes = (
"277 602 LINE",
"383 744 LINE",
"299 744 LINE",
"232 602 LINE"
);
},
{
closed = 1;
nodes = (
"280 24 OFFCURVE",
"224 24 CURVE SMOOTH",
"166 24 OFFCURVE",
"120 80 OFFCURVE",
"120 162 CURVE SMOOTH",
"120 237 OFFCURVE",
"156 292 OFFCURVE",
"224 294 CURVE",
"282 296 OFFCURVE",
"338 249 OFFCURVE",
"338 153 CURVE SMOOTH",
"338 67 OFFCURVE"
);
},
{
closed = 1;
nodes = (
"166 512 OFFCURVE",
"121 488 OFFCURVE",
"105 478 CURVE",
"86 410 LINE",
"103 409 LINE",
"137 445 OFFCURVE",
"188 478 OFFCURVE",
"246 478 CURVE SMOOTH",
"319 478 OFFCURVE",
"340 404 OFFCURVE",
"337 278 CURVE",
"324 302 OFFCURVE",
"287 329 OFFCURVE",
"224 329 CURVE SMOOTH",
"97 329 OFFCURVE",
"40 248 OFFCURVE",
"40 160 CURVE SMOOTH",
"40 57 OFFCURVE",
"105 -11 OFFCURVE",
"224 -11 CURVE SMOOTH",
"287 -11 OFFCURVE",
"324 16 OFFCURVE",
"340 38 CURVE",
"340 6 OFFCURVE",
"357 -8 OFFCURVE",
"386 -8 CURVE",
"412 0 LINE",
"412 151 OFFCURVE",
"408 208 OFFCURVE",
"410 278 CURVE SMOOTH",
"414 404 OFFCURVE",
"389 513 OFFCURVE",
"246 512 CURVE"
);
},
{
closed = 1;
nodes = (
"377 65 LINE",
"386 -8 LINE",
"457 0 LINE",
"457 22 LINE",
"429 22 OFFCURVE",
"411 42 OFFCURVE",
"411 65 CURVE"
);
}
);
width = 497;
},
{
layerId = "78443275-C7CF-46E0-B20A-E99834DDCE81";
paths = (
{
closed = 1;
nodes = (
"345 602 LINE",
"491 744 LINE",
"287 744 LINE",
"260 602 LINE"
);
},
{
closed = 1;
nodes = (
"348 64 OFFCURVE",
"294 64 CURVE SMOOTH",
"251 64 OFFCURVE",
"200 100 OFFCURVE",
"200 162 CURVE SMOOTH",
"200 217 OFFCURVE",
"251 252 OFFCURVE",
"294 254 CURVE",
"357 255 OFFCURVE",
"389 202 OFFCURVE",
"389 158 CURVE SMOOTH",
"389 104 OFFCURVE"
);
},
{
closed = 1;
nodes = (
"200 512 OFFCURVE",
"156 500 OFFCURVE",
"134 487 CURVE",
"100 389 LINE",
"132 389 LINE",
"172 415 OFFCURVE",
"228 438 OFFCURVE",
"272 438 CURVE SMOOTH",
"365 438 OFFCURVE",
"380 364 OFFCURVE",
"377 278 CURVE",
"377 278 OFFCURVE",
"337 339 OFFCURVE",
"224 339 CURVE SMOOTH",
"127 339 OFFCURVE",
"40 268 OFFCURVE",
"40 160 CURVE SMOOTH",
"40 37 OFFCURVE",
"135 -11 OFFCURVE",
"224 -11 CURVE SMOOTH",
"317 -11 OFFCURVE",
"364 16 OFFCURVE",
"380 38 CURVE",
"380 6 OFFCURVE",
"397 -8 OFFCURVE",
"426 -8 CURVE",
"534 0 LINE",
"534 151 OFFCURVE",
"530 208 OFFCURVE",
"532 278 CURVE SMOOTH",
"536 414 OFFCURVE",
"475 513 OFFCURVE",
"272 512 CURVE"
);
},
{
closed = 1;
nodes = (
"419 65 LINE",
"429 -8 LINE",
"579 0 LINE",
"579 22 LINE",
"551 22 OFFCURVE",
"533 42 OFFCURVE",
"533 65 CURVE"
);
}
);
width = 619;
},
{
layerId = "A2D4E86B-AE4C-4A17-A9B1-46D900F500CD";
paths = (
{
closed = 1;
nodes = (
"352 602 LINE",
"488 744 LINE",
"404 744 LINE",
"307 602 LINE"
);
},
{
closed = 1;
nodes = (
"232 24 OFFCURVE",
"176 24 CURVE SMOOTH",
"118 24 OFFCURVE",
"84 80 OFFCURVE",
"102 162 CURVE SMOOTH",
"117 237 OFFCURVE",
"165 292 OFFCURVE",
"234 294 CURVE",
"292 296 OFFCURVE",
"338 249 OFFCURVE",
"318 153 CURVE SMOOTH",
"299 67 OFFCURVE"
);
},
{
closed = 1;
nodes = (
"222 512 OFFCURVE",
"172 488 OFFCURVE",
"154 478 CURVE",
"120 410 LINE",
"137 409 LINE",
"179 445 OFFCURVE",
"237 478 OFFCURVE",
"295 478 CURVE SMOOTH",
"368 478 OFFCURVE",
"373 404 OFFCURVE",
"343 278 CURVE",
"335 302 OFFCURVE",
"304 329 OFFCURVE",
"241 329 CURVE SMOOTH",
"114 329 OFFCURVE",
"40 248 OFFCURVE",
"21 160 CURVE SMOOTH",
"-1 57 OFFCURVE",
"50 -11 OFFCURVE",
"169 -11 CURVE SMOOTH",
"232 -11 OFFCURVE",
"274 16 OFFCURVE",
"295 38 CURVE",
"288 6 OFFCURVE",
"302 -8 OFFCURVE",
"331 -8 CURVE",
"359 0 LINE",
"391 151 OFFCURVE",
"399 208 OFFCURVE",
"416 278 CURVE SMOOTH",
"447 404 OFFCURVE",
"445 513 OFFCURVE",
"302 512 CURVE"
);
},
{
closed = 1;
nodes = (
"338 65 LINE",
"331 -8 LINE",
"404 0 LINE",
"408 22 LINE",
"380 22 OFFCURVE",
"367 42 OFFCURVE",
"372 65 CURVE"
);
}
);
width = 497;
},
{
layerId = "01F24223-DBC3-4147-9700-0A3055B7ADEF";
paths = (
{
closed = 1;
nodes = (
"410 602 LINE",
"586 744 LINE",
"382 744 LINE",
"325 602 LINE"
);
},
{
closed = 1;
nodes = (
"309 64 OFFCURVE",
"255 64 CURVE SMOOTH",
"212 64 OFFCURVE",
"168 100 OFFCURVE",
"182 162 CURVE SMOOTH",
"193 217 OFFCURVE",
"252 252 OFFCURVE",
"295 254 CURVE",
"358 255 OFFCURVE",
"379 202 OFFCURVE",
"370 158 CURVE SMOOTH",
"358 104 OFFCURVE"
);
},
{
closed = 1;
nodes = (
"256 512 OFFCURVE",
"209 500 OFFCURVE",
"185 487 CURVE",
"130 389 LINE",
"162 389 LINE",
"207 415 OFFCURVE",
"268 438 OFFCURVE",
"312 438 CURVE SMOOTH",
"405 438 OFFCURVE",
"404 364 OFFCURVE",
"383 278 CURVE",
"383 278 OFFCURVE",
"356 339 OFFCURVE",
"243 339 CURVE SMOOTH",
"146 339 OFFCURVE",
"44 268 OFFCURVE",
"21 160 CURVE SMOOTH",
"-5 37 OFFCURVE",
"80 -11 OFFCURVE",
"169 -11 CURVE SMOOTH",
"262 -11 OFFCURVE",
"314 16 OFFCURVE",
"335 38 CURVE",
"328 6 OFFCURVE",
"342 -8 OFFCURVE",
"371 -8 CURVE",
"481 0 LINE",
"513 151 OFFCURVE",
"521 208 OFFCURVE",
"538 278 CURVE SMOOTH",
"571 414 OFFCURVE",
"531 513 OFFCURVE",
"328 512 CURVE"
);
},
{
closed = 1;
nodes = (
"380 65 LINE",
"374 -8 LINE",
"526 0 LINE",
"531 22 LINE",
"503 22 OFFCURVE",
"489 42 OFFCURVE",
"494 65 CURVE"
);
}
);
width = 619;
}
);
unicode = 00E1;
},
{
glyphname = agrave;
lastChange = "2022-02-15 22:21:22 +0000";
layers = (
{
components = (
{
name = a;
}
);
layerId = "0F50FE64-90BD-4AD4-940A-DD271C654105";
paths = (
{
closed = 1;
nodes = (
"226 744 LINE",
"142 744 LINE",
"248 602 LINE",
"293 602 LINE"
);
}
);
width = 452;
},
{
components = (
{
name = a;
}
);
layerId = "78443275-C7CF-46E0-B20A-E99834DDCE81";
paths = (
{
closed = 1;
nodes = (
"324 744 LINE",
"120 744 LINE",
"266 602 LINE",
"351 602 LINE"
);
}
);
width = 554;
},
{
components = (
{
name = a;
}
);
layerId = "A2D4E86B-AE4C-4A17-A9B1-46D900F500CD";
paths = (
{
closed = 1;
nodes = (
"278 744 LINE",
"194 744 LINE",
"269 602 LINE",
"314 602 LINE"
);
}
);
width = 414;
},
{
components = (
{
name = a;
transform = "{1, 0, 0, 1, -22, 0}";
}
);
layerId = "01F24223-DBC3-4147-9700-0A3055B7ADEF";
paths = (
{
closed = 1;
nodes = (
"532 744 LINE",
"328 744 LINE",
"444 602 LINE",
"529 602 LINE"
);
}
);
width = 670;
}
);
unicode = 00E0;
},
{
glyphname = atilde;
lastChange = "2022-02-15 22:22:19 +0000";
layers = (
{
layerId = "0F50FE64-90BD-4AD4-940A-DD271C654105";
paths = (
{
closed = 1;
nodes = (
"389 704 OFFCURVE",
"364 671 OFFCURVE",
"327 670 CURVE SMOOTH",
"292 669 OFFCURVE",
"236 730 OFFCURVE",
"200 730 CURVE SMOOTH",
"162 730 OFFCURVE",
"125 674 OFFCURVE",
"86 636 CURVE",
"96 602 LINE",
"145 645 OFFCURVE",
"162 670 OFFCURVE",
"201 670 CURVE SMOOTH",
"236 670 OFFCURVE",
"297 610 OFFCURVE",
"326 610 CURVE SMOOTH",
"364 610 OFFCURVE",
"402 659 OFFCURVE",
"442 695 CURVE",
"432 727 LINE"
);
},
{
closed = 1;
nodes = (
"280 24 OFFCURVE",
"224 24 CURVE SMOOTH",
"166 24 OFFCURVE",
"120 80 OFFCURVE",
"120 162 CURVE SMOOTH",
"120 237 OFFCURVE",
"156 292 OFFCURVE",
"224 294 CURVE",
"282 296 OFFCURVE",
"338 249 OFFCURVE",
"338 153 CURVE SMOOTH",
"338 67 OFFCURVE"
);
},
{
closed = 1;
nodes = (
"166 512 OFFCURVE",
"121 488 OFFCURVE",
"105 478 CURVE",
"86 410 LINE",
"103 409 LINE",
"137 445 OFFCURVE",
"188 478 OFFCURVE",
"246 478 CURVE SMOOTH",
"319 478 OFFCURVE",
"340 404 OFFCURVE",
"337 278 CURVE",
"324 302 OFFCURVE",
"287 329 OFFCURVE",
"224 329 CURVE SMOOTH",
"97 329 OFFCURVE",
"40 248 OFFCURVE",
"40 160 CURVE SMOOTH",
"40 57 OFFCURVE",
"105 -11 OFFCURVE",
"224 -11 CURVE SMOOTH",
"287 -11 OFFCURVE",
"324 16 OFFCURVE",
"340 38 CURVE",
"340 6 OFFCURVE",
"357 -8 OFFCURVE",
"386 -8 CURVE",
"412 0 LINE",
"412 151 OFFCURVE",
"408 208 OFFCURVE",
"410 278 CURVE SMOOTH",
"414 404 OFFCURVE",
"389 513 OFFCURVE",
"246 512 CURVE"
);
},
{
closed = 1;
nodes = (
"377 65 LINE",
"386 -8 LINE",
"457 0 LINE",
"457 22 LINE",
"429 22 OFFCURVE",
"411 42 OFFCURVE",
"411 65 CURVE"
);
}
);
width = 497;
},
{
layerId = "78443275-C7CF-46E0-B20A-E99834DDCE81";
paths = (
{
closed = 1;
nodes = (
"427 715 OFFCURVE",
"422 700 OFFCURVE",
"385 698 CURVE SMOOTH",
"350 696 OFFCURVE",
"313 738 OFFCURVE",
"278 738 CURVE SMOOTH",
"240 738 OFFCURVE",
"184 703 OFFCURVE",
"144 664 CURVE",
"171 595 LINE",
"210 628 OFFCURVE",
"240 638 OFFCURVE",
"279 638 CURVE SMOOTH",
"313 638 OFFCURVE",
"355 598 OFFCURVE",
"384 598 CURVE SMOOTH",
"422 598 OFFCURVE",
"460 627 OFFCURVE",
"500 663 CURVE",
"470 738 LINE"
);
},
{
closed = 1;
nodes = (
"348 64 OFFCURVE",
"294 64 CURVE SMOOTH",
"251 64 OFFCURVE",
"200 100 OFFCURVE",
"200 162 CURVE SMOOTH",
"200 217 OFFCURVE",
"251 252 OFFCURVE",
"294 254 CURVE",
"357 255 OFFCURVE",
"389 202 OFFCURVE",
"389 158 CURVE SMOOTH",
"389 104 OFFCURVE"
);
},
{
closed = 1;
nodes = (
"200 512 OFFCURVE",
"156 500 OFFCURVE",
"134 487 CURVE",
"100 389 LINE",
"132 389 LINE",
"172 415 OFFCURVE",
"228 438 OFFCURVE",
"272 438 CURVE SMOOTH",
"365 438 OFFCURVE",
"380 364 OFFCURVE",
"377 278 CURVE",
"377 278 OFFCURVE",
"337 339 OFFCURVE",
"224 339 CURVE SMOOTH",
"127 339 OFFCURVE",
"40 268 OFFCURVE",
"40 160 CURVE SMOOTH",
"40 37 OFFCURVE",
"135 -11 OFFCURVE",
"224 -11 CURVE SMOOTH",
"317 -11 OFFCURVE",
"364 16 OFFCURVE",
"380 38 CURVE",
"380 6 OFFCURVE",
"397 -8 OFFCURVE",
"426 -8 CURVE",
"534 0 LINE",
"534 151 OFFCURVE",
"530 208 OFFCURVE",
"532 278 CURVE SMOOTH",
"536 414 OFFCURVE",
"475 513 OFFCURVE",
"272 512 CURVE"
);
},
{
closed = 1;
nodes = (
"419 65 LINE",
"429 -8 LINE",
"579 0 LINE",
"579 22 LINE",
"551 22 OFFCURVE",
"533 42 OFFCURVE",
"533 65 CURVE"
);
}
);
width = 619;
},
{
layerId = "A2D4E86B-AE4C-4A17-A9B1-46D900F500CD";
paths = (
{
closed = 1;
nodes = (
"485 704 OFFCURVE",
"453 671 OFFCURVE",
"416 670 CURVE SMOOTH",
"381 669 OFFCURVE",
"338 730 OFFCURVE",
"302 730 CURVE SMOOTH",
"264 730 OFFCURVE",
"215 674 OFFCURVE",
"168 636 CURVE",
"171 602 LINE",
"229 645 OFFCURVE",
"251 670 OFFCURVE",
"290 670 CURVE SMOOTH",
"325 670 OFFCURVE",
"373 610 OFFCURVE",
"402 610 CURVE SMOOTH",
"440 610 OFFCURVE",
"489 659 OFFCURVE",
"536 695 CURVE",
"533 727 LINE"
);
},
{
closed = 1;
nodes = (
"232 24 OFFCURVE",
"176 24 CURVE SMOOTH",
"118 24 OFFCURVE",
"84 80 OFFCURVE",
"101 162 CURVE SMOOTH",
"117 237 OFFCURVE",
"165 292 OFFCURVE",
"233 294 CURVE",
"292 296 OFFCURVE",
"338 249 OFFCURVE",
"317 153 CURVE SMOOTH",
"299 67 OFFCURVE"
);
},
{
closed = 1;
nodes = (
"221 512 OFFCURVE",
"171 488 OFFCURVE",
"153 478 CURVE",
"120 410 LINE",
"137 409 LINE",
"178 445 OFFCURVE",
"236 478 OFFCURVE",
"294 478 CURVE SMOOTH",
"367 478 OFFCURVE",
"372 404 OFFCURVE",
"343 278 CURVE",
"335 302 OFFCURVE",
"304 329 OFFCURVE",
"241 329 CURVE SMOOTH",
"114 329 OFFCURVE",
"39 248 OFFCURVE",
"21 160 CURVE SMOOTH",
"-1 57 OFFCURVE",
"49 -11 OFFCURVE",
"168 -11 CURVE SMOOTH",
"231 -11 OFFCURVE",
"274 16 OFFCURVE",
"295 38 CURVE",
"288 6 OFFCURVE",
"302 -8 OFFCURVE",
"331 -8 CURVE",
"359 0 LINE",
"391 151 OFFCURVE",
"399 208 OFFCURVE",
"416 278 CURVE SMOOTH",
"446 404 OFFCURVE",
"445 513 OFFCURVE",
"301 512 CURVE"
);
},
{
closed = 1;
nodes = (
"338 65 LINE",
"331 -8 LINE",
"404 0 LINE",
"408 22 LINE",
"380 22 OFFCURVE",
"367 42 OFFCURVE",
"372 65 CURVE"
);
}
);
width = 497;
},
{
layerId = "01F24223-DBC3-4147-9700-0A3055B7ADEF";
paths = (
{
closed = 1;
nodes = (
"550 715 OFFCURVE",
"542 700 OFFCURVE",
"504 698 CURVE SMOOTH",
"469 696 OFFCURVE",
"441 738 OFFCURVE",
"406 738 CURVE SMOOTH",
"368 738 OFFCURVE",
"304 703 OFFCURVE",
"256 664 CURVE",
"268 595 LINE",
"314 628 OFFCURVE",
"346 638 OFFCURVE",
"385 638 CURVE SMOOTH",
"419 638 OFFCURVE",
"453 598 OFFCURVE",
"482 598 CURVE SMOOTH",
"520 598 OFFCURVE",
"564 627 OFFCURVE",
"612 663 CURVE",
"598 738 LINE"
);
},
{
closed = 1;
nodes = (
"332 64 OFFCURVE",
"278 64 CURVE SMOOTH",
"235 64 OFFCURVE",
"192 100 OFFCURVE",
"205 162 CURVE SMOOTH",
"217 217 OFFCURVE",
"275 252 OFFCURVE",
"319 254 CURVE",
"382 255 OFFCURVE",
"403 202 OFFCURVE",
"393 158 CURVE SMOOTH",
"382 104 OFFCURVE"
);
},
{
closed = 1;
nodes = (
"280 512 OFFCURVE",
"233 500 OFFCURVE",
"208 487 CURVE",
"153 389 LINE",
"185 389 LINE",
"231 415 OFFCURVE",
"292 438 OFFCURVE",
"336 438 CURVE SMOOTH",
"429 438 OFFCURVE",
"428 364 OFFCURVE",
"407 278 CURVE",
"407 278 OFFCURVE",
"380 339 OFFCURVE",
"267 339 CURVE SMOOTH",
"170 339 OFFCURVE",
"68 268 OFFCURVE",
"45 160 CURVE SMOOTH",
"19 37 OFFCURVE",
"103 -11 OFFCURVE",
"192 -11 CURVE SMOOTH",
"285 -11 OFFCURVE",
"338 16 OFFCURVE",
"359 38 CURVE",
"352 6 OFFCURVE",
"366 -8 OFFCURVE",
"395 -8 CURVE",
"505 0 LINE",
"537 151 OFFCURVE",
"545 208 OFFCURVE",
"562 278 CURVE SMOOTH",
"595 414 OFFCURVE",
"555 513 OFFCURVE",
"352 512 CURVE"
);
},
{
closed = 1;
nodes = (
"404 65 LINE",
"398 -8 LINE",
"550 0 LINE",
"554 22 LINE",
"526 22 OFFCURVE",
"513 42 OFFCURVE",
"518 65 CURVE"
);
}
);
width = 652;
}
);
unicode = 00E3;
},
{
glyphname = ae;
lastChange = "2022-02-24 22:10:35 +0000";
layers = (
{
layerId = "0F50FE64-90BD-4AD4-940A-DD271C654105";
paths = (
{
closed = 1;
nodes = (
"317 67 OFFCURVE",
"259 24 OFFCURVE",
"203 24 CURVE SMOOTH",
"145 24 OFFCURVE",
"99 80 OFFCURVE",
"99 162 CURVE SMOOTH",
"99 237 OFFCURVE",
"135 292 OFFCURVE",
"203 294 CURVE SMOOTH",
"261 296 OFFCURVE",
"317 249 OFFCURVE",
"317 153 CURVE SMOOTH"
);
},
{
closed = 1;
nodes = (
"145 512 OFFCURVE",
"100 488 OFFCURVE",
"84 478 CURVE",
"65 410 LINE",
"82 409 LINE",
"116 445 OFFCURVE",
"167 478 OFFCURVE",
"225 478 CURVE SMOOTH",
"298 478 OFFCURVE",
"319 404 OFFCURVE",
"316 278 CURVE",
"303 302 OFFCURVE",
"266 329 OFFCURVE",
"203 329 CURVE SMOOTH",
"76 329 OFFCURVE",
"19 248 OFFCURVE",
"19 160 CURVE SMOOTH",
"19 57 OFFCURVE",
"84 -11 OFFCURVE",
"203 -11 CURVE SMOOTH",
"266 -11 OFFCURVE",
"303 16 OFFCURVE",
"319 38 CURVE",
"319 6 OFFCURVE",
"336 -8 OFFCURVE",
"365 -8 CURVE",
"391 0 LINE",
"391 151 OFFCURVE",
"387 208 OFFCURVE",
"389 278 CURVE SMOOTH",
"393 404 OFFCURVE",
"368 513 OFFCURVE",
"225 512 CURVE SMOOTH"
);
},
{
closed = 1;
nodes = (
"320 112 OFFCURVE",
"415 -11 OFFCURVE",
"544 -11 CURVE SMOOTH",
"644 -11 OFFCURVE",
"687 21 OFFCURVE",
"706 40 CURVE",
"726 121 LINE",
"708 121 LINE",
"679 81 OFFCURVE",
"627 35 OFFCURVE",
"544 35 CURVE SMOOTH",
"456 35 OFFCURVE",
"400 135 OFFCURVE",
"400 257 CURVE SMOOTH",
"400 372 OFFCURVE",
"446 474 OFFCURVE",
"544 474 CURVE SMOOTH",
"644 474 OFFCURVE",
"667 378 OFFCURVE",
"667 253 CURVE",
"747 253 LINE",
"747 395 OFFCURVE",
"700 509 OFFCURVE",
"544 509 CURVE SMOOTH",
"387 509 OFFCURVE",
"320 383 OFFCURVE",
"320 255 CURVE SMOOTH"
);
},
{
closed = 1;
nodes = (
"386 253 LINE",
"747 253 LINE",
"747 288 LINE",
"386 288 LINE"
);
}
);
width = 779;
},
{
layerId = "78443275-C7CF-46E0-B20A-E99834DDCE81";
paths = (
{
closed = 1;
nodes = (
"389 104 OFFCURVE",
"348 64 OFFCURVE",
"294 64 CURVE SMOOTH",
"251 64 OFFCURVE",
"200 100 OFFCURVE",
"200 162 CURVE SMOOTH",
"200 217 OFFCURVE",
"251 252 OFFCURVE",
"294 254 CURVE SMOOTH",
"357 255 OFFCURVE",
"389 202 OFFCURVE",
"389 158 CURVE SMOOTH"
);
},
{
closed = 1;
nodes = (
"200 512 OFFCURVE",
"156 500 OFFCURVE",
"134 487 CURVE",
"100 389 LINE",
"132 389 LINE",
"172 415 OFFCURVE",
"228 438 OFFCURVE",
"272 438 CURVE SMOOTH",
"365 438 OFFCURVE",
"380 364 OFFCURVE",
"377 278 CURVE",
"377 278 OFFCURVE",
"337 339 OFFCURVE",
"224 339 CURVE SMOOTH",
"127 339 OFFCURVE",
"40 268 OFFCURVE",
"40 160 CURVE SMOOTH",
"40 37 OFFCURVE",
"135 -11 OFFCURVE",
"224 -11 CURVE SMOOTH",
"317 -11 OFFCURVE",
"364 16 OFFCURVE",
"380 38 CURVE",
"380 6 OFFCURVE",
"397 -8 OFFCURVE",
"426 -8 CURVE",
"534 0 LINE",
"534 151 OFFCURVE",
"530 208 OFFCURVE",
"532 278 CURVE SMOOTH",
"536 414 OFFCURVE",
"475 513 OFFCURVE",
"272 512 CURVE SMOOTH"
);
},
{
closed = 1;
nodes = (
"399 112 OFFCURVE",
"488 -11 OFFCURVE",
"683 -11 CURVE SMOOTH",
"791 -11 OFFCURVE",
"856 25 OFFCURVE",
"874 43 CURVE",
"895 133 LINE",
"874 133 LINE",
"846 95 OFFCURVE",
"798 54 OFFCURVE",
"713 54 CURVE SMOOTH",
"615 54 OFFCURVE",
"559 135 OFFCURVE",
"559 257 CURVE SMOOTH",
"559 372 OFFCURVE",
"565 434 OFFCURVE",
"643 434 CURVE SMOOTH",
"723 434 OFFCURVE",
"746 378 OFFCURVE",
"746 253 CURVE",
"906 253 LINE",
"906 395 OFFCURVE",
"839 509 OFFCURVE",
"643 509 CURVE SMOOTH",
"486 509 OFFCURVE",
"399 383 OFFCURVE",
"399 255 CURVE SMOOTH"
);
},
{
closed = 1;
nodes = (
"505 253 LINE",
"906 253 LINE",
"879 328 LINE",
"505 328 LINE"
);
}
);
width = 946;
},
{
layerId = "A2D4E86B-AE4C-4A17-A9B1-46D900F500CD";
paths = (
{
closed = 1;
nodes = (
"278 67 OFFCURVE",
"211 24 OFFCURVE",
"155 24 CURVE SMOOTH",
"97 24 OFFCURVE",
"63 80 OFFCURVE",
"80 162 CURVE SMOOTH",
"96 237 OFFCURVE",
"144 292 OFFCURVE",
"212 294 CURVE SMOOTH",
"271 296 OFFCURVE",
"317 249 OFFCURVE",
"296 153 CURVE SMOOTH"
);
},
{
closed = 1;
nodes = (
"201 512 OFFCURVE",
"150 488 OFFCURVE",
"132 478 CURVE",
"99 410 LINE",
"116 409 LINE",
"157 445 OFFCURVE",
"215 478 OFFCURVE",
"273 478 CURVE SMOOTH",
"346 478 OFFCURVE",
"352 404 OFFCURVE",
"322 278 CURVE",
"314 302 OFFCURVE",
"283 329 OFFCURVE",
"220 329 CURVE SMOOTH",
"93 329 OFFCURVE",
"18 248 OFFCURVE",
"0 160 CURVE SMOOTH",
"-22 57 OFFCURVE",
"28 -11 OFFCURVE",
"147 -11 CURVE SMOOTH",
"210 -11 OFFCURVE",
"253 16 OFFCURVE",
"274 38 CURVE",
"267 6 OFFCURVE",
"281 -8 OFFCURVE",
"310 -8 CURVE",
"338 0 LINE",
"370 151 OFFCURVE",
"378 208 OFFCURVE",
"395 278 CURVE SMOOTH",
"426 404 OFFCURVE",
"424 513 OFFCURVE",
"281 512 CURVE SMOOTH"
);
},
{
closed = 1;
nodes = (
"291 112 OFFCURVE",
"359 -11 OFFCURVE",
"488 -11 CURVE SMOOTH",
"588 -11 OFFCURVE",
"638 21 OFFCURVE",
"661 40 CURVE",
"698 121 LINE",
"680 121 LINE",
"643 81 OFFCURVE",
"581 35 OFFCURVE",
"498 35 CURVE SMOOTH",
"410 35 OFFCURVE",
"375 135 OFFCURVE",
"401 257 CURVE SMOOTH",
"426 372 OFFCURVE",
"494 474 OFFCURVE",
"592 474 CURVE SMOOTH",
"692 474 OFFCURVE",
"694 378 OFFCURVE",
"668 253 CURVE",
"748 253 LINE",
"778 395 OFFCURVE",
"755 509 OFFCURVE",
"599 509 CURVE SMOOTH",
"442 509 OFFCURVE",
"348 383 OFFCURVE",
"321 255 CURVE SMOOTH"
);
},
{
closed = 1;
nodes = (
"387 253 LINE",
"748 253 LINE",
"755 288 LINE",
"394 288 LINE"
);
}
);
width = 771;
},
{
layerId = "01F24223-DBC3-4147-9700-0A3055B7ADEF";
paths = (
{
closed = 1;
nodes = (
"382 104 OFFCURVE",
"332 64 OFFCURVE",
"278 64 CURVE SMOOTH",
"235 64 OFFCURVE",
"192 100 OFFCURVE",
"205 162 CURVE SMOOTH",
"217 217 OFFCURVE",
"275 252 OFFCURVE",
"319 254 CURVE SMOOTH",
"382 255 OFFCURVE",
"403 202 OFFCURVE",
"393 158 CURVE SMOOTH"
);
},
{
closed = 1;
nodes = (
"280 512 OFFCURVE",
"233 500 OFFCURVE",
"208 487 CURVE",
"153 389 LINE",
"185 389 LINE",
"231 415 OFFCURVE",
"292 438 OFFCURVE",
"336 438 CURVE SMOOTH",
"429 438 OFFCURVE",
"428 364 OFFCURVE",
"407 278 CURVE",
"407 278 OFFCURVE",
"380 339 OFFCURVE",
"267 339 CURVE SMOOTH",
"170 339 OFFCURVE",
"68 268 OFFCURVE",
"45 160 CURVE SMOOTH",
"19 37 OFFCURVE",
"103 -11 OFFCURVE",
"192 -11 CURVE SMOOTH",
"285 -11 OFFCURVE",
"338 16 OFFCURVE",
"359 38 CURVE",
"352 6 OFFCURVE",
"366 -8 OFFCURVE",
"395 -8 CURVE",
"505 0 LINE",
"537 151 OFFCURVE",
"545 208 OFFCURVE",
"562 278 CURVE SMOOTH",
"595 414 OFFCURVE",
"555 513 OFFCURVE",
"352 512 CURVE SMOOTH"
);
},
{
closed = 1;
nodes = (
"394 112 OFFCURVE",
"456 -11 OFFCURVE",
"651 -11 CURVE SMOOTH",
"759 -11 OFFCURVE",
"832 25 OFFCURVE",
"854 43 CURVE",
"894 133 LINE",
"873 133 LINE",
"837 95 OFFCURVE",
"780 54 OFFCURVE",
"695 54 CURVE SMOOTH",
"597 54 OFFCURVE",
"558 135 OFFCURVE",
"584 257 CURVE SMOOTH",
"609 372 OFFCURVE",
"628 434 OFFCURVE",
"706 434 CURVE SMOOTH",
"786 434 OFFCURVE",
"797 378 OFFCURVE",
"771 253 CURVE",
"931 253 LINE",
"961 395 OFFCURVE",
"918 509 OFFCURVE",
"722 509 CURVE SMOOTH",
"565 509 OFFCURVE",
"451 383 OFFCURVE",
"424 255 CURVE SMOOTH"
);
},
{
closed = 1;
nodes = (
"530 253 LINE",
"931 253 LINE",
"919 328 LINE",
"545 328 LINE"
);
}
);
width = 980;
}
);
unicode = 00E6;
},
